<svg width="1600" height="905" viewBox="0 0 1600 905" fill="none" xmlns="http://www.w3.org/2000/svg">
<path d="M164.7 680.9C340.9 680.9 517 680.9 693.2 680.9C868.5 680.9 1043.8 680.9 1219 680.9C1317.9 680.9 1416.7 680.9 1515.6 680.9C1517.5 680.9 1517.5 677.9 1515.6 677.9C1339.4 677.9 1163.3 677.9 987.1 677.9C811.8 677.9 636.5 677.9 461.3 677.9C362.4 677.9 263.6 677.9 164.7 677.9C162.8 677.9 162.8 680.9 164.7 680.9Z" fill="#E8E8E8"/>
<path d="M537.6 676.7C527.4 672 518.7 664.5 512.9 654.8C510.2 650.3 507.9 645.2 506.7 640.1C505.6 635 507.6 629.8 513.6 630.6C517.5 631.1 520.6 633.7 523.4 636.1C524 635.3 524.6 634.5 525.2 633.7C518.7 629.5 513.6 623.7 510.5 616.6C508.4 611.7 503.5 596.2 511.9 594.7C512.9 594.5 513.2 593.3 512.8 592.5C504.8 576 502.9 557.6 501.2 539.6C500.4 531 499.6 520.6 506.3 514C514.2 506 525.1 511.6 531.7 518.4C544 531.1 550.4 549.2 556.9 565.3C563.7 582.2 569.6 599.4 573.9 617C578.8 637.4 581.4 658.3 580.3 679.2C580.2 681.1 583.2 681.1 583.3 679.2C585.5 636.4 572.6 594.9 556.3 555.9C549.6 539.9 542 519.3 526.2 510.1C520.1 506.6 512.7 505.6 506.7 509.8C500.6 514.1 498.3 521.7 497.9 528.8C497.4 539.7 499.3 551.2 501 561.9C502.7 573 505.5 583.9 510.4 594C510.7 593.3 511 592.5 511.3 591.8C502.5 593.4 504.3 606.1 506 612.2C508.7 622.2 515.2 630.7 523.9 636.3C525.3 637.2 527 635 525.7 633.9C520.9 629.9 514.8 625.4 508.3 628.3C501.4 631.4 503.3 639.4 505.3 645.1C510.5 660.2 521.9 672.6 536.3 679.2C537.8 680.1 539.4 677.5 537.6 676.7Z" fill="#E8E8E8"/>
<path d="M569.5 589.7C566.3 565.8 567.3 542.4 574.8 519.4C578.4 508.3 582.2 497.3 585.9 486.3C588.9 477.4 594.2 460.9 606.9 468.6C616 474.1 617.7 488.7 619.8 498.2C622.4 509.8 624.2 521.5 625.3 533.4C627.4 555.8 627.1 578.5 624.7 600.9C621.9 627.3 616.4 653.4 608.9 678.8C608.4 680.7 611.2 681.4 611.8 679.6C626.3 630.3 633.6 578.2 627.6 527C626.2 514.6 624 502.3 621 490.3C618.7 481.3 616.3 470 607.2 465.4C599.7 461.7 592.5 465.3 588.5 472.1C586.2 476 584.9 480.5 583.4 484.7C581.2 491.3 579 497.8 576.8 504.4C572.4 517.6 567.7 530.6 565.9 544.5C564 559.5 564.6 574.7 566.6 589.7C566.7 591.6 569.7 591.6 569.5 589.7Z" fill="#E8E8E8"/>
<path d="M509.4 512.1C538.2 563.4 560.9 619.2 566.1 678.4C566.3 680.3 569.3 680.3 569.1 678.4C563.8 618.7 541.1 562.5 512 510.6C511.1 508.9 508.5 510.4 509.4 512.1Z" fill="#E8E8E8"/>
<path d="M601.2 467.2C603.6 484.7 602.7 502.4 602 520C601.3 537.3 600.6 554.6 599.9 572C598.5 607.2 597.6 642.7 591.1 677.4C590.8 679.3 593.6 680.1 594 678.2C600.5 643.2 601.5 607.5 602.9 572C603.6 554 604.4 536 605.1 518.1C605.8 500.9 606.5 483.6 604.1 466.5C603.9 464.5 601 465.4 601.2 467.2Z" fill="#E8E8E8"/>
<path d="M572.5 517.7C585.2 534.8 594.3 554.2 599.1 574.9C599.5 576.8 602.4 576 602 574.1C597.1 553.1 588 533.4 575.1 516.1C574 514.6 571.4 516.1 572.5 517.7Z" fill="#E8E8E8"/>
<path d="M620.2 496.9C612.1 511.6 605.7 527.1 601 543.3C600.5 545.2 603.4 546 603.9 544.1C608.5 528.2 614.9 512.9 622.8 498.4C623.7 496.8 621.1 495.2 620.2 496.9Z" fill="#E8E8E8"/>
<path d="M511.6 594.4C532.7 603 550.2 618.7 561.3 638.6C562.2 640.3 564.8 638.8 563.9 637.1C552.4 616.5 534.2 600.5 512.4 591.6C510.6 590.7 509.9 593.6 511.6 594.4Z" fill="#E8E8E8"/>
<path d="M539.8 526.9C538 544 538.8 561.1 542 578C542.4 579.9 545.3 579.1 544.9 577.2C541.8 560.6 541.1 543.7 542.8 526.9C543 525 540 525 539.8 526.9Z" fill="#E8E8E8"/>
<path d="M183.1 677.3C180.8 670.6 179.1 663.6 178.3 656.5C178 653.5 177.8 650.5 177.8 647.4C177.8 645.8 177.5 643.5 177.9 642C177.9 641.4 178 640.8 178 640.2C179.9 638.8 181.5 639 182.8 640.7C183.7 641.5 185.5 641 185.4 639.6C185.1 635.5 185.1 631.4 185.6 627.3C185.9 625.3 186.2 623.3 186.7 621.4C186.9 620.7 189.3 613.9 189.5 614.2C190.2 615.2 191.9 615.2 192.2 613.8C196.5 596.1 204.2 579.6 213.6 564.1C216 560.1 218.6 556.1 221.2 552.2C224.1 547.9 228.9 541.1 233.3 548.6C237.8 556.2 239.1 567.3 239.5 576C240.5 594.4 236.3 612.7 230.4 630C224.7 646.9 217.6 663.8 205.4 677.1C204.1 678.5 206.2 680.6 207.5 679.2C218.1 667.7 224.8 653.6 230.3 639.1C236.1 623.6 240.8 607.5 242.2 591C242.9 583 242.8 574.9 241.6 566.9C240.6 560 239.1 551.2 234.8 545.4C225.9 533.6 215.6 555.1 211.9 561.1C201.9 577.3 193.8 594.5 189.3 613C190.2 612.9 191.1 612.8 192 612.6C189.5 609.3 186.4 612.6 185.3 615.4C182.2 622.9 181.6 631.6 182.3 639.5C183.2 639.1 184 638.8 184.9 638.4C183 636.7 179.9 634.5 177.2 635.8C174.4 637.2 174.8 641 174.8 643.6C174.5 655.3 176.4 666.8 180.2 677.9C180.8 679.9 183.7 679.1 183.1 677.3Z" fill="#E8E8E8"/>
<path d="M229.3 545.2C225.9 568.8 220.2 592 212.1 614.4C204.6 635.4 192 655.7 189.2 678.1C189 680 192 680 192.2 678.1C193.7 666.2 198.3 655.2 203.1 644.4C207.6 634.2 211.9 623.9 215.6 613.4C223.3 591.5 228.8 568.9 232.1 545.9C232.4 544.1 229.5 543.3 229.3 545.2Z" fill="#E8E8E8"/>
<path d="M201.7 580.9C202.8 596.8 204.4 612.6 206.5 628.4C206.8 630.3 209.6 629.5 209.4 627.6C207.3 612.1 205.7 596.5 204.7 580.9C204.6 579 201.6 578.9 201.7 580.9Z" fill="#E8E8E8"/>
<path d="M220.4 598.8C228.4 590.9 235.3 582 241.1 572.4C242.1 570.7 239.5 569.2 238.5 570.9C232.8 580.3 226.1 588.9 218.3 596.7C216.9 598 219 600.1 220.4 598.8Z" fill="#E8E8E8"/>
<path d="M172 675.8C165.1 665.9 159.3 655.3 154.9 644C152.9 638.9 151.2 633.6 149.8 628.3C149.1 625.5 148.4 622.7 147.8 619.8C147.4 618.1 144.8 607 148.4 607.7C149.6 607.9 150.5 607 150.2 605.9C147.7 592.1 146.1 578.2 145.6 564.2C145.4 557.8 145.3 551.2 146.7 545C147.4 542 148.4 538.5 150.4 536C155 530.4 159.8 535 162.8 539.2C177.2 559.4 186.4 583.7 190.8 608C191.1 609.9 194 609.1 193.7 607.2C190.9 592.1 186.3 577.5 180 563.6C176.7 556.4 173 549.5 168.8 542.9C166 538.5 162.4 531.6 156.7 530.4C144.2 527.8 142.6 549.6 142.5 557.3C142.3 573.9 144.3 590.6 147.3 606.9C147.9 606.3 148.5 605.7 149.1 605.1C137.1 603 147 630.5 148.5 635.2C153.2 650.3 160.3 664.6 169.3 677.6C170.5 678.9 173.1 677.4 172 675.8Z" fill="#E8E8E8"/>
<path d="M152.3 533.5C163.5 568.2 173 603.5 180.8 639.1C181.2 641 184.1 640.2 183.7 638.3C175.9 602.7 166.4 567.4 155.2 532.7C154.6 530.9 151.7 531.7 152.3 533.5Z" fill="#E8E8E8"/>
<path d="M145 579.9C156.9 585 166.6 593.7 172.8 605C173.7 606.7 176.3 605.2 175.4 603.5C168.9 591.7 158.9 582.6 146.5 577.3C144.7 576.6 143.2 579.2 145 579.9Z" fill="#E8E8E8"/>
<path d="M172.9 554.4C170.3 564.3 168.7 574.3 168.1 584.5C168 586.4 171 586.4 171.1 584.5C171.6 574.6 173.2 564.8 175.8 555.2C176.3 553.3 173.4 552.5 172.9 554.4Z" fill="#E8E8E8"/>
<path d="M1383.1 679.4C1375.2 660.2 1372.9 639.3 1376.9 618.9C1376.4 619.3 1375.9 619.6 1375.5 620C1377.8 619.6 1379.5 620.6 1380.7 623.1C1381.2 624.5 1383.8 624.5 1383.6 622.7C1382.7 613.9 1382.7 605 1383.8 596.2C1384.4 591.8 1385.2 587.5 1386.3 583.2C1386.8 581.2 1387.4 579.2 1388 577.2C1388.4 576.1 1388.7 574.9 1389.1 573.8C1389.8 572.2 1390.2 570.5 1390.2 568.7C1391 569.2 1391.9 569.7 1392.7 570.2C1396.1 551.9 1405 535.4 1418.2 522.4C1417.5 522.4 1416.8 522.4 1416.1 522.4C1420.7 527.3 1420.9 534.3 1421.6 540.6C1422.3 547.2 1422.8 553.8 1423.1 560.4C1423.8 573.3 1423.8 586.3 1423.1 599.2C1421.8 625.9 1417.7 652.3 1410.9 678.1C1410.4 680 1413.3 680.8 1413.8 678.9C1420.9 651.6 1425.1 623.6 1426.2 595.4C1426.8 581.2 1426.5 567 1425.5 552.9C1424.8 542.8 1425.6 528.3 1418.1 520.3C1417.5 519.7 1416.5 519.7 1416 520.3C1402.4 533.6 1393.2 550.7 1389.7 569.4C1389.4 570.8 1391.1 572 1392.2 570.9C1392.4 570.7 1392.5 570.6 1392.7 570.4C1393.1 570 1393.3 569.5 1393.1 568.9C1392.3 566.6 1390.2 565.9 1388.4 567.8C1387.1 569.1 1386.6 571.4 1386 573.1C1384.8 576.5 1383.8 579.9 1382.9 583.4C1379.7 596.3 1378.9 609.6 1380.3 622.8C1381.3 622.7 1382.3 622.5 1383.2 622.4C1381.8 618.9 1379 616.8 1375.1 617.1C1374.5 617.1 1373.8 617.5 1373.7 618.2C1369.7 639.1 1371.8 660.6 1379.9 680.3C1381 681.9 1383.9 681.2 1383.1 679.4Z" fill="#E8E8E8"/>
<path d="M1427.7 598.7C1430.3 580.9 1437.4 563.9 1448.6 549.7C1451.3 546.3 1454.1 543.2 1457.2 540.2C1459.2 538.3 1463.7 532.9 1466.8 537.4C1468 539.1 1467.9 541.9 1467.9 543.9C1467.8 553.6 1466.5 563.5 1465 573.2C1459.3 610.7 1445.9 646.8 1425.8 679C1424.8 680.6 1427.4 682.2 1428.4 680.5C1446.7 651 1459.5 618.4 1466.1 584.3C1467.7 576.1 1468.9 567.9 1469.7 559.6C1470.4 552.9 1472.5 543.8 1470 537.3C1464.7 523.3 1449 544.3 1445.2 549.2C1434.3 563.4 1427.3 580.2 1424.8 597.9C1424.6 599.8 1427.5 600.6 1427.7 598.7Z" fill="#E8E8E8"/>
<path d="M1426 591.2C1424.8 608.1 1422.5 624.8 1419.1 641.4C1418.7 643.3 1421.6 644.1 1422 642.2C1425.5 625.4 1427.8 608.4 1429 591.2C1429.1 589.3 1426.1 589.3 1426 591.2Z" fill="#E8E8E8"/>
<path d="M1464.6 534.8C1447.6 582.5 1431.2 630.3 1415.3 678.4C1414.7 680.2 1417.6 681 1418.2 679.2C1434 631.1 1450.4 583.3 1467.5 535.6C1468.1 533.8 1465.2 533 1464.6 534.8Z" fill="#E8E8E8"/>
<path d="M1415.6 523.6C1407.8 575.6 1399.9 627.5 1392.1 679.5C1391.8 681.4 1394.7 682.2 1395 680.3C1402.8 628.3 1410.7 576.4 1418.5 524.4C1418.8 522.5 1415.9 521.6 1415.6 523.6Z" fill="#E8E8E8"/>
<path d="M1389.4 568.1C1392.7 588.3 1396 608.4 1399.3 628.6C1399.6 630.5 1402.5 629.7 1402.2 627.8C1398.9 607.6 1395.6 587.5 1392.3 567.3C1392 565.4 1389.1 566.2 1389.4 568.1Z" fill="#E8E8E8"/>
<path d="M1423.1 552.7C1416.4 564.1 1410.7 576 1406 588.4C1405.3 590.2 1408.2 591 1408.9 589.2C1413.5 577.1 1419.1 565.4 1425.7 554.3C1426.7 552.5 1424.1 551 1423.1 552.7Z" fill="#E8E8E8"/>
<path d="M1435.7 564.5C1435.7 581.7 1435.7 599 1435.7 616.2C1435.7 618.1 1438.7 618.1 1438.7 616.2C1438.7 599 1438.7 581.7 1438.7 564.5C1438.7 562.6 1435.7 562.6 1435.7 564.5Z" fill="#E8E8E8"/>
<path d="M499.3 719.3C505.9 715.1 513.8 713.8 521.3 716.1C527.8 718.1 533.2 720.8 540.2 720.5C546.7 720.2 553 718.5 559.5 718.1C563 717.9 566.5 718 569.9 719.2C573.3 720.4 575.7 722.2 579.3 722.4C581.2 722.5 581.2 719.5 579.3 719.4C575.2 719.2 571.7 716.3 567.7 715.5C564.5 714.9 561.2 714.9 557.9 715.2C550.9 715.9 544 717.9 537 717.5C529.7 717.1 523.5 712.7 516.3 712C509.7 711.4 503.3 713.2 497.8 716.7C496.2 717.7 497.7 720.3 499.3 719.3Z" fill="#E8E8E8"/>
<path d="M753.5 710.8C763.5 710.5 773.5 710.1 783.4 709.8C788.3 709.6 793.4 709.1 798.3 709.5C802.4 709.8 805.5 712.1 809.3 713C812.4 713.7 815.4 713.2 818.5 712.5C823.8 711.3 829 710.2 834.5 710C844 709.5 853.5 710.6 862.9 711.7C864.8 711.9 864.8 708.9 862.9 708.7C853.5 707.6 844 706.5 834.5 707C830 707.2 825.5 707.8 821.1 708.8C815.8 710 811.7 710.9 806.6 708.6C799.2 705.4 791.4 706.5 783.6 706.8C773.6 707.1 763.6 707.5 753.7 707.8C751.6 707.9 751.6 710.9 753.5 710.8Z" fill="#E8E8E8"/>
<path d="M1112.9 811.5C1123 813 1132.9 811.1 1142.8 809.2C1148.9 808 1155 806.8 1161.3 806.6C1167.5 806.4 1173.3 807.8 1179.3 809.2C1184.5 810.4 1189.5 810.9 1194.8 810.3C1200.1 809.6 1205.2 808.2 1210.5 807.6C1222 806.2 1232.8 811.8 1244.3 811.1C1246.2 811 1246.2 808 1244.3 808.1C1233.6 808.7 1223.6 803.7 1212.9 804.3C1207.8 804.6 1202.9 805.9 1197.8 806.8C1191 808 1185 807.5 1178.3 805.9C1168.3 803.4 1159 803.2 1148.8 805C1137.1 807 1125.5 810.3 1113.6 808.6C1111.8 808.3 1111 811.2 1112.9 811.5Z" fill="#E8E8E8"/>
<path d="M1390.1 714.4C1410.1 707.7 1431.8 714 1452.4 711.2C1458.2 710.4 1464.1 709.4 1470 709.9C1474.9 710.3 1479.5 712.2 1484.3 712.7C1489.3 713.1 1494.2 711.7 1499.1 711.2C1505.2 710.6 1511.2 711 1517.2 712.1C1519.1 712.5 1519.9 709.6 1518 709.2C1513 708.3 1507.9 707.8 1502.8 707.9C1497.4 708.1 1492.2 709.6 1486.8 709.7C1481.7 709.8 1476.9 707.6 1471.8 707C1466.3 706.3 1460.8 707 1455.3 707.7C1443.6 709.3 1432.4 709.2 1420.7 708.6C1410 708.1 1399.4 708 1389.2 711.5C1387.5 712.1 1388.2 715 1390.1 714.4Z" fill="#E8E8E8"/>
<path d="M563 791.7C645.5 791.7 728.1 791.7 810.6 791.7C812.5 791.7 812.5 788.7 810.6 788.7C728.1 788.7 645.5 788.7 563 788.7C561.1 788.7 561.1 791.7 563 791.7Z" fill="#161616"/>
<path d="M793.3 808C835.7 808 878 808 920.4 808C922.3 808 922.3 805 920.4 805C878 805 835.7 805 793.3 805C791.3 805 791.3 808 793.3 808Z" fill="#161616"/>
<path d="M1115.8 760.2C1160.3 760.2 1204.9 760.2 1249.4 760.2C1251.3 760.2 1251.3 757.2 1249.4 757.2C1204.9 757.2 1160.3 757.2 1115.8 757.2C1113.9 757.2 1113.9 760.2 1115.8 760.2Z" fill="#161616"/>
<path d="M1300.4 764.6C1326.8 764.6 1353.3 764.6 1379.7 764.6C1381.6 764.6 1381.6 761.6 1379.7 761.6C1353.3 761.6 1326.8 761.6 1300.4 761.6C1298.5 761.6 1298.5 764.6 1300.4 764.6Z" fill="#161616"/>
<path d="M213.3 734.2C260.4 734.2 307.4 734.2 354.5 734.2C356.4 734.2 356.4 731.2 354.5 731.2C307.4 731.2 260.4 731.2 213.3 731.2C211.4 731.2 211.4 734.2 213.3 734.2Z" fill="#161616"/>
<path d="M348 723.3C374.1 723.3 400.1 723.3 426.2 723.3C428.1 723.3 428.1 720.3 426.2 720.3C400.1 720.3 374.1 720.3 348 720.3C346.1 720.3 346.1 723.3 348 723.3Z" fill="#161616"/>
<path d="M796.7 747.7C830.9 747.7 865 747.7 899.2 747.7C901.1 747.7 901.1 744.7 899.2 744.7C865 744.7 830.9 744.7 796.7 744.7C794.7 744.7 794.7 747.7 796.7 747.7Z" fill="#161616"/>
<path d="M1237.5 229.4C1237.9 221.7 1252.5 229.4 1256.6 228.7C1262 227.8 1263.2 221.8 1269.4 223.1C1273.2 223.9 1276.8 225.7 1280.8 225.3C1283.4 225 1285.3 223.5 1287.8 222.8C1291.7 221.7 1295.6 222.9 1298.5 225.7C1299.9 227 1302 224.9 1300.6 223.6C1296.2 219.4 1290.7 218.5 1285.1 220.6C1280.4 222.4 1277.6 222.2 1272.9 220.8C1270.6 220.1 1268.2 219.4 1265.8 219.7C1263 220.1 1261.9 221.5 1260 223.2C1254.3 228.1 1250.2 223.6 1244.2 222.7C1239.6 222 1234.9 224.3 1234.6 229.4C1234.4 231.4 1237.4 231.4 1237.5 229.4Z" fill="#5222D0"/>
<path d="M1254.6 214.2C1255.4 207.6 1267 213.2 1270.4 213.5C1275 213.9 1276.1 211.3 1279.4 208.9C1285.5 204.4 1289.9 210.1 1296 209.8C1297.7 209.7 1298.6 208.7 1300 207.9C1303.9 205.7 1307.7 205.2 1311.2 208.5C1312.6 209.8 1314.7 207.7 1313.3 206.4C1309.2 202.6 1304.3 202.3 1299.4 204.5C1297.2 205.5 1298.5 206.6 1294.7 206.6C1292.8 206.6 1290.4 205.1 1288.5 204.6C1285.8 203.9 1283 203.5 1280.3 204.6C1275.9 206.4 1275.7 210.8 1269.5 210.3C1266.4 210.1 1263.7 208.2 1260.5 208C1256.2 207.7 1252 209.5 1251.4 214.1C1251.3 216.1 1254.3 216.1 1254.6 214.2Z" fill="#5222D0"/>
<path d="M305.8 575.9C309.9 572.9 313.4 571.5 318.2 573.8C320.1 574.7 321.9 575.7 324 576.1C328.4 576.8 332.4 574.6 336.3 572.9C339.9 571.3 342.9 570.4 346.7 572.4C348.8 573.5 350.5 575 352.9 575.4C357.7 576.3 364.8 571.7 368.6 575.4C370 576.7 372.1 574.6 370.7 573.3C367 569.7 362.5 571.4 357.9 572.2C354.8 572.7 352.8 572.6 350 571C348.7 570.2 347.5 569.2 346 568.7C344 568 342 567.9 339.9 568.3C337.2 568.9 334.7 570.3 332.1 571.4C327.4 573.4 324.3 573.3 319.5 571.2C313.4 568.4 309.5 569.3 304 573.3C302.8 574.4 304.3 577 305.8 575.9Z" fill="#5222D0"/>
<path d="M334.7 560.4C341.5 552.8 353.1 561.6 361.5 559.8C364.6 559.1 366.6 558.1 369.8 559.2C371.7 559.9 373.3 561.2 375.2 561.9C378.9 563.2 382.4 562.6 385.8 561C387.5 560.2 386 557.6 384.3 558.4C377.3 561.8 374.2 556.5 368.1 555.5C366.2 555.2 364.7 555.7 362.9 556.3C359.5 557.3 356.9 557.4 353.3 556.6C346.3 555.1 338.1 552.1 332.4 558.4C331.3 559.7 333.4 561.8 334.7 560.4Z" fill="#5222D0"/>
<path d="M550.1 149.8C542.3 143.9 547.5 130.7 557.5 132.9C561.6 133.8 565.1 137.1 565.1 141.5C565.1 146.7 560.7 151.3 555.6 151.6C553.7 151.7 553.7 154.7 555.6 154.6C562 154.3 567.4 149.2 568.1 142.8C568.7 136.6 564.2 131.4 558.3 130.1C544.8 127 538.3 144.7 548.6 152.5C550.1 153.6 551.6 151 550.1 149.8Z" fill="#5222D0"/>
<path d="M247.3 470.1C242.3 464.6 247 454.8 254.7 456.9C264 459.4 261.6 472.5 252.3 472.4C250.4 472.4 250.4 475.4 252.3 475.4C257.9 475.4 263 471.2 263.8 465.6C264.6 460.4 261.1 455.9 256.3 454.2C245.4 450.4 237.8 464.1 245.2 472.2C246.5 473.6 248.6 471.5 247.3 470.1Z" fill="#EC615B"/>
<path d="M763 438.8C759.3 441.5 756.5 445.1 755.3 449.5C753.9 454.7 757.5 462 754 465.9C751.8 468.4 748 470.1 747 473.5C746.6 474.7 746.7 475.8 747.1 477C747.6 478.7 748.3 479 748.3 480.8C748.3 483.8 745.7 485.1 743.2 486.4C741.5 487.3 743 489.9 744.7 489C747.9 487.3 752 484.5 751.7 480.4C751.5 477.8 749 476.2 750.4 473.4C751.3 471.7 753.6 470.4 754.9 469.1C757.4 466.8 759.1 464.4 758.7 460.9C758.2 457.1 757.1 454.2 758.1 450.3C759.1 446.6 761.3 443.6 764.4 441.4C766 440.3 764.5 437.7 763 438.8Z" fill="#EC615B"/>
<path d="M777.7 448.8C769.2 448 768.2 458.5 768.6 464.6C768.8 468 769 471.4 766.9 474.2C765.8 475.6 764.2 476.7 763.5 478.4C762.9 479.9 763.3 481.1 763.6 482.7C764.5 487.6 761.8 490.8 758.5 494C757.1 495.4 759.2 497.5 760.6 496.1C763.2 493.5 766.2 490.5 766.9 486.7C767.2 484.9 766.5 483.5 766.5 481.8C766.5 478.7 768.4 477.6 769.8 475.4C772 472.2 771.9 468.3 771.6 464.6C771.3 460.3 771 451.2 777.7 451.8C779.7 452 779.6 449 777.7 448.8Z" fill="#EC615B"/>
<path d="M786.8 79C787.2 72.1 798.8 74.7 803.1 72.4C806.2 70.7 808 67.6 809.7 64.7C810.7 63 811.6 61.1 812.9 59.6C815.5 56.6 818.5 57 822.1 56.7C826.8 56.3 830.6 54 833.5 50.3C834.7 48.8 832.6 46.7 831.4 48.2C828.6 51.8 825.1 53.5 820.6 53.8C818.4 53.9 816.3 53.8 814.2 54.8C810.4 56.7 808.6 60.8 806.6 64.3C805 67 803.5 69.2 800.5 70.3C797.6 71.4 794.3 70.8 791.3 71.5C787.3 72.4 784.2 74.9 783.9 79.1C783.7 80.9 786.7 80.9 786.8 79Z" fill="#EC615B"/>
<path d="M795.6 91.5C798.6 86.6 804.7 85.4 809.5 83C813.8 80.9 816 78.2 817.3 73.6C819.2 66.5 824.7 67.4 830.8 66.5C834.5 65.9 837.5 64.7 839 61C839.7 59.2 836.8 58.4 836.1 60.2C834.2 64.7 826.7 63.6 822.7 64.5C818.6 65.3 815.8 67.2 814.6 71.3C813.5 75 813.1 77.3 809.7 79.4C807.6 80.7 805.2 81.6 802.9 82.6C798.9 84.3 795.2 86.2 792.9 90C792 91.6 794.6 93.1 795.6 91.5Z" fill="#EC615B"/>
<path d="M1246.3 550.3C1243.9 542.9 1251.5 535.3 1258.7 539.8C1266.6 544.7 1262.2 555.9 1253.4 555.7C1251.5 555.6 1251.5 558.6 1253.4 558.7C1264.6 559.1 1270.5 544.8 1261.1 537.9C1251.9 531.1 1240.1 540.7 1243.4 551.2C1244 553 1246.9 552.2 1246.3 550.3Z" fill="#EC615B"/>
<path d="M775.2 649C772.4 643.8 775.4 636.2 782.1 637.2C784.8 637.6 787.4 639.6 787.4 642.6C787.4 645.5 785.1 648.4 782.1 648.5C780.2 648.6 780.2 651.6 782.1 651.5C791.5 651.1 793.2 637.8 784.4 634.7C774.7 631.4 768.3 642.4 772.6 650.5C773.6 652.2 776.2 650.7 775.2 649Z" fill="#EC615B"/>
<path d="M1200.2 61.9C1197.3 58.7 1201.5 54.2 1205.1 56.3C1209.6 59 1206.9 64.5 1202.7 65.6C1200.8 66.1 1201.6 69 1203.5 68.5C1210.8 66.7 1213.3 56.4 1205.5 53.2C1198.9 50.5 1193.3 58.8 1198 64C1199.4 65.5 1201.5 63.4 1200.2 61.9Z" fill="#EC615B"/>
<path d="M171.9 164C166.1 161 169.6 151.8 176.1 153.7C183.7 155.9 181.1 165.7 174.4 167.1C172.5 167.5 173.3 170.4 175.2 170C185.2 167.8 187.1 153 176.1 150.6C166.6 148.5 161.8 162.1 170.3 166.5C172.1 167.5 173.6 164.9 171.9 164Z" fill="#5222D0"/>
<path d="M149.7 233.1C149.5 273.5 149.4 314 149.2 354.4C332.8 353.7 516.4 353 700 352.4C699.5 312.6 698.9 272.8 698.4 233C515.5 233 332.6 233.1 149.7 233.1Z" fill="#5222D0"/>
<path d="M145.6 232.8C145.6 272 145.6 311.1 145.6 350.3C145.6 354.2 151.6 354.2 151.6 350.3C151.6 311.1 151.6 272 151.6 232.8C151.6 228.9 145.6 228.9 145.6 232.8Z" fill="#161616"/>
<path d="M151.4 234.4C222.7 234.4 294 234.4 365.3 234.4C436.9 234.4 508.6 234.4 580.2 234.4C620.5 234.4 660.8 234.4 701.2 234.4C705.1 234.4 705.1 228.4 701.2 228.4C629.9 228.4 558.6 228.4 487.3 228.4C415.7 228.4 344 228.4 272.4 228.4C232.1 228.4 191.8 228.4 151.4 228.4C147.5 228.4 147.5 234.4 151.4 234.4Z" fill="#161616"/>
<path d="M697.9 231.3C698.4 272.1 698.9 313 699.4 353.8C699.4 357.7 705.4 357.7 705.4 353.8C704.9 313 704.4 272.1 703.9 231.3C703.9 227.5 697.9 227.5 697.9 231.3Z" fill="#161616"/>
<path d="M148.6 356.1C220.7 356.1 292.7 356.1 364.8 356.1C436.9 356.1 508.9 356.1 581 356.1C621.5 356.1 662 356.1 702.6 356.1C706.5 356.1 706.5 350.1 702.6 350.1C630.5 350.1 558.5 350.1 486.4 350.1C414.3 350.1 342.3 350.1 270.2 350.1C229.7 350.1 189.2 350.1 148.6 350.1C144.7 350.1 144.7 356.1 148.6 356.1Z" fill="#161616"/>
<path d="M195.3 283.7C199.4 273.7 201.6 263.2 202.2 252.4C201.2 252.4 200.2 252.4 199.2 252.4C198.8 281 198.4 309.6 198.1 338.1C198.1 340 201.1 340 201.1 338.1C201.5 309.5 201.9 280.9 202.2 252.4C202.2 250.5 199.3 250.5 199.2 252.4C198.7 262.9 196.4 273.1 192.4 282.9C191.7 284.7 194.6 285.4 195.3 283.7Z" fill="white"/>
<path d="M240 282C237.4 277.9 236.4 273.1 237.7 268.3C239.2 262.8 246.3 255.9 251 263.3C255 269.7 251.1 280.9 249.1 287.5C244.6 302.7 236.3 316.5 225.1 327.8C224.3 328.7 224.7 329.9 225.8 330.3C238.6 335.1 253.5 339.8 265.7 331C267.3 329.9 265.8 327.3 264.2 328.4C252.6 336.7 238.6 331.9 226.6 327.4C226.8 328.2 227 329.1 227.3 329.9C235.4 321.6 242.2 312.1 247 301.6C251.5 291.8 255.9 279.8 255.5 268.8C255.2 261.1 248.4 253.5 240.6 258.8C232.7 264.2 232.8 275.9 237.4 283.4C238.4 285.1 241 283.6 240 282Z" fill="white"/>
<path d="M287.1 261.8C297.4 261.3 307.5 261.8 317.7 263.4C317.4 262.7 317.1 261.9 316.8 261.2C311.1 268.6 304.4 274.8 296.6 279.9C295 281 296.4 283.3 298.1 282.5C305.6 278.8 313.7 283.6 317.2 290.6C320.2 296.7 320.4 304.1 319.1 310.6C317.8 317 314.5 323.3 308.7 326.8C302.5 330.5 294.3 330.5 288.8 325.6C287.4 324.3 285.2 326.4 286.7 327.7C292.5 332.9 300.7 333.7 307.7 330.6C316 327 320.7 318.5 322.2 309.9C323.6 301.6 322.7 291.9 317.3 285.1C312.3 278.9 303.9 276.4 296.6 279.9C297.1 280.8 297.6 281.6 298.1 282.5C306.3 277.2 313.4 270.6 319.4 262.8C320 262.1 319.4 260.7 318.5 260.6C308.1 259 297.6 258.4 287.1 258.9C285.1 258.9 285.1 261.9 287.1 261.8Z" fill="white"/>
<path d="M368.2 257.4C367.2 265.5 365.3 273 363 280.8C361.8 285 362.4 286.5 366.9 286.9C374.8 287.6 382.8 287.8 390.8 288.3C393.2 288.4 402.1 290.8 402.7 286.7C403 284.8 400.1 284 399.8 285.9C399.8 286.1 371.5 284.3 368.9 284C368.1 284 367.3 283.9 366.6 283.6C365.3 283.8 364.9 283.4 365.6 282.4C365.5 281.5 366.5 279.7 366.8 278.8C367.5 276.4 368.2 274 368.8 271.5C369.9 266.8 370.7 262 371.3 257.2C371.4 255.5 368.4 255.5 368.2 257.4Z" fill="white"/>
<path d="M386.8 262.9C387.5 284.1 388.5 305.4 389.7 326.6C389.8 328.5 392.8 328.5 392.7 326.6C391.5 305.4 390.6 284.2 389.8 262.9C389.7 261 386.7 261 386.8 262.9Z" fill="white"/>
<path d="M413.6 258.1C419.1 257.3 424.4 258.1 429.9 258.6C432.2 258.8 434.6 259 437 258.9C437.8 258.9 442.4 257.9 443 258.2C442.8 257.5 442.6 256.8 442.5 256.1C442.4 256.2 442.4 256.3 442.3 256.4C443 256.2 443.7 256 444.4 255.9C444.3 255.9 444.2 255.8 444.2 255.8C442.5 255 440.9 257.5 442.7 258.4C442.8 258.4 442.9 258.5 442.9 258.5C443.6 258.8 444.5 258.7 445 258C445.1 257.9 445.1 257.8 445.2 257.7C445.6 257 445.4 256.1 444.7 255.6C443.7 255 443 255.3 441.9 255.4C438.2 255.7 434.8 256 431 255.7C424.9 255.2 419.1 254.3 413 255.2C410.9 255.5 411.7 258.4 413.6 258.1Z" fill="white"/>
<path d="M411.3 256.8C414.4 264.3 416.4 272 417.4 280C417.5 280.9 418.3 281.8 419.3 281.4C425.5 279.3 431.6 279.4 436.5 284.2C441.1 288.8 442.4 295.4 441.4 301.7C440.6 307.3 438.3 314.6 432.6 316.9C426 319.6 419.1 316 413.3 312.9C411.6 312 410.1 314.6 411.8 315.5C418.4 319 426.3 322.9 433.8 319.7C440.5 316.9 443.4 308.7 444.4 302.1C445.5 294.9 443.8 287.4 438.6 282.1C433 276.5 425.8 276 418.5 278.5C419.1 279 419.8 279.5 420.4 279.9C419.4 271.6 417.3 263.6 414.2 255.9C413.4 254.2 410.5 255 411.3 256.8Z" fill="white"/>
<path d="M476 255.1C465.3 262.4 457.9 273.8 455.6 286.5C453.9 295.9 453.8 312.9 464.4 317.4C475 321.9 483.4 307.5 479.5 298.5C475.8 290 458.4 288.9 455.7 298.8C455.2 300.7 458.1 301.5 458.6 299.6C460 294.6 467.5 294.2 471.6 295.4C477.8 297.2 478.7 304.5 476 309.6C472.7 315.8 465.5 317 461.4 310.9C459 307.4 458.2 303.1 457.8 299C456.4 282.9 464.1 266.8 477.4 257.6C479.1 256.6 477.6 254 476 255.1Z" fill="white"/>
<path d="M534.8 266.6C534.5 265.9 532.7 262.4 533.1 261.1C532.7 259.8 533.4 259.5 535 260.1C535.7 260.1 536.3 260.1 537 260.1C540.3 260 543.5 260 546.8 259.9C553.3 259.8 559.8 259.6 566.4 259.5C566 258.7 565.5 258 565.1 257.2C554.1 279.5 546.9 303.4 543.9 328.2C544.9 328.1 545.9 327.9 546.8 327.8C546.7 327.1 546.6 326.4 546.5 325.7C546.2 323.8 543.3 324.6 543.6 326.5C543.7 327.2 543.8 327.9 543.9 328.6C544.2 330.4 546.7 329.7 546.8 328.2C549.8 304 556.8 280.6 567.6 258.7C568.1 257.7 567.5 256.4 566.3 256.4C555.6 256.6 544.8 256.6 534 257.1C527.3 257.4 530.2 263.7 532.1 268.1C532.9 269.9 535.5 268.3 534.8 266.6Z" fill="white"/>
<path d="M538.5 297.1C547.5 299.2 556.5 298.8 565.3 296C567.1 295.4 566.3 292.5 564.5 293.1C556.2 295.8 547.8 296.1 539.3 294.2C537.4 293.7 536.6 296.6 538.5 297.1Z" fill="white"/>
<path d="M613.2 260.7C608.3 271.6 603.5 282.5 598.6 293.4C596.3 298.6 594 303.7 591.7 308.9C589.5 313.8 587.8 320.1 584.7 324.5C583.6 326.1 586.2 327.6 587.3 326C590.1 321.9 591.8 315.9 593.9 311.3C596.3 305.8 598.8 300.4 601.2 294.9C606.1 284 610.9 273.1 615.8 262.2C616.6 260.5 614 259 613.2 260.7Z" fill="white"/>
<path d="M614.3 260.1C608.2 254 598.5 258.7 592.6 262.8C585.6 267.6 580.2 276.1 583.6 284.8C587.4 294.7 598.4 297.4 605.5 304.1C611.2 309.4 613.8 317.9 606.7 323.3C600.8 327.8 593 326.8 586.1 325.5C584.2 325.1 583.4 328 585.3 328.4C593.8 330 603.5 330.9 610.2 324.2C616 318.4 614.9 310.1 609.9 304.2C603.2 296.1 589.2 293.6 586.1 282.6C584 275.3 589.2 268.7 594.9 264.9C599.4 261.9 607.6 257.4 612.4 262.1C613.5 263.6 615.6 261.5 614.3 260.1Z" fill="white"/>
<path d="M654.7 263.4C660.2 258 653.6 251.4 647.5 251.4C640.1 251.5 629.2 256.4 627.3 264.2C625.6 271.3 632.2 277.9 639.2 278.1C647.8 278.3 653.3 270.1 654.2 262.4C653.2 262.5 652.2 262.7 651.3 262.8C653.9 276.2 654.6 290 653.1 303.6C652.4 309.6 651.3 318 644.4 320.1C636.4 322.5 629.9 315.5 626.1 309.5C625.1 307.9 622.5 309.4 623.5 311C627.3 316.9 632.4 322.7 639.8 323.4C646.3 324 651.3 320.5 653.7 314.6C656.7 307.3 656.7 298.2 656.7 290.5C656.8 280.9 655.8 271.4 654 262C653.7 260.2 651.2 260.9 651.1 262.4C650.5 267.7 647.4 273.1 642 274.7C637 276.2 630.9 272.9 630.1 267.5C629.3 262.3 634.1 258.9 638.3 256.9C640.4 256 642.6 255.1 644.8 254.7C646.5 254.3 648.2 254.2 649.9 254.6C653.2 255.7 654 257.9 652.4 261.2C651.2 262.6 653.3 264.8 654.7 263.4Z" fill="white"/>
<path d="M841 246.1C837.8 248.7 833.7 252.6 829.9 258C826.6 262.7 824.5 267.2 823.2 270.7C826.2 272.1 832.6 275.6 833.9 281.8C835.4 288.6 829.8 294.8 822.4 302.8C817.5 308 810 315 799 321.4C797.1 321.4 793.3 321.2 789.1 319C784.1 316.3 781.7 312.3 780.8 310.7C776.6 311.9 771.2 313.9 765.3 317.4C759.8 320.7 755.6 324.3 752.6 327.3C754 330.5 758.2 339.3 767.7 343.1C771.4 344.6 776.1 345.4 784.8 343.9C793.6 342.4 805.5 338.8 819.6 329.2C839.7 315.5 849.7 299.5 852.5 294.7C859.5 282.8 864.5 274.3 861.6 264.6C857.9 252.5 844.1 247.2 841 246.1Z" fill="#161616"/>
<path d="M781 289.5C786.4 281.9 793.8 276.2 802.4 272.8C804.2 272.1 803.4 269.2 801.6 269.9C792.2 273.6 784.3 279.7 778.4 288C777.2 289.6 779.8 291.1 781 289.5Z" fill="#161616"/>
<path d="M764.5 291.3C772.6 273.6 788.3 260.6 807.3 255.9C809.2 255.4 808.4 252.5 806.5 253C786.9 257.8 770.4 271.4 761.9 289.7C761.1 291.6 763.6 293.1 764.5 291.3Z" fill="#161616"/>
<path d="M750.6 294.5C752.9 280.7 760.4 268.6 771.1 259.5C781.3 250.8 797 241.4 810.9 243.2C812.8 243.4 812.8 240.4 810.9 240.2C796.7 238.4 780.9 247.7 770.2 256.3C758.6 265.7 750.2 278.8 747.7 293.6C747.4 295.6 750.3 296.4 750.6 294.5Z" fill="#161616"/>
<path d="M921.3 740.8C921.7 753.8 922 766.8 922.4 779.8C881.1 792 860.8 800 861.5 803.8C862.4 808.6 895.5 807 960.8 799C959.4 776.8 958 754.5 956.5 732.3C944.8 735.1 933.1 737.9 921.3 740.8Z" fill="#161616" stroke="#161616" stroke-width="2" stroke-miterlimit="10"/>
<path d="M1052 484.5C1046 486.3 1047.3 487 1014.9 511.9C980.6 538.2 963.5 551.4 951.6 558.1C944.7 562 939.1 564.8 932.2 571.2C920.8 581.9 915 594.1 910.5 606C896.5 643.1 894.4 678.6 894 694.4C893.6 709 893.9 729.6 897.4 754.3C908.2 756.9 917.2 757.6 923.6 757.7C934.7 757.9 950.5 758.1 966.9 749.7C971.7 747.2 975.4 744.6 977.7 742.9C974.8 725.8 972.6 704.3 973.7 679.6C974.6 659.7 977.3 642.2 980.5 627.7C985.8 623.7 993.9 618 1004.4 612.3C1016.5 605.8 1028.6 601 1062 591.2C1102 579.5 1103.4 580.8 1109.3 575.8C1124.6 563 1135.6 537.2 1127 514.8C1115.8 485.3 1076.4 477.4 1052 484.5Z" fill="white"/>
<path d="M1036.6 494.6C1018.1 507.5 999.7 520.5 981.2 533.4C964.8 544.9 947.2 555.7 932.2 569.2C917.8 582.1 909.8 598.2 904.6 616.6C898.9 637 895.2 658.1 893.3 679.2C891.1 703.5 891.6 727.9 894.4 752.1C894.6 754 897.6 754 897.4 752.1C892.5 710.7 894.9 668.6 904.7 628.2C909.4 608.7 915.6 589.9 930.1 575.4C944.1 561.4 961.7 550.8 977.8 539.5C997.9 525.4 1018 511.3 1038.1 497.2C1039.7 496.1 1038.2 493.5 1036.6 494.6Z" fill="#161616"/>
<path d="M1093.3 579.4C1071.3 585.7 1049.6 592.7 1028.2 600.7C1018.8 604.2 1009.2 607.7 1000 611.8C992.4 615.2 985.3 619.5 980.9 626.8C979.9 628.5 982.5 630 983.5 628.3C988.3 620.2 996.9 616.2 1005.2 612.8C1014.8 608.9 1024.5 605.2 1034.3 601.6C1054 594.4 1073.9 588 1094 582.3C1095.9 581.8 1095.1 578.9 1093.3 579.4Z" fill="#161616"/>
<path d="M982.2 611.8C971.8 654.3 969.9 698.5 976.6 741.7C976.9 743.6 979.8 742.8 979.5 740.9C972.9 698.2 974.8 654.5 985.1 612.6C985.5 610.7 982.6 609.9 982.2 611.8Z" fill="#161616"/>
<path d="M895.7 752C896.2 757.6 904.9 756.7 908.7 757.1C917.9 758 927.1 758.7 936.4 758.2C951.4 757.4 966.1 753.2 977.9 743.6C979.4 742.4 977.3 740.3 975.8 741.5C965.7 749.7 953.2 753.7 940.4 754.9C933.8 755.5 927.2 755.5 920.6 755.1C918.2 755 898.9 754.5 898.7 752C898.5 750.1 895.5 750.1 895.7 752Z" fill="#161616"/>
<path opacity="0.11" d="M1092.4 545.7C1078.6 538.7 1062.8 556.6 1023.8 574.4C991.9 589 984 585.4 971.5 593C949.5 606.3 930 644.2 944 754.3C947.1 754.3 950.7 754 954.7 753.2C965.2 751 972.7 746 977.2 742.5C973.7 720.6 971.6 693 975 661.5C976.4 648.2 978.6 636 981.2 625C990.7 619.5 1005.5 611.6 1024.5 604.2C1070.6 586.1 1099.2 587.2 1103.8 571C1106.2 561.9 1100.6 549.8 1092.4 545.7Z" fill="#666666"/>
<path opacity="0.12" d="M1082.3 582.8C1081.8 580.1 1049.4 581.5 1015.4 592.9C993.7 600.1 981.9 604.1 971.6 615.4C955.2 633.2 954.3 656.1 953 687.9C952.4 703 952.8 724.8 958.1 750.9C964.7 748.8 971.2 746.8 977.8 744.7C975.3 726.1 973.7 703.7 975 678.4C976 659.5 978.3 642.6 981.2 627.8C984.1 624.7 988.5 620.3 994.7 616C1008.2 606.5 1020.1 604.1 1034.1 600.3C1052.2 595.2 1082.8 585.4 1082.3 582.8Z" fill="#666666"/>
<path d="M1250 672.7C1271.8 665.6 1290.3 661.6 1303.8 659.2C1323.1 655.8 1327.6 656.5 1331.2 659.2C1337.4 663.8 1336.1 670.6 1338.4 713C1339.2 726.9 1339.6 730.4 1336.8 734.7C1327.3 749.8 1295.7 749.1 1293.3 742.5C1292.4 739.9 1295.4 735.1 1310.4 725.4C1309.9 715.9 1309.4 706.4 1308.8 696.9C1291.7 701 1274.6 705.2 1257.6 709.3C1255.2 697.2 1252.6 685 1250 672.7Z" fill="#161616" stroke="#161616" stroke-width="2" stroke-miterlimit="10"/>
<path d="M1075.3 500.5C1068.7 516 1073.4 532.6 1075.6 540.4C1078.1 549.4 1080.5 550.6 1084.5 562.7C1088.8 575.7 1090.1 585.1 1091.9 596.4C1094.5 612.9 1097.5 631.7 1102.2 650.5C1108 673.7 1111.2 685.6 1120.8 698.5C1125 704.2 1134.9 717 1152.3 723.8C1155.6 725.1 1160 726.5 1170.9 727.9C1182.9 729.5 1201.5 731.9 1226.1 728.9C1247.1 726.4 1264.6 720.8 1277.7 715.5C1280.3 705.9 1280.2 697.9 1279.8 692.8C1279.2 686.4 1278.2 674.5 1269.5 664.4C1267 661.5 1263.3 657.3 1257.1 655.1C1250.3 652.8 1244.2 654.3 1233.4 657.2C1220.9 660.5 1216.3 664.1 1208.1 662.4C1204.6 661.7 1202 660.3 1200.4 659.3C1198 655.6 1194.7 650 1191.6 642.8C1183.5 624 1182.9 608.9 1181.8 592.3C1179.3 554.9 1178 536.2 1172 515.5C1165.7 493.8 1163.9 482.9 1154.5 476.3C1144.8 469.5 1133.8 470 1127 470.3C1110.3 471 1084.5 479 1075.3 500.5Z" fill="white"/>
<path d="M1159.3 483.2C1175.7 517.6 1177 556.2 1180.6 593.4C1183.2 620.3 1185.5 657.2 1212.8 671.4C1214.5 672.3 1216 669.7 1214.3 668.8C1200.3 661.5 1193.3 647.1 1189.4 632.4C1185.2 616.3 1184.1 599.4 1182.7 582.8C1179.7 548.4 1177 513.3 1162 481.6C1161.1 479.9 1158.5 481.4 1159.3 483.2Z" fill="#161616"/>
<path d="M1078 551.7C1095.6 591.6 1091.2 637.1 1108.3 677.1C1115.1 693.1 1125.3 708.1 1139.8 718C1157.4 729.9 1180.3 732.3 1201 732C1227.1 731.6 1252.8 725.6 1277 716.1C1278.8 715.4 1278 712.5 1276.2 713.2C1255.1 721.5 1232.9 727.2 1210.2 728.6C1188.6 730 1164 728.9 1144.9 717.7C1111.4 698 1102.5 655.7 1097.1 620.4C1093.5 596.5 1090.3 572.4 1080.4 550.1C1079.8 548.5 1077.2 550 1078 551.7Z" fill="#161616"/>
<path d="M1198.5 659.8C1216.6 670.4 1237.3 650 1256.4 656.2C1267 659.7 1272.2 671.1 1275.1 681.1C1278.3 691.9 1278.7 703.2 1276.5 714.2C1276.1 716.1 1279 716.9 1279.4 715C1281.4 704.6 1281.3 693.9 1278.9 683.6C1276.6 674.2 1272.6 663.5 1264.7 657.3C1257.4 651.5 1247.7 651.4 1238.9 653.1C1227.1 655.4 1211.6 664.1 1200 657.3C1198.3 656.3 1196.8 658.8 1198.5 659.8Z" fill="#161616"/>
<path opacity="0.11" d="M1144.5 481.9C1127.7 498.4 1161.6 534.7 1162.2 595.7C1162.7 643.4 1151.4 663.2 1166.6 679.2C1188.4 702.1 1237.7 688.9 1243.1 687.4C1251.7 685 1270.1 681.5 1271.6 672.2C1272.5 666.1 1266.1 659.2 1259.6 655.8C1239.8 645.3 1221.3 668.5 1203.9 660.9C1190.8 655.1 1187.9 635.9 1182.4 600.2C1177.9 570.9 1180.7 564.7 1175.4 532.5C1171.5 508.8 1166.5 479.2 1154.5 477.5C1149.7 476.7 1145.3 481 1144.5 481.9Z" fill="#666666"/>
<path opacity="0.17" d="M1171.7 521.1C1170.1 521.2 1170 540.4 1169.8 564.1C1169.3 631.4 1173.1 645.7 1181.8 658.3C1185.4 663.5 1192.2 673.1 1204.6 678.5C1232 690.6 1268.4 674.7 1268.5 664.6C1268.5 659.5 1259.2 655.7 1257.7 655.1C1248.2 651.3 1240.9 655 1221.6 658.3C1213.6 659.7 1206.8 660.4 1202 660.8C1198.4 656.3 1193.4 649.3 1189.4 639.9C1181.7 622.2 1182.3 607.8 1181.8 592.5C1180.7 554.7 1173.7 521 1171.7 521.1Z" fill="#666666"/>
<path d="M800.1 354.4C800.3 352.1 805.6 350.9 808.8 350.2C821.9 347.3 833.2 349.5 836.2 350.7C841.8 352.9 847.4 355.1 853.1 357.3C853.4 355.6 854.3 352 857.2 349.3C862.4 344.6 869.8 346.4 871.8 347C874.4 347.7 878.5 349.3 885.5 356.9C892.7 364.7 893.7 368.7 897.8 373.8C907.3 385.6 921.6 388.7 928.8 390.2C935.1 391.6 947.8 394.3 962.1 388.3C974.7 383 981.8 373.7 984.9 369.5C987.9 365.4 988.9 363 994.9 349.3C1007.1 321.4 1011 312.8 1019.5 304.2C1024.1 299.5 1029.7 294 1035.5 295.3C1042.6 296.9 1045.6 308 1046.9 312.7C1048.3 317.9 1050.1 327.8 1046 345.1C1044.6 351.1 1039.8 368.8 1025.9 388.3C1020.1 396.5 1012 407.6 997.6 417C991.3 421.1 981 427.7 966.1 429.7C952.9 431.5 942.8 428.8 934.2 426.4C924.7 423.8 908.9 418 892.2 404.3C881.5 404.8 873.3 405.5 867.6 406.2C857.9 407.3 853.8 408.2 849.4 405.7C847.9 404.8 845.7 403.2 842.6 403.4C839.7 403.6 838.7 405.2 836.2 405.7C833.4 406.3 828.8 405.8 826.2 402.4C824.1 399.7 824.3 396.3 824.4 395.2C822.7 393.7 820 390.9 818.7 386.7C817.8 383.8 817.9 381.4 817.9 378.7C818 375.5 818 373.9 818.8 372.6C821.1 368.6 827.7 368.8 828.7 368.9C825.5 366.5 822.6 365.2 820.8 364.5C814.6 362 811.3 362.8 805.6 359.7C803.3 358.3 799.9 356.4 800.1 354.4Z" fill="white"/>
<path d="M1036.4 294C1027.7 290.7 1021.2 298 1016.6 304.5C1009.7 314.2 1003.8 324.6 998.8 335.4C989.4 356 983 380 963.7 393.8C962.1 394.9 963.6 397.5 965.2 396.4C980.8 385.1 988.6 367.4 995.7 350.1C1000 339.7 1004.6 329.5 1010.2 319.8C1013 315.1 1015.9 310.4 1019.1 306C1022.9 300.7 1028 294.1 1035.5 296.9C1037.4 297.6 1038.2 294.7 1036.4 294Z" fill="#161616"/>
<path d="M861.5 359.1C857.2 360.5 855.5 355.2 856.8 352.3C857.8 350 860.4 348.8 862.6 348.1C866.8 346.9 871.6 347.7 875.5 349.6C882 352.8 885.7 359.3 889.7 365.1C896.7 375.3 906 383.5 917.3 388.5C939.8 398.4 966.1 393.1 983.4 375.7C984.8 374.3 982.6 372.2 981.3 373.6C969.5 385.6 952.8 392 936 390.4C918.8 388.8 903.2 378.8 893.2 364.9C885.8 354.4 876.5 340.3 861.2 345.4C856.9 346.8 852.7 350.6 853.4 355.5C854 359.9 858 363.4 862.4 361.9C864.1 361.4 863.3 358.5 861.5 359.1Z" fill="#161616"/>
<path d="M851.1 355C843.1 351 834.7 347.9 825.8 347C818 346.2 807.1 346.5 800.7 351.8C794.9 356.6 802.5 359.7 806.6 361.4C816 365.3 826.6 366.5 835.7 371.2C837.4 372.1 838.9 369.5 837.2 368.6C831.6 365.7 825.6 364.3 819.6 362.6C816.4 361.7 813.3 360.7 810.2 359.5C808.5 358.9 805.1 358.2 803.8 356.8C801.5 354.4 804.4 352.9 806.6 352.1C820.5 346.4 836.9 351.2 849.7 357.6C851.3 358.4 852.8 355.8 851.1 355Z" fill="#161616"/>
<path d="M835 369.3C830.7 366.7 825.3 366.4 821 369.1C817.5 371.2 814.6 375.8 816.2 379.9C818 384.6 825 385.1 829.1 385.9C835.4 387 841.4 387 847.2 384.1C848.9 383.2 847.4 380.6 845.7 381.5C839.2 384.8 832 383.6 825.1 382C822.4 381.4 822.3 381.5 820.6 378.6C818.4 376.8 818.5 374.9 820.7 373.1C821.3 372.6 821.9 372.2 822.5 371.7C825.9 369.6 830.1 369.9 833.5 371.9C835.1 372.9 836.6 370.3 835 369.3Z" fill="#161616"/>
<path d="M817.8 381.6C815.8 387.1 818.4 392.8 823.5 395.5C830.1 399 837.6 396.4 843.9 393.9C845.7 393.2 844.9 390.3 843.1 391C838.9 392.7 834.3 394.5 829.7 394.1C823.7 393.6 818.4 388.7 820.7 382.4C821.3 380.6 818.4 379.8 817.8 381.6Z" fill="#161616"/>
<path d="M822.5 394.2C820.7 399.8 825.2 404.5 830.3 406C837.8 408.1 843.8 403.9 849.2 399.2C850.7 397.9 848.5 395.8 847.1 397.1C843.7 400 840.2 403.1 835.6 403.5C831 403.9 823.4 401.1 825.4 395C826 393.2 823.1 392.4 822.5 394.2Z" fill="#161616"/>
<path d="M839.9 374.6C842.9 375.6 847.5 378.3 845.1 382C844.1 383.6 846.7 385.1 847.7 383.5C849.1 381.3 849 378.4 847.5 376.2C846 373.8 843.3 372.5 840.6 371.7C838.8 371.1 838 374 839.9 374.6Z" fill="#161616"/>
<path d="M844.2 384.8C846.3 387.1 845.4 390.7 842.4 391.6C840.6 392.1 841.3 395 843.2 394.5C848.5 393 850 386.6 846.4 382.6C845 381.3 842.9 383.4 844.2 384.8Z" fill="#161616"/>
<path d="M845.6 392.2C847.6 393.3 847.9 396.3 846.3 397.8C844.9 399.1 847 401.3 848.4 399.9C851.4 397 850.8 391.6 847.1 389.6C845.5 388.7 843.9 391.3 845.6 392.2Z" fill="#161616"/>
<path d="M849.1 357.4C851.3 358.4 853.5 359.5 855.7 360.5C857.4 361.3 859 358.7 857.2 357.9C855 356.9 852.8 355.8 850.6 354.8C848.9 354 847.4 356.6 849.1 357.4Z" fill="#161616"/>
<path d="M862.7 362C864.9 360.1 867.9 359.3 870.8 360C872.7 360.4 873.5 357.5 871.6 357.1C867.6 356.2 863.7 357.2 860.6 359.9C859.1 361.2 861.2 363.3 862.7 362Z" fill="#161616"/>
<path d="M864.4 365.6C861.6 373.9 864.9 383.1 872.4 387.6C874.1 388.6 875.6 386 873.9 385C867.5 381.2 864.9 373.3 867.3 366.4C867.9 364.5 865 363.7 864.4 365.6Z" fill="#161616"/>
<path d="M843.3 403.9C849.3 408.2 855.8 409.1 862.9 407.7C872.8 405.9 882.3 405 892.4 406.1C894.3 406.3 894.3 403.3 892.4 403.1C884.6 402.2 876.8 402.3 869 403.5C860.1 404.9 852.8 407 844.8 401.3C843.2 400.2 841.7 402.8 843.3 403.9Z" fill="#161616"/>
<path d="M889.8 404.8C904.1 411.6 917.3 420.7 932.1 426.3C945.7 431.4 960.6 432.4 974.8 428.9C989.4 425.3 1001.2 416.7 1011.5 406C1022.2 395 1031.8 382.6 1038.6 368.7C1046.6 352.5 1050.5 334.5 1048.5 316.5C1048.3 314.6 1045.3 314.6 1045.5 316.5C1047.7 336.3 1042.6 356 1032.8 373.2C1023.7 389.2 1010.8 405.2 995.7 416C980.5 426.8 960.8 430.4 942.6 426.3C924 422.1 908.3 410.2 891.2 402.1C889.6 401.4 888.1 404 889.8 404.8Z" fill="#161616"/>
<path opacity="0.16" d="M1040.4 305.6C1036.5 305.8 1037 322.4 1032.3 339.4C1025.4 364 1005.6 396.3 976.5 406.2C955.9 413.2 935.1 407.4 902 398.1C891.5 395.2 873 389.1 847.4 387.5C826.3 386.2 821.1 389.2 820.9 390.8C820.8 391.8 822.7 392.5 823.8 395.7C824.7 398.4 823.7 399.3 824.6 401C826.2 404.1 831 404.5 832.7 404.7C836.9 405.1 840.3 403.6 842.1 402.7C844 403.6 847 404.8 850.7 405.6C857.9 407.1 862 405.7 871.1 404.8C880.5 403.9 886.7 403.3 893.5 405.2C900 407 903 410 908.6 413.8C910.3 414.9 926.3 425.6 946.1 428.9C952.3 429.9 966.5 432.1 982.3 426C991.3 422.6 997 417.9 1003.5 412.6C1007.6 409.2 1025.9 393.6 1039.3 364.5C1045.2 351.8 1050 341.1 1048.7 327C1047.6 316.7 1043.7 305.4 1040.4 305.6Z" fill="#666666"/>
<path opacity="0.17" d="M849 395.2C853.8 392.8 859.4 394.8 861.6 395.6C874.1 399.9 875.3 396.9 894.2 399.7C909.8 402 910.4 406.5 930.9 413.1C950.6 419.5 966.5 424.6 982.2 419.6C1004.5 412.5 1014.8 390 1015.6 390.7C1016.4 391.3 1007.4 413.1 985.9 423.3C966.4 432.6 946.1 427.9 940.3 426.6C930.9 424.4 923.3 420.8 915 416.8C905.3 412.2 897.7 407.4 892.2 403.8C885.2 403.5 879.7 404.1 875.9 404.6C866.6 406 862.7 408.1 855.1 407C853.1 406.7 844.8 405.5 844.1 401.7C843.7 399.2 846.4 396.5 849 395.2Z" fill="#666666"/>
<path d="M1025.9 297.8C1023.2 301.1 1019.7 306.6 1017.1 350.3C1015.7 374.5 1014.3 399.9 1016.4 437.2C1017.3 452.4 1019 473.2 1022.5 497.8C1033.7 504.2 1054.1 513.7 1081.1 515.3C1124.4 517.9 1156 498.3 1166.6 491.1C1161.2 480.4 1153.8 463.8 1149.1 442.6C1143.3 416.6 1146.1 405.1 1143 373.2C1138.9 331 1136.9 309.9 1124.1 297.1C1099.6 272.5 1045.8 273.3 1025.9 297.8Z" fill="#EC615B"/>
<path opacity="0.22" d="M1080.4 279.8C1087.5 290.4 1096.6 306.1 1103.8 326.5C1106.9 335.4 1122.3 381.2 1111.1 440.1C1105.2 471.4 1093.7 496.6 1082.7 515.2C1090.4 515.7 1099.4 515.6 1109.3 514.3C1135.6 510.7 1155.3 499.8 1167 491.8C1163.3 485 1158.6 475.4 1154.6 463.4C1153.8 460.8 1149.9 449.1 1147.3 430.9C1145.5 418.5 1145.8 414.4 1144.6 394.2C1144.3 389.5 1143.1 370.4 1140.5 348.4C1136.7 316.2 1133.8 309.2 1129 303C1122.2 294.2 1113.6 289.5 1109.8 287.4C1097.8 281.2 1086.6 280 1080.4 279.8Z" fill="#666666"/>
<path opacity="0.22" d="M1140.6 354.9C1139.1 371.1 1137.1 387.8 1134.7 405C1129.2 443.8 1121.9 479.9 1113.6 513C1120.4 512.1 1129.1 510.3 1138.6 506.6C1151 501.8 1160.3 495.4 1166.6 490.4C1153.3 467 1148.7 447.4 1147 433.4C1145.3 419.3 1145.9 405.7 1142.6 372.5C1141.8 365.1 1141.1 359 1140.6 354.9Z" fill="#666666"/>
<path d="M985.1 178.8C983.1 183.7 983.2 189.5 983.2 201.2C983.2 209.5 983.3 221.1 987.6 234.8C990.9 245.4 994.1 256 1004 265.4C1006.8 268.1 1018.9 279.6 1036 279.6C1039.3 279.6 1042.1 279.2 1043.9 278.8C1044.7 281.8 1046.4 286 1049.6 290.3C1051.3 292.5 1053 294.2 1054.5 295.5C1056.9 295.5 1063 295.1 1069.3 291.1C1075.3 287.2 1078.1 282.1 1079.1 279.9C1077.3 278.1 1072.6 272.8 1072.3 265.1C1072.2 263 1072.5 261.2 1072.8 259.6C1076.1 255.4 1079.6 249.9 1082.6 243.2C1084.1 239.9 1085.2 236.8 1086.2 233.9C1087.7 234.3 1090.7 234.8 1093.6 233.4C1096.7 231.8 1097.8 228.7 1099.1 224.9C1101 219.3 1103.1 213 1100.5 207.4C1098 202.1 1094.1 203.3 1090.7 198.4C1085.5 191.1 1090.6 183.7 1088.5 175.7C1085.3 163.4 1067.5 158.1 1060.6 156C1032.3 147.6 993.9 157 985.1 178.8Z" fill="white"/>
<path d="M982.5 193.2C985 193.6 986.6 189.7 990.5 185.8C994.5 181.9 1001.2 177.8 1013.2 176.7C1023 175.7 1032.8 174.6 1042.6 173.6C1045.7 173.8 1052.8 174.6 1059.9 179.5C1065.6 183.5 1068.7 188.3 1070.2 190.9C1073.3 191 1076.3 191.2 1079.4 191.3C1080 195 1080.7 198.7 1081.3 202.4C1081.7 202 1087.1 197.2 1092.7 199C1097.2 200.4 1099.1 205.2 1099.9 207.4C1102.4 213.5 1100.7 218.4 1102.2 218.8C1104 219.4 1107.5 212.8 1107.9 211.9C1108.8 210.2 1111.7 204.3 1112.5 195.1C1113.1 187.6 1113.5 182.6 1110.6 177.9C1109.6 176.3 1108.6 175.3 1108.3 173.3C1107.8 169.5 1110.8 167.4 1112.5 163.8C1113.4 161.9 1113.6 160.1 1111 146.3C1108.2 131.5 1107.2 129.5 1105.7 129.1C1103.7 128.7 1101.9 131.4 1099.6 133.7C1095.6 137.8 1088.7 142.3 1075.9 144C1075.9 139.5 1075.3 135.9 1074.8 133.3C1073.9 129.3 1073.4 129.3 1070.2 119.9C1068.4 114.6 1068 112.4 1066.8 112.3C1064.8 112.1 1064.1 117.2 1059.4 119C1057.3 119.8 1056.5 119.1 1053.7 119.5C1051.2 119.8 1047.8 120.9 1043.9 124.2C1043.9 124.2 1037.9 128.3 1027.9 133.4C1016.8 139 1013.1 132.9 1001.6 138C993 141.8 987.8 148.6 985.6 151.7C983.4 154.8 977.2 163.8 977.2 176.2C977 183.3 979 192.7 982.5 193.2Z" fill="#5222D0"/>
<path d="M982.6 197.2C980.9 214.2 983.7 231.5 990.9 247C997 260.1 1006.7 273.1 1020.7 278.3C1035 283.6 1051.4 279.7 1063.3 270.7C1075.4 261.5 1083 247.8 1087.5 233.5C1088.1 231.7 1085.2 230.9 1084.6 232.7C1080.3 246.3 1073.1 259.4 1061.6 268.2C1049.7 277.2 1033 281 1019.1 274.4C1006.6 268.5 998.2 256.2 992.8 243.9C986.3 229.2 984 213.1 985.6 197.2C985.8 195.3 982.8 195.3 982.6 197.2Z" fill="#161616"/>
<path d="M1083.4 204.7C1084.8 198.6 1091.9 198.8 1095.5 202.7C1098.6 205.9 1099.3 210.6 1099.4 214.9C1099.6 222.1 1097 235.4 1086.7 232.1C1084.9 231.5 1084.1 234.4 1085.9 235C1100.5 239.7 1103.7 219.4 1101.9 209.6C1100.8 203.9 1097.1 197.8 1090.8 197C1086 196.4 1081.6 199.4 1080.5 204.1C1080.1 205.7 1083 206.5 1083.4 204.7Z" fill="#161616"/>
<path d="M1019.7 198.4C1017.4 203.2 1015.1 207.9 1012.9 212.7C1011.8 215.2 1010.6 217.7 1010.8 220.6C1011.3 226.5 1016.5 230.4 1021.9 231.7C1023.8 232.2 1024.6 229.3 1022.7 228.8C1016.2 227.2 1012.2 222 1015 215.4C1017.2 210.2 1019.8 205.1 1022.3 199.9C1023.1 198.2 1020.5 196.7 1019.7 198.4Z" fill="#161616"/>
<path d="M1005.1 211.5C1004.5 210.8 1004.1 209.9 1004 209C1003.9 208.6 1003.9 208.1 1004 207.7C1004 207.4 1004.5 206.5 1004.5 206.3C1004.3 206.3 1004.2 206.4 1004 206.4C1004.1 206.7 1004.1 207 1004.1 207.3C1004.1 207.8 1004.1 208.3 1004.1 208.8C1004 210.1 1003.7 211.3 1003.2 212.5C1004 212.3 1004.9 212.1 1005.7 211.8C1004.7 210.9 1004.3 210 1004.4 208.6C1004.6 206.7 1001.6 206.7 1001.4 208.6C1001.2 210.6 1002 212.6 1003.6 213.9C1004.5 214.7 1005.7 214.3 1006.1 213.2C1007 210.9 1007.4 208.3 1007 205.9C1006.7 204.2 1005.3 202.5 1003.5 203.3C1001.8 204 1001.1 206.4 1001.1 208.2C1001.1 210.2 1001.8 212.1 1003.2 213.6C1004.3 215.1 1006.4 212.9 1005.1 211.5Z" fill="#161616"/>
<path d="M1043.3 210C1043 209.2 1042.8 208.5 1042.8 207.7C1042.8 207.3 1042.9 206.9 1043 206.5C1043 206.4 1043.1 206.2 1043.1 206.1C1043.3 205.8 1043.2 205.8 1042.7 206.1C1042.7 206.2 1042.9 206.7 1042.9 206.9C1042.9 207.3 1042.9 207.7 1042.8 208.1C1042.6 209 1042.2 209.8 1041.7 210.5C1042.5 210.6 1043.3 210.7 1044.1 210.8C1042.9 209.1 1043 207.1 1044.3 205.4C1043.5 205.5 1042.7 205.6 1041.9 205.7C1042.9 206.9 1042.2 208.7 1041 209.3C1041.7 209.6 1042.5 209.9 1043.2 210.2C1042.9 209.4 1042.7 208.7 1042.6 207.8C1042.6 207.3 1042.7 206.8 1042.7 206.3C1042.7 206.1 1042.8 206 1042.8 205.8C1042.5 205.4 1042.4 205.3 1042.6 205.6C1042.9 206.4 1043.1 207 1043 207.9C1043 208.3 1042.8 208.9 1042.8 209.2C1042.8 209.4 1042.7 209.5 1042.7 209.7C1043.4 209.6 1043.5 209.4 1043.1 209C1042 207.4 1039.4 208.9 1040.5 210.5C1041.6 212.1 1044 213.5 1045.3 211.2C1046.3 209.3 1046.3 206 1045.3 204.2C1044.2 202.3 1041.6 201.7 1040.3 203.8C1039.1 205.8 1039.4 208.8 1040.2 210.9C1040.6 211.8 1041.5 212.3 1042.4 211.8C1045.5 210.2 1046.1 206.1 1043.9 203.5C1043.2 202.7 1042.1 203.1 1041.5 203.8C1039.7 206.2 1039.6 209.7 1041.3 212.2C1041.8 212.9 1043 213.3 1043.7 212.5C1045.5 210.2 1047.4 204.8 1043.8 203.1C1042.2 202.4 1040.8 203.4 1040.3 204.9C1039.6 206.8 1039.6 208.9 1040.4 210.7C1041.2 212.5 1044.1 211.8 1043.3 210Z" fill="#161616"/>
<path d="M1011.3 193.2C1006.1 189.8 999.3 191.4 996 196.5C995 198.1 997.6 199.6 998.6 198C1001 194.2 1006 193.3 1009.8 195.7C1011.4 196.8 1012.9 194.2 1011.3 193.2Z" fill="#161616"/>
<path d="M1038.9 194C1043.5 190.1 1050.6 191.3 1052.7 197.2C1053.3 199 1056.2 198.2 1055.6 196.4C1052.7 188.3 1043.1 186.4 1036.8 191.9C1035.4 193.1 1037.5 195.2 1038.9 194Z" fill="#161616"/>
<path d="M1042.6 279.9C1044.2 285.8 1047.3 291.1 1051.8 295.3C1053.2 296.6 1055.3 294.5 1053.9 293.2C1049.8 289.3 1046.9 284.6 1045.5 279.1C1044.9 277.2 1042 278 1042.6 279.9Z" fill="#161616"/>
<path d="M1070.2 261.4C1071.1 268.1 1073.4 274.2 1077.3 279.8C1078.4 281.4 1081 279.9 1079.9 278.3C1076.3 273.2 1074 267.6 1073.2 261.4C1073 259.6 1070 259.5 1070.2 261.4Z" fill="#161616"/>
<path d="M1052 295.8C1062.8 299.5 1075.2 290.8 1079.2 280.9C1079.9 279.1 1077 278.3 1076.3 280.1C1072.9 288.5 1061.8 296 1052.8 292.9C1051 292.3 1050.2 295.2 1052 295.8Z" fill="#161616"/>
<path d="M1044.4 281.5C1051.6 280.3 1058 276.9 1063.1 271.7C1064.4 270.3 1062.3 268.2 1061 269.6C1056.2 274.5 1050.3 277.5 1043.6 278.7C1041.7 279 1042.5 281.8 1044.4 281.5Z" fill="#161616"/>
<path d="M1046.1 283.5C1054.5 281.1 1064 274.5 1067.8 266.5C1068.6 264.8 1066 263.2 1065.2 265C1061.7 272.3 1053 278.5 1045.2 280.7C1043.4 281.2 1044.2 284 1046.1 283.5Z" fill="#161616"/>
<path d="M983.1 185.8C977.4 179.1 979.7 167.1 982.5 159.5C985.9 150.2 992.6 143.2 1002.3 140.5C1010.8 138.1 1019.9 138.4 1028.2 135.2C1037.4 131.6 1044.1 121.7 1054.7 122.4C1056.6 122.5 1056.6 119.5 1054.7 119.4C1042.6 118.6 1035.2 130.2 1024.3 133.3C1013.8 136.4 1002.1 135.3 992.6 141.4C985.1 146.2 980.4 154.3 978.3 162.8C976.2 170.9 975.1 181.2 980.9 187.9C982.2 189.4 984.4 187.3 983.1 185.8Z" fill="#5222D0"/>
<path d="M1015.1 174.5C1014.3 167.2 1015.9 160 1020.2 154C1025 147.3 1032.3 144.3 1039.5 140.9C1045.5 138.1 1051 134.6 1055.3 129.5C1059.5 124.7 1061.6 117.6 1066.9 113.9C1066.2 113.7 1065.5 113.5 1064.8 113.4C1069.8 125.1 1079.8 139.4 1070.8 151.8C1069.7 153.4 1072.3 154.9 1073.4 153.3C1083.1 139.9 1072.8 124.6 1067.4 111.9C1067.1 111.2 1066 110.9 1065.3 111.4C1059.5 115.3 1057.5 122.3 1053 127.4C1047.1 134.3 1039.4 137.4 1031.5 141.2C1018.5 147.5 1010.2 159.7 1011.9 174.5C1012.3 176.4 1015.4 176.4 1015.1 174.5Z" fill="#5222D0"/>
<path d="M1043.4 173.1C1049.8 161.2 1060.3 151.9 1073.1 147.4C1079.1 145.3 1085.4 144.1 1091.1 141.2C1096.6 138.5 1101.3 134.7 1105.4 130.2C1104.6 130.1 1103.8 130 1103 129.9C1106.7 137.8 1110.2 146.7 1110.9 155.4C1111.6 164.8 1106.4 172 1100.7 178.9C1099.5 180.4 1101.6 182.5 1102.8 181C1108.5 174 1114.1 166.6 1113.9 157.2C1113.7 147.3 1109.6 137.2 1105.5 128.4C1105.1 127.5 1103.8 127.4 1103.1 128.1C1097.9 133.7 1091.7 138.1 1084.5 140.7C1078.4 142.9 1072 144.1 1066.1 147C1055.2 152.3 1046.3 161 1040.6 171.6C1039.9 173.3 1042.5 174.8 1043.4 173.1Z" fill="#5222D0"/>
<path d="M1106.4 173.7C1113.6 187.7 1112.3 204.3 1103.1 217C1102 218.6 1104.6 220.1 1105.7 218.5C1115.6 204.9 1116.7 187.1 1109 172.2C1108.1 170.5 1105.5 172 1106.4 173.7Z" fill="#5222D0"/>
<path opacity="0.14" d="M1069.2 189.9C1069.5 194.8 1069.7 201.9 1069.2 210.4C1068.2 225.6 1067.4 238.7 1060.7 251C1052.3 266.3 1037.9 274.3 1028.3 278.3C1032.9 278.6 1040.3 278.4 1048.8 275.6C1055.8 273.3 1061.1 270 1064.5 267.4C1066.4 274.9 1068.4 282.4 1070.3 289.9C1073.3 286.3 1076.2 282.6 1079.2 279C1076.6 273.8 1074 268.5 1071.4 263.3C1073.5 259.9 1075.5 256.3 1077.5 252.4C1081.1 245.6 1084 239.1 1086.4 232.9C1087.7 233.4 1091.5 234.7 1094.9 232.9C1098.7 230.9 1099.6 226.4 1100.4 222.3C1101.2 218 1103.4 206.5 1096.6 201.5C1093.8 199.4 1088.9 198 1085 200.1C1082.9 201.3 1081.8 203.1 1081.2 204.2C1080.7 200.1 1080.3 196 1079.8 191.9C1076.3 191.3 1072.7 190.6 1069.2 189.9Z" fill="#666666"/>
<path opacity="0.2" d="M1046.3 172.9C1051.9 166.8 1058.6 158.1 1064.4 146.6C1068.5 138.4 1071.2 130.8 1072.9 124.4C1077.4 132.5 1077 139 1076.7 141.8C1075 154.6 1063.4 162.6 1056.9 167.1C1052.8 169.9 1049 171.7 1046.3 172.9Z" fill="#212121"/>
<path opacity="0.16" d="M1066.8 184.1C1072.5 182.1 1079.2 179.2 1086.3 174.9C1099.2 167 1107.9 157.6 1113.3 150.7C1114 154.9 1114.7 163.2 1110.2 170.8C1103 183.2 1085.3 189.2 1066.8 184.1Z" fill="#212121"/>
<path opacity="0.22" d="M1001.3 178.7C1001.1 174.5 1001.4 168.5 1003.3 161.6C1007.8 145.8 1019 134 1020.7 135C1022.1 135.8 1018.7 145.2 1001.3 178.7Z" fill="#212121"/>
<path d="M1006.2 243.1C1021.1 243.8 1035.6 240.8 1049 234.2C1050.3 233.6 1049.2 231.6 1047.9 232.3C1034.9 238.7 1020.7 241.6 1006.3 240.9C1004.7 240.8 1004.8 243 1006.2 243.1Z" fill="#161616"/>
<path d="M1007.7 243.5C1009.7 247.1 1011.1 251 1011.9 255C1012.2 256.4 1014.3 255.8 1014.1 254.4C1013.3 250.2 1011.8 246.1 1009.7 242.3C1009 241.1 1007 242.3 1007.7 243.5Z" fill="#161616"/>
<path d="M1012.1 255.1C1018.1 260.9 1027.8 258 1034.2 254.3C1041.9 250 1047.5 242.8 1049.4 234.2C1049.7 232.8 1047.5 232.2 1047.2 233.6C1045.6 240.7 1041.5 246.7 1035.5 250.9C1029.8 254.8 1019.5 259.2 1013.7 253.5C1012.7 252.5 1011.1 254.1 1012.1 255.1Z" fill="#161616"/>
<path d="M1010.7 247.6C1017.5 249.4 1025.3 247.4 1031.8 245.4C1038.1 243.5 1043.9 240.4 1048.3 235.4C1049.3 234.3 1047.7 232.7 1046.7 233.8C1042.5 238.5 1037.2 241.4 1031.2 243.2C1025.1 245 1017.6 247.1 1011.3 245.4C1009.9 245.1 1009.3 247.3 1010.7 247.6Z" fill="#161616"/>
<path d="M1011.7 248.7C1012.5 250.6 1013.3 252.5 1014.1 254.4C1014.6 255.6 1016.6 254.7 1016.2 253.5C1015.5 251.7 1015 250 1014.6 248.1C1014.1 248.6 1013.7 249 1013.2 249.5C1015.6 249.9 1018 250.1 1020.5 250.1C1021.7 250.1 1022.1 248.1 1020.8 247.9C1018.5 247.5 1016.7 247.6 1014.4 248.3C1013.7 248.5 1013.3 249.3 1013.7 250C1014.3 250.9 1015 251.9 1015.6 252.8C1016.4 254 1018.2 253 1017.5 251.7C1017.2 250.8 1016.9 249.9 1016.6 249.1C1015.9 249.4 1015.2 249.7 1014.5 250C1015.5 251.3 1015.9 252.7 1015.5 254.2C1016.2 254 1016.9 253.8 1017.6 253.6C1016.2 251.3 1015 254 1014.7 254.7C1014.4 255.6 1015.6 256.6 1016.4 256C1024.6 249.8 1034.2 246.7 1043.9 243.7C1045.3 243.3 1044.7 241.1 1043.3 241.5C1033.4 244.5 1023.6 247.7 1015.3 254C1015.9 254.4 1016.4 254.8 1017 255.3C1017.4 254.4 1018.6 254.2 1018.8 252.8C1019 251.6 1018.5 249.8 1017.2 249.4C1013.6 248.2 1014.9 253.3 1015.8 254.7C1016.4 255.7 1017.8 255.2 1017.9 254.1C1018.1 252 1017.7 250.5 1016.6 248.8C1015.9 247.8 1014.2 248.4 1014.5 249.7C1014.9 251.4 1014.9 251.3 1015.6 252.9C1016.2 252.5 1016.9 252.1 1017.5 251.8C1016.9 250.9 1016.2 249.9 1015.6 249C1015.4 249.6 1015.2 250.1 1014.9 250.7C1016.6 250 1018.3 249.9 1020.1 250.3C1020.2 249.6 1020.3 248.8 1020.4 248.1C1018.1 248.1 1016.1 248 1013.7 247.6C1012.8 247.4 1012.1 248.1 1012.3 249C1012.7 250.9 1013.2 252.6 1013.9 254.4C1014.6 254.1 1015.3 253.8 1016 253.5C1015.2 251.6 1014.4 249.7 1013.6 247.8C1013.1 246.2 1011.1 247.4 1011.7 248.7Z" fill="#161616"/>
<path d="M1018.1 252.3C1021.6 250.2 1025.2 248.6 1029.1 247.2C1028.8 246.5 1028.5 245.8 1028.2 245.1C1024.7 246.7 1021.2 248.3 1017.8 249.8C1016.7 250.3 1017.5 252.3 1018.7 251.9C1028.1 248.2 1037.4 244.4 1045.9 238.8C1045.3 238.4 1044.8 238 1044.2 237.5C1042.9 241 1037.1 241.4 1034.1 242.5C1031.6 243.4 1029.2 244.6 1026.7 245.5C1023.2 246.7 1019.1 246.5 1016.4 249.5C1015.4 250.6 1017 252.2 1018 251.1C1020.2 248.6 1024.3 248.7 1027.3 247.7C1030.3 246.7 1033.2 245.2 1036.3 244.2C1040.5 242.9 1044.7 242.8 1046.4 238.2C1046.7 237.3 1045.5 236.4 1044.7 236.9C1036.4 242.3 1027.2 246.1 1018 249.7C1018.3 250.4 1018.6 251.1 1018.9 251.8C1022.4 250.2 1025.9 248.6 1029.3 247.1C1030.5 246.6 1029.6 244.6 1028.4 245C1024.4 246.4 1020.6 248.2 1016.9 250.3C1015.7 251.1 1016.9 253.1 1018.1 252.3Z" fill="#161616"/>
<path d="M1045.1 241.3C1045.1 241.2 1045 241.1 1045 241C1045 240.9 1045 241 1045 241.2C1044.9 241.3 1044.7 241.5 1044.6 241.6H1044.7C1044.4 241.6 1044.1 241.7 1043.8 241.7C1043.3 241.6 1043.3 240.7 1043.2 241.3C1043.2 241.5 1043.2 241.6 1043.3 241.8C1043.4 242.2 1043.6 242.4 1044 242.7C1044.5 243.1 1045.3 242.8 1045.5 242.3C1045.8 241.7 1045.6 241.1 1045.1 240.8C1045.1 240.8 1045 240.8 1045 240.7C1045.1 240.8 1045.3 241 1045.4 241.1C1045.5 241.4 1045.5 241.4 1045.5 241.2C1045.5 241.1 1045.5 241 1045.5 241C1045.5 240.7 1045.4 240.4 1045.3 240.2C1045 239.8 1044.6 239.5 1044.1 239.5C1042.8 239.5 1042.6 241 1043 241.9C1043.2 242.5 1043.7 242.9 1044.4 242.7C1044.9 242.5 1045.4 241.8 1045.1 241.3Z" fill="#161616"/>
<path d="M1045.3 232.2C1047.2 233 1048.8 234.3 1049.9 236.1C1050.6 237.3 1052.6 236.2 1051.8 235C1050.4 232.7 1048.4 231 1045.9 230.1C1044.5 229.5 1043.9 231.7 1045.3 232.2Z" fill="#161616"/>
<path d="M1018 256.7C1025.9 251.1 1034.6 247.2 1044 245.1C1045.4 244.8 1044.8 242.6 1043.4 242.9C1033.7 245 1024.9 249 1016.8 254.7C1015.7 255.6 1016.8 257.6 1018 256.7Z" fill="#161616"/>
<path d="M1016 254.9C1025.8 254.4 1034.9 251.4 1043 245.9C1044.2 245.1 1043.1 243.1 1041.9 244C1034.1 249.3 1025.4 252.3 1016 252.7C1014.5 252.8 1014.5 255 1016 254.9Z" fill="#161616"/>
<path d="M1025.1 252.4C1030.6 251.2 1035.7 249.1 1040.5 246.1C1041.7 245.3 1040.6 243.4 1039.4 244.2C1034.8 247.1 1029.9 249.1 1024.6 250.3C1023.1 250.5 1023.7 252.7 1025.1 252.4Z" fill="#161616"/>
<path d="M1018.2 256.3C1026.2 256.1 1033.6 253.8 1040.2 249.3C1041.4 248.5 1040.3 246.5 1039.1 247.4C1032.8 251.7 1025.8 253.9 1018.2 254.1C1016.8 254.1 1016.8 256.4 1018.2 256.3Z" fill="#161616"/>
<path d="M1018.2 256.1C1018.1 257.8 1019.7 258 1021 257.8C1024 257.4 1026.9 256.7 1029.8 256C1031.2 255.6 1030.6 253.5 1029.2 253.8C1027.7 254.2 1026.2 254.5 1024.6 254.8C1023.9 254.9 1020.5 255.1 1020.4 256C1020.6 254.7 1018.3 254.7 1018.2 256.1Z" fill="#161616"/>
<path d="M1037.3 267.8C1038.3 265 1047.3 265.6 1055.1 266.6C1055.1 265.1 1055.4 262.9 1056.3 260.5C1057 258.6 1058.1 256.7 1062.1 252.3C1066.4 247.6 1068.6 245.3 1071.4 243.6C1073.5 242.3 1077 240.6 1081.9 239.8C1083.9 240.5 1086 241.2 1088 241.8C1088.6 239.9 1089.8 236.3 1092.1 229.3C1093.6 224.6 1094.5 222.2 1096.5 221.4C1098.5 220.7 1101.2 221.4 1102.6 223.1C1104.6 225.6 1102.8 229.2 1101.7 235.3C1101.1 238.8 1101.6 238.2 1101.4 251.3C1101.2 264.7 1100.7 264.6 1100.8 270.2C1100.9 275.4 1101.6 282.8 1104 291.7C1106.2 290.7 1109.7 289.6 1113.9 289.7C1123.7 289.8 1130.6 296.2 1135.7 301.1C1145.7 310.6 1150 321.1 1152.9 328.5C1158.5 342.8 1159.2 354.7 1159.3 359.9C1159.4 368 1159.6 375.6 1155.5 384.4C1154.2 387.2 1150.6 394.7 1142.4 400.4C1139 402.8 1132.6 407.2 1124.3 406.5C1119.5 406.1 1115.2 404.1 1110.6 400.4C1095.2 387.9 1088.1 365.2 1085.9 357.3C1081.7 342.9 1077.1 322 1076.3 295.9C1074.1 295.8 1071.5 295.3 1068.7 294.2C1058.4 289.9 1054.4 279.6 1053.6 277C1051.5 277.1 1044 277 1039.3 271.8C1038.3 270.6 1036.9 269.1 1037.3 267.8Z" fill="white"/>
<path d="M1051.2 274.8C1045.9 274.4 1039.8 272.4 1038.4 266.6C1038.1 267.2 1037.7 267.8 1037.4 268.4C1045.1 266.8 1052.8 269.1 1060.5 268C1062.4 267.7 1061.6 264.8 1059.7 265.1C1052 266.2 1044.3 263.9 1036.6 265.5C1035.8 265.7 1035.4 266.6 1035.6 267.3C1037.3 274.5 1044.6 277.2 1051.3 277.7C1053.2 277.9 1053.2 274.9 1051.2 274.8Z" fill="#161616"/>
<path d="M1056.9 264.1C1055.7 257 1066.6 257.4 1070.7 258.5C1072.6 259 1073.4 256.1 1071.5 255.6C1064.8 253.8 1052.4 255.1 1054 264.8C1054.3 266.8 1057.2 266 1056.9 264.1Z" fill="#161616"/>
<path d="M1061.2 257.2C1062.1 253.7 1064 250.5 1067.4 248.9C1071.4 247.1 1075.4 248.9 1079.1 250.5C1080.8 251.3 1082.4 248.7 1080.6 247.9C1076 245.8 1071.1 243.8 1066.2 246.1C1062 248 1059.4 252 1058.3 256.4C1057.9 258.3 1060.8 259.1 1061.2 257.2Z" fill="#161616"/>
<path d="M1071.7 245.2C1071.5 245 1074.9 242.2 1075.4 241.9C1076.8 241.2 1078.4 240.8 1080 240.8C1083.9 240.8 1087.4 242.7 1090.5 244.7C1092.1 245.7 1093.6 243.2 1092 242.1C1087 238.9 1080.9 236.4 1075 238.8C1072.5 239.8 1066.5 244.3 1069.5 247.4C1070.9 248.7 1073 246.6 1071.7 245.2Z" fill="#161616"/>
<path d="M1101.4 270.5C1102.6 262 1103 253.6 1102.4 245C1102.1 240.1 1102.6 236.3 1103.8 231.5C1104.4 229 1104.9 226.4 1104.2 223.9C1103.1 220.5 1099.3 217.7 1095.7 219.5C1093.4 220.7 1092.8 223.4 1092 225.7C1090.5 230 1089.1 234.4 1087.7 238.7C1087.1 240.5 1090 241.3 1090.6 239.5C1091.4 237 1092.2 234.5 1093.1 232.1C1093.6 230.6 1094.4 225.6 1095.6 224.7C1100.6 224.1 1102.6 225.5 1101.4 229.1C1101.1 230.3 1100.8 231.4 1100.4 232.6C1099.9 234.5 1099.4 236.3 1099.2 238.2C1098.8 243 1099.7 248 1099.7 252.9C1099.7 258.6 1099.3 264.2 1098.5 269.8C1098.3 271.6 1101.2 272.4 1101.4 270.5Z" fill="#161616"/>
<path d="M1049.6 278C1054.8 278.4 1056.1 283.8 1058.5 287.4C1059.7 289.3 1061.2 291 1063 292.4C1066.5 295.2 1070.6 296.7 1075.1 297.1C1077 297.3 1077 294.3 1075.1 294.1C1067.5 293.4 1062.7 289 1059.2 282.6C1057 278.6 1054.4 275.4 1049.6 275.1C1047.6 274.9 1047.7 277.9 1049.6 278Z" fill="#161616"/>
<path d="M1074.6 295.8C1077.7 306.5 1078 317.5 1078.9 328.5C1079.7 337.8 1081.2 347.1 1083.8 356C1088.9 373.2 1097.7 389.1 1110.4 401.9C1111.8 403.3 1113.9 401.1 1112.5 399.8C1099.4 386.6 1090.5 370 1085.8 352.1C1080.8 333.3 1082.9 313.6 1077.5 295C1076.9 293.2 1074 294 1074.6 295.8Z" fill="#161616"/>
<path d="M1098.5 269.3C1100 286 1104.9 302.3 1113.1 316.9C1121.1 331.1 1133.4 343.4 1136.2 360C1136.5 361.9 1139.4 361.1 1139.1 359.2C1136.6 344.1 1126.3 332.6 1118.4 320C1108.9 304.7 1103.2 287.3 1101.5 269.4C1101.3 267.4 1098.3 267.4 1098.5 269.3Z" fill="#161616"/>
<path d="M1105.4 292.5C1120.3 287.7 1135 299.7 1142.8 311.3C1151 323.5 1154.7 338.5 1156.4 353C1158 367.2 1156.9 382.7 1147.4 394.1C1138.6 404.7 1122.3 408.9 1111.2 399.3C1109.7 398 1107.6 400.2 1109.1 401.4C1119.6 410.5 1135.1 409.2 1145.4 400.4C1158 389.7 1161.1 372.3 1159.8 356.6C1158.4 339.5 1154.1 321.2 1143.7 307.2C1135 295.6 1119.8 284.7 1104.7 289.5C1102.8 290.2 1103.5 293.1 1105.4 292.5Z" fill="#161616"/>
<path opacity="0.15" d="M1098.9 224.9C1093.6 226.9 1094 240.5 1094.4 250.3C1095.8 279.4 1096.5 294 1102.2 316.4C1110.4 348.3 1117.9 356.6 1122 360.5C1127.9 366.1 1139.2 374.2 1144 371C1151.6 365.9 1139.5 335.5 1136.5 328.1C1126.4 302.9 1124.2 294.5 1116.7 291.9C1112.2 290.4 1107.8 291 1104.7 291.9C1100.4 282.7 1099.7 275.3 1099.8 270.2C1099.9 265.9 1100.6 265.9 1100.9 259.4C1101.5 247.6 1099.4 246.9 1100.5 239.2C1101.6 231.7 1104.5 227.2 1102.4 225.4C1101.7 224.4 1100 224.5 1098.9 224.9Z" fill="#666666"/>
<path opacity="0.15" d="M1107.5 297C1114.6 303.9 1119.5 310.5 1122.8 315.7C1130.9 328.2 1134.3 339.4 1135.5 343.7C1137.2 349.8 1138 355.1 1138.5 359C1136.8 353.8 1133.6 346 1128 337.3C1123.5 330.3 1120.6 327.9 1116.8 321.6C1113.7 316.4 1109.8 308.4 1107.5 297Z" fill="#666666"/>
<path d="M631.622 619.735C633.595 628.779 635.568 637.822 637.557 646.952C626.307 649.882 615.127 652.709 603.878 655.639C602.113 646.287 600.348 636.936 598.583 627.584C609.625 624.962 620.581 622.357 631.622 619.735Z" fill="white" stroke="#161616" stroke-width="2" stroke-miterlimit="10"/>
<path d="M635.867 723.583C636.22 733.918 637.103 742.36 637.888 748.4C640.516 768.439 642.238 772.867 644.639 776.18C650.52 784.307 658.849 786.591 658.392 787.932C658.025 788.809 654.092 788.654 635.614 782.905C632.916 762.968 630.15 743.134 627.453 723.198C630.24 723.389 633.01 723.494 635.867 723.583Z" fill="white" stroke="#161616" stroke-width="2" stroke-miterlimit="10"/>
<path d="M646.05 655.751C631.5 658.587 616.965 661.509 602.414 664.344C607.768 683.78 613.02 703.144 618.373 722.58C630.859 719.148 643.447 715.786 655.933 712.354C652.73 693.499 649.441 674.66 646.05 655.751Z" fill="white" stroke="#161616" stroke-width="2" stroke-miterlimit="10"/>
<path d="M652.017 719.818C649.53 732.034 649.834 742.11 650.562 748.788C651.621 758.632 652.512 766.175 658.07 770.238C660.144 771.819 663.314 773.104 669.501 775.793C675.006 778.161 677.549 778.937 677.443 779.316C677.284 779.884 672.375 779.734 650.42 776.255C647.726 769.5 644.913 760.704 643.176 750.092C641.395 738.771 641.38 728.82 641.995 721.261C645.284 720.819 648.642 720.275 652.017 719.818Z" fill="white" stroke="#161616" stroke-width="2" stroke-miterlimit="10"/>
<path d="M657.34 788.938C654.361 787.258 651.52 785.373 648.733 783.299C645.521 780.856 640.729 777.097 637.352 781.77C637.135 781.093 636.919 780.417 636.702 779.74C643.358 781.623 649.928 783.521 656.568 785.317C657.882 785.697 657.625 787.629 656.34 787.871C650.615 789.041 645.104 779.589 639.551 782.61C638.107 783.421 636.947 781.039 638.392 780.228C640.815 778.964 642.917 779.285 645.353 780.439C648.181 781.789 652.593 785.888 655.764 785.29C655.654 786.118 655.646 787.016 655.536 787.844C648.88 785.961 642.31 784.062 635.67 782.266C634.834 782.065 634.536 780.956 635.021 780.237C636.926 777.635 640.892 776.08 644.067 776.916C646.389 777.464 648.234 779.716 650.087 781.07C652.874 783.145 655.699 784.943 658.694 786.71C660.277 787.577 658.837 789.821 657.34 788.938Z" fill="#161616"/>
<path d="M644.251 777.419C641.697 777.991 639.31 778.979 637.107 780.471C635.781 781.438 633.985 779.446 635.397 778.462C637.979 776.63 640.676 775.403 643.745 774.735C645.389 774.514 645.879 777.112 644.251 777.419Z" fill="#161616"/>
<path d="M657.732 771.736C655.859 772.628 654.342 773.99 653.265 775.808C652.38 777.23 650.237 775.751 651.122 774.329C652.493 772.187 654.39 770.484 656.675 769.425C658.033 768.631 659.193 771.012 657.732 771.736Z" fill="#161616"/>
<path d="M673.591 779.594C670.559 778.104 667.474 776.803 664.319 775.605C662.887 775.068 661.32 774.288 659.867 774.114C657.578 773.738 656.39 774.501 654.583 775.738C654.436 774.959 654.305 774.266 654.158 773.487C657.129 774.182 660.197 773.513 663.254 774.192C666.208 774.8 669.302 777.086 672.227 777.072C672.032 777.916 671.836 778.76 671.64 779.604C666.111 778.047 660.374 778.681 654.844 777.124C653.24 776.619 654.117 774.212 655.705 774.63C661.234 776.187 666.971 775.553 672.501 777.11C674.003 777.544 673.334 779.643 671.914 779.642C668.731 779.704 665.707 777.316 662.581 776.74C659.455 776.164 656.268 776.676 653.212 775.997C652.289 775.812 651.995 774.254 652.787 773.746C655.765 771.659 657.059 770.518 660.642 771.636C665.351 773.079 669.885 775.003 674.28 777.133C676.002 777.794 675.142 780.288 673.591 779.594Z" fill="#161616"/>
<path d="M649.804 733.956C647.515 733.581 645.389 734.071 643.614 735.482C642.305 736.537 640.594 734.528 641.904 733.474C644.213 731.603 647.078 730.794 650.016 731.315C651.673 731.63 651.461 734.271 649.804 733.956Z" fill="#161616"/>
<path d="M649.296 743.019C647.464 743.185 645.831 743.941 644.689 745.412C643.6 746.694 641.457 745.215 642.547 743.934C644.138 742.019 646.288 740.717 648.806 740.421C650.45 740.2 650.94 742.798 649.296 743.019Z" fill="#161616"/>
<path d="M650.396 754.02C648.735 754.154 647.307 755.052 646.626 756.615C646.03 758.162 643.557 757.284 644.153 755.736C645.03 753.329 647.269 751.561 649.82 751.439C650.522 751.396 651.203 751.716 651.35 752.495C651.55 753.085 651.097 753.978 650.396 754.02Z" fill="#161616"/>
<path d="M635.551 736.017C633.845 735.443 631.891 735.901 630.663 737.388C629.573 738.67 627.431 737.191 628.52 735.909C630.474 733.568 633.477 732.553 636.411 733.524C638.032 734.115 637.171 736.608 635.551 736.017Z" fill="#161616"/>
<path d="M637.182 752.658C635.697 752.31 634.204 752.861 633.286 754.111C632.299 755.463 630.07 754 631.143 752.632C632.771 750.441 635.431 749.491 638.145 750.234C639.716 750.566 638.77 753.076 637.182 752.658Z" fill="#161616"/>
<path d="M639.454 766.577C637.92 765.97 636.206 766.293 635.117 767.575C634.028 768.856 631.885 767.377 632.974 766.096C634.773 763.873 637.723 763.048 640.331 764.17C641.866 764.777 641.005 767.271 639.454 766.577Z" fill="#161616"/>
<path d="M600.342 664.646C605.814 684.238 611.286 703.83 616.757 723.423" stroke="#161616" stroke-width="6" stroke-miterlimit="10"/>
<path d="M656.337 713.084C642.223 716.824 628.093 720.477 613.979 724.216" stroke="#161616" stroke-width="6" stroke-miterlimit="10"/>
<path d="M595.609 627.338C597.814 637.145 600.089 646.849 602.295 656.655" stroke="#161616" stroke-width="6" stroke-miterlimit="10"/>
<path d="M602.976 676.255C594.729 676.286 587.439 684.208 588.408 692.634C589.511 703.187 601.594 702.79 609.093 700.209C610.673 699.642 611.832 702.023 610.253 702.59C601.089 705.755 587.3 705.577 585.837 693.119C584.611 682.859 593.247 673.607 603.188 673.614C604.865 673.567 604.653 676.207 602.976 676.255Z" fill="#161616"/>
<path d="M610.302 704.733C607.091 706.057 604.892 708.982 604.571 712.451C604.453 714.177 601.837 713.953 601.955 712.227C602.285 707.86 605.005 703.939 609.057 702.368C610.722 701.785 611.865 704.08 610.302 704.733Z" fill="#161616"/>
<path d="M611.424 703.625C609.939 707.044 609.634 710.598 610.68 714.257C611.076 715.886 608.505 716.371 608.109 714.742C607.084 710.721 607.36 706.544 609.037 702.73C609.632 701.183 612.105 702.062 611.424 703.625Z" fill="#161616"/>
<path d="M648.162 666.472C653.131 661.768 665.477 670.289 667.726 675.155C672.258 685.061 658.833 686.339 654.002 690.838C652.795 691.962 651.085 689.953 652.292 688.829C655.76 685.574 661.767 685.427 664.606 681.663C668.086 677.06 663.364 673.199 659.944 671.064C658.14 669.97 652.047 666.367 649.856 668.395C648.681 669.692 646.885 667.7 648.162 666.472Z" fill="#161616"/>
<path d="M653.945 689.593C656.336 690.038 658.638 690.949 660.695 692.444C662.241 693.587 664.278 695.444 663.352 697.592C662.671 699.155 660.198 698.277 660.879 696.714C661.316 695.734 658.728 694.25 658.03 693.844C656.72 693.015 655.288 692.478 653.733 692.233C652.076 691.918 652.202 689.294 653.945 689.593Z" fill="#161616"/>
<path d="M655.316 691.217C657.435 693.508 658.504 696.355 658.46 699.412C658.428 701.122 655.812 700.898 655.844 699.188C655.917 696.753 654.995 694.686 653.334 692.937C652.13 691.729 654.112 690.01 655.316 691.217Z" fill="#161616"/>
<path d="M642.111 665.91C643.732 672.151 644.855 678.575 645.62 684.976C645.759 686.654 643.188 687.139 643.049 685.462C642.37 679.043 641.161 672.636 639.54 666.396C639.058 664.783 641.629 664.298 642.111 665.91Z" fill="#161616"/>
<path d="M640.356 666.959C631.371 669.192 622.439 671.237 613.389 673.124C613.736 672.61 614.083 672.096 614.429 671.582C615.912 678.028 617.411 684.561 618.979 690.99C619.375 692.619 616.804 693.104 616.408 691.475C614.926 685.029 613.427 678.497 611.859 672.068C611.728 671.375 612.213 670.655 612.899 670.526C621.949 668.639 630.881 666.595 639.866 664.361C641.478 663.967 641.968 666.565 640.356 666.959Z" fill="#161616"/>
<path d="M645.061 686.248C641.486 687.998 637.239 688.531 633.517 689.502C628.939 690.635 624.292 691.871 619.714 693.004C618.102 693.397 617.612 690.8 619.223 690.406C623.287 689.37 627.351 688.334 631.415 687.298C635.48 686.262 640.156 685.649 643.987 683.85C645.362 683.142 646.521 685.524 645.061 686.248Z" fill="#161616"/>
<path d="M644.68 700.219C643.775 703.887 639.878 701.573 637.536 703.271C636.434 704.017 636.838 704.747 635.227 705.141C633.358 705.584 628.012 702.647 627.739 706.375C627.662 707.376 626.511 707.862 625.711 707.385C624.805 707.287 623.814 707.205 622.924 707.194C622.141 708.687 619.896 707.137 620.781 705.715C622.311 703.005 625.041 703.835 627.253 705.211C626.6 705.514 625.862 705.832 625.225 706.222C625.425 703.045 628.219 700.455 631.48 701.275C633.067 701.693 633.484 702.959 635.548 701.673C635.944 701.419 635.985 700.694 636.38 700.44C637.258 699.916 642.326 699.497 642.309 699.411C642.599 697.652 645.072 698.531 644.68 700.219Z" fill="#161616"/>
<path d="M627.279 632.93C626.928 632.009 625.765 631.96 625.059 632.452C624.027 633.095 623.672 634.507 623.338 635.556C622.93 637.158 620.457 636.279 620.865 634.678C621.448 632.595 622.529 630.329 624.793 629.632C626.646 629.103 628.829 629.857 629.531 631.698C630.286 633.348 627.932 634.51 627.279 632.93Z" fill="#161616"/>
<path d="M611.741 637.117C611.406 636.284 610.537 635.909 609.746 636.418C608.783 636.958 608.599 638.338 608.608 639.322C608.661 641.016 606.045 640.792 605.992 639.099C605.943 636.956 606.905 634.532 609.068 633.766C610.99 633.134 613.361 633.942 614.095 635.955C614.663 637.552 612.309 638.714 611.741 637.117Z" fill="#161616"/>
<path d="M627.023 638.627C625.09 644.372 618.297 646.462 613.644 642.497C612.371 641.392 613.827 639.234 615.1 640.339C618.479 643.199 623.143 642.05 624.55 637.749C625.044 636.131 627.517 637.01 627.023 638.627Z" fill="#161616"/>
</svg>
