<svg width="1600" height="1200" viewBox="0 0 1600 1200" fill="none" xmlns="http://www.w3.org/2000/svg">
<path d="M494.2 982.2C408.9 982.2 323.6 982.2 238.3 982.2C236.4 982.2 236.4 985.2 238.3 985.2C323.6 985.2 408.9 985.2 494.2 985.2C496.1 985.2 496.1 982.2 494.2 982.2Z" fill="#161616"/>
<path d="M799.8 967.2C871 967.2 942.1 967.2 1013.3 967.2C1033.5 967.2 1053.7 967.2 1073.9 967.2C1075.8 967.2 1075.8 964.2 1073.9 964.2C1002.7 964.2 931.6 964.2 860.4 964.2C840.2 964.2 820 964.2 799.8 964.2C797.9 964.2 797.9 967.2 799.8 967.2Z" fill="#161616"/>
<path d="M1090.4 967.2C1145.1 967.2 1199.8 967.2 1254.5 967.2C1256.4 967.2 1256.4 964.2 1254.5 964.2C1199.8 964.2 1145.1 964.2 1090.4 964.2C1088.5 964.2 1088.5 967.2 1090.4 967.2Z" fill="#161616"/>
<path d="M1278.6 967.2C1288.1 967.2 1297.7 967.2 1307.2 967.2C1309.1 967.2 1309.1 964.2 1307.2 964.2C1297.7 964.2 1288.1 964.2 1278.6 964.2C1276.7 964.2 1276.6 967.2 1278.6 967.2Z" fill="#161616"/>
<path d="M1143.9 963.8C1143.9 930.2 1143.9 896.5 1143.9 862.9C1143.9 861 1140.9 861 1140.9 862.9C1140.9 896.5 1140.9 930.2 1140.9 963.8C1140.9 965.7 1143.9 965.7 1143.9 963.8Z" fill="#E8E8E8"/>
<path d="M1143 864.4C1203.3 864.4 1263.7 864.4 1324 864.4C1325.9 864.4 1325.9 861.4 1324 861.4C1263.7 861.4 1203.3 861.4 1143 861.4C1141.1 861.4 1141.1 864.4 1143 864.4Z" fill="#E8E8E8"/>
<path d="M1323.1 865.4C1323.1 897.4 1323.1 929.4 1323.1 961.4C1323.1 963.3 1326.1 963.3 1326.1 961.4C1326.1 929.4 1326.1 897.4 1326.1 865.4C1326.1 863.4 1323.1 863.4 1323.1 865.4Z" fill="#E8E8E8"/>
<path d="M1159.8 874.5C1159.8 898.5 1159.8 922.6 1159.8 946.6C1159.8 948.5 1162.8 948.5 1162.8 946.6C1162.8 922.6 1162.8 898.5 1162.8 874.5C1162.8 872.6 1159.8 872.6 1159.8 874.5Z" fill="#E8E8E8"/>
<path d="M1183.1 875.1C1183.1 896.9 1183.1 918.7 1183.1 940.5C1183.1 942.4 1186.1 942.4 1186.1 940.5C1186.1 918.7 1186.1 896.9 1186.1 875.1C1186.1 873.2 1183.1 873.2 1183.1 875.1Z" fill="#E8E8E8"/>
<path d="M1208.8 873.3C1208.8 894.9 1208.8 916.5 1208.8 938.1C1208.8 940 1211.8 940 1211.8 938.1C1211.8 916.5 1211.8 894.9 1211.8 873.3C1211.8 871.4 1208.8 871.4 1208.8 873.3Z" fill="#E8E8E8"/>
<path d="M1235.1 877.6C1235.1 899.6 1235.1 921.6 1235.1 943.6C1235.1 945.5 1238.1 945.5 1238.1 943.6C1238.1 921.6 1238.1 899.6 1238.1 877.6C1238.1 875.7 1235.1 875.6 1235.1 877.6Z" fill="#E8E8E8"/>
<path d="M1260.7 878.8C1260.7 901.4 1260.7 924 1260.7 946.7C1260.7 948.6 1263.7 948.6 1263.7 946.7C1263.7 924.1 1263.7 901.5 1263.7 878.8C1263.7 876.9 1260.7 876.9 1260.7 878.8Z" fill="#E8E8E8"/>
<path d="M1292.5 879.4C1292.5 900.8 1292.5 922.2 1292.5 943.6C1292.5 945.5 1295.5 945.5 1295.5 943.6C1295.5 922.2 1295.5 900.8 1295.5 879.4C1295.5 877.5 1292.5 877.5 1292.5 879.4Z" fill="#E8E8E8"/>
<path d="M1313.9 882.5C1313.9 901.7 1313.9 920.8 1313.9 940C1313.9 941.9 1316.9 941.9 1316.9 940C1316.9 920.8 1316.9 901.7 1316.9 882.5C1316.9 880.5 1313.9 880.5 1313.9 882.5Z" fill="#E8E8E8"/>
<path d="M1075.5 379.2C1152.6 379.2 1229.8 379.2 1306.9 379.2C1328.8 379.2 1350.8 379.2 1372.7 379.2C1374.6 379.2 1374.6 376.2 1372.7 376.2C1295.6 376.2 1218.4 376.2 1141.3 376.2C1119.4 376.2 1097.4 376.2 1075.5 376.2C1073.5 376.2 1073.5 379.2 1075.5 379.2Z" fill="#E8E8E8"/>
<path d="M1077 376.8C1077 370.2 1077 363.7 1077 357.1C1077 355.2 1074 355.2 1074 357.1C1074 363.7 1074 370.2 1074 376.8C1074 378.8 1077 378.8 1077 376.8Z" fill="#E8E8E8"/>
<path d="M1075.5 359.5C1151.8 359.5 1228.1 359.5 1304.3 359.5C1326.2 359.5 1348.1 359.5 1370 359.5C1371.9 359.5 1371.9 356.5 1370 356.5C1293.7 356.5 1217.4 356.5 1141.2 356.5C1119.3 356.5 1097.4 356.5 1075.5 356.5C1073.5 356.5 1073.5 359.5 1075.5 359.5Z" fill="#E8E8E8"/>
<path d="M1369.4 358.9C1369.4 365.5 1369.4 372 1369.4 378.6C1369.4 380.5 1372.4 380.5 1372.4 378.6C1372.4 372 1372.4 365.5 1372.4 358.9C1372.4 357 1369.4 357 1369.4 358.9Z" fill="#E8E8E8"/>
<path d="M1106.8 280.8C1107.7 287.6 1108.7 294.6 1107.7 301.5C1106.8 308.1 1103.9 314 1101.4 320.1C1096.6 331.6 1094.1 343.6 1094.2 356C1094.2 357.9 1097.2 357.9 1097.2 356C1097.2 341.8 1100.8 329.2 1106.3 316.3C1108.3 311.6 1110.1 306.8 1110.8 301.7C1111.7 294.7 1110.8 287.8 1109.9 280.8C1109.5 278.9 1106.5 278.9 1106.8 280.8Z" fill="#E8E8E8"/>
<path d="M1109.2 282.1C1112.5 280.5 1116.2 279.9 1119.9 280.7C1122 281.2 1122.4 282.4 1123 284.2C1123.3 285.1 1123.4 285.5 1124 286.3C1125.2 287.8 1127.3 285.7 1126.1 284.2C1125.3 283.2 1126.1 281.2 1125 280C1123.9 278.6 1121.7 278.1 1120.1 277.8C1115.8 277 1111.5 277.7 1107.6 279.6C1105.9 280.3 1107.4 282.9 1109.2 282.1Z" fill="#E8E8E8"/>
<path d="M1123.1 283C1122.2 295.1 1125.3 305.8 1130.9 316.4C1137.6 329.1 1138.7 342.3 1139.1 356.5C1139.2 358.4 1142.2 358.4 1142.1 356.5C1141.7 344.4 1141.3 331.9 1136.3 320.7C1133.7 314.8 1130.2 309.5 1128.3 303.3C1126.2 296.7 1125.6 289.9 1126.1 283C1126.3 281.1 1123.2 281.1 1123.1 283Z" fill="#E8E8E8"/>
<path d="M1170.5 355.6C1171.9 352.9 1170.6 350 1172.4 347.7C1175.2 344.3 1184.1 344.4 1188.1 344C1197 343.1 1205.8 343.2 1214.7 343.9C1223.6 344.6 1232.5 345.8 1241.5 346.2C1245.9 346.4 1250.3 346.3 1254.7 346.2C1259.1 346.1 1271.2 347.5 1266.6 355C1265.6 356.6 1268.2 358.2 1269.2 356.5C1273.3 349.9 1266.5 344 1260.2 343.2C1254.7 342.5 1249 343.4 1243.4 343.2C1236.7 343 1230 342.3 1223.3 341.6C1210.6 340.4 1198 339.7 1185.3 341.2C1180.9 341.7 1174.3 341.7 1170.5 344.2C1166.7 346.7 1169.6 350.5 1167.9 353.9C1167 355.8 1169.6 357.4 1170.5 355.6Z" fill="#E8E8E8"/>
<path d="M1207.1 340.9C1208 338.7 1207.5 336.5 1208.2 334.3C1210 328.7 1217.1 330.4 1221.4 330.4C1229.4 330.4 1237.3 330.4 1245.3 330.5C1261.2 330.5 1277.1 330.6 1293.1 330.6C1292.6 330.2 1292.1 329.9 1291.7 329.5C1292.8 334.6 1293.7 339.7 1294.4 344.9C1294.6 346.8 1297.6 346.8 1297.4 344.9C1296.7 339.4 1295.8 334 1294.6 328.7C1294.5 328.1 1293.8 327.6 1293.2 327.6C1274 327.5 1254.7 327.5 1235.5 327.4C1230.9 327.4 1226.2 327.4 1221.6 327.4C1218.1 327.4 1214.1 326.8 1210.6 327.6C1204.1 329.1 1206.4 335.4 1204.5 340.1C1203.5 341.9 1206.4 342.7 1207.1 340.9Z" fill="#E8E8E8"/>
<path d="M1268.2 348.6C1276.9 349.1 1285.6 348.9 1294.2 347.9C1296.1 347.7 1296.1 344.7 1294.2 344.9C1285.5 345.9 1276.9 346.1 1268.2 345.6C1266.3 345.4 1266.3 348.4 1268.2 348.6Z" fill="#E8E8E8"/>
<path d="M1267.9 329.3C1269.9 334.5 1270.8 339.9 1270.6 345.5C1270.5 347.4 1273.5 347.4 1273.6 345.5C1273.8 339.6 1272.8 334 1270.8 328.5C1270.1 326.7 1267.2 327.5 1267.9 329.3Z" fill="#E8E8E8"/>
<path d="M1332.3 265.4C1332.3 273.7 1332.3 282.1 1332.3 290.4C1332.3 298.3 1332.9 306.6 1331.4 314.4C1330 321.9 1326 328 1322 334.3C1317.7 341.3 1313.8 348.5 1310.2 355.9C1309.4 357.6 1312 359.2 1312.8 357.4C1316.6 349.5 1320.8 341.8 1325.5 334.3C1329.3 328.3 1332.9 322.3 1334.2 315.2C1335.5 308 1335.2 300.6 1335.2 293.4C1335.2 284.1 1335.2 274.7 1335.2 265.4C1335.3 263.5 1332.3 263.5 1332.3 265.4Z" fill="#E8E8E8"/>
<path d="M1334.8 267.3C1339.7 264.6 1345.2 264.7 1350 267.5C1351.7 268.5 1353.2 265.9 1351.5 264.9C1345.8 261.5 1339 261.4 1333.3 264.7C1331.6 265.6 1333.1 268.2 1334.8 267.3Z" fill="#E8E8E8"/>
<path d="M1347.6 266.4C1347.6 275.6 1347.5 284.9 1347.5 294.1C1347.5 301.5 1346.8 309.3 1347.8 316.7C1348.8 323.7 1352.6 328.9 1356.7 334.4C1361.8 341.1 1365.4 348.1 1367.2 356.4C1367.6 358.3 1370.5 357.5 1370.1 355.6C1368.7 348.9 1366.1 342.6 1362.3 336.9C1358.1 330.6 1352.4 325.3 1351 317.5C1349.5 309.3 1350.5 300.3 1350.5 292.1C1350.5 283.5 1350.6 274.9 1350.6 266.3C1350.6 264.5 1347.6 264.5 1347.6 266.4Z" fill="#E8E8E8"/>
<path d="M1189.3 411.2C1189.3 448.8 1189.3 486.5 1189.3 524.1C1189.3 526 1192.3 526 1192.3 524.1C1192.3 486.5 1192.3 448.8 1192.3 411.2C1192.3 409.2 1189.3 409.2 1189.3 411.2Z" fill="#E8E8E8"/>
<path d="M1193 411.5C1245.1 411.5 1297.2 411.5 1349.3 411.5C1351.2 411.5 1351.2 408.5 1349.3 408.5C1297.2 408.5 1245.1 408.5 1193 408.5C1191.1 408.5 1191.1 411.5 1193 411.5Z" fill="#E8E8E8"/>
<path d="M1191.2 525.4C1241 525.4 1290.8 525.4 1340.7 525.4C1342.6 525.4 1342.6 522.4 1340.7 522.4C1290.9 522.4 1241.1 522.4 1191.2 522.4C1189.2 522.4 1189.2 525.4 1191.2 525.4Z" fill="#E8E8E8"/>
<path d="M1346 412.1C1346 449.4 1346 486.6 1346 523.9C1346 525.8 1349 525.8 1349 523.9C1349 486.6 1349 449.4 1349 412.1C1349 410.2 1346 410.2 1346 412.1Z" fill="#E8E8E8"/>
<path d="M1339.8 525.9C1341.8 525.9 1343.9 525.9 1345.9 525.9C1347.8 525.9 1347.8 522.9 1345.9 522.9C1343.9 522.9 1341.8 522.9 1339.8 522.9C1337.9 522.9 1337.9 525.9 1339.8 525.9Z" fill="#E8E8E8"/>
<path d="M1203 445.2C1246.4 445.3 1289.9 445.4 1333.3 445.5C1335.2 445.5 1335.2 442.5 1333.3 442.5C1289.9 442.4 1246.4 442.3 1203 442.2C1201.1 442.2 1201.1 445.2 1203 445.2Z" fill="#E8E8E8"/>
<path d="M1207.1 474.5C1249.1 474.4 1291 474.3 1333 474.2C1334.9 474.2 1334.9 471.2 1333 471.2C1291 471.3 1249.1 471.4 1207.1 471.5C1205.2 471.5 1205.2 474.5 1207.1 474.5Z" fill="#E8E8E8"/>
<path d="M1209.5 503.7C1251.2 503.7 1292.9 503.7 1334.6 503.7C1336.5 503.7 1336.5 500.7 1334.6 500.7C1292.9 500.7 1251.2 500.7 1209.5 500.7C1207.6 500.7 1207.6 503.7 1209.5 503.7Z" fill="#E8E8E8"/>
<path d="M1229.6 444.1C1229.6 463.6 1229.6 483.1 1229.6 502.6C1229.6 504.5 1232.6 504.5 1232.6 502.6C1232.6 483.1 1232.6 463.6 1232.6 444.1C1232.6 442.2 1229.6 442.2 1229.6 444.1Z" fill="#E8E8E8"/>
<path d="M1264.9 445C1264.9 463.5 1264.9 482.1 1264.9 500.6C1264.9 502.5 1267.9 502.5 1267.9 500.6C1267.9 482.1 1267.9 463.5 1267.9 445C1267.9 443 1264.9 443 1264.9 445Z" fill="#E8E8E8"/>
<path d="M1299.8 443.7C1299.8 462.5 1299.8 481.3 1299.8 500.2C1299.8 502.1 1302.8 502.1 1302.8 500.2C1302.8 481.4 1302.8 462.6 1302.8 443.7C1302.8 441.8 1299.8 441.8 1299.8 443.7Z" fill="#E8E8E8"/>
<path d="M1331.5 444.6C1331.5 463.4 1331.5 482.2 1331.5 501.1C1331.5 503 1334.5 503 1334.5 501.1C1334.5 482.3 1334.5 463.5 1334.5 444.6C1334.5 442.6 1331.5 442.6 1331.5 444.6Z" fill="#E8E8E8"/>
<path d="M1214.4 479C1210.5 482.2 1206.4 487.3 1209.2 492.6C1210.2 494.5 1211.9 496 1214.1 496.3C1216.9 496.7 1219.1 494.8 1221 493C1222.4 491.7 1220.3 489.5 1218.9 490.9C1217.4 492.3 1215.7 494 1213.6 493C1212.1 492.3 1211.3 490.5 1211.3 488.9C1211.3 485.7 1214.2 483.1 1216.5 481.2C1218 479.9 1215.9 477.8 1214.4 479Z" fill="#E8E8E8"/>
<path d="M1248.6 490.9C1244.9 489.2 1244.1 484 1248.2 482.1C1250.7 481 1251.6 484 1251.9 485.9C1252.2 487.5 1251.4 491.6 1248.8 489.9C1247.2 488.9 1245.7 491.5 1247.3 492.5C1250.1 494.3 1253.6 492.4 1254.7 489.5C1255.5 487.2 1254.8 484.8 1254 482.6C1253.4 480.9 1252.7 479.4 1250.9 478.8C1247.4 477.8 1243.7 480.9 1242.7 484.1C1241.5 487.8 1243.6 491.8 1247 493.4C1248.8 494.3 1250.3 491.7 1248.6 490.9Z" fill="#E8E8E8"/>
<path d="M1221.1 478.7C1220.9 478.4 1220.9 478 1221.3 477.9C1221 477.7 1220.7 477.6 1220.4 477.4C1220.8 478.5 1220.1 479.7 1220.1 480.9C1220.1 481.7 1220.5 482.5 1221.2 483C1222.7 484.1 1224.7 483.5 1225.5 481.9C1225.9 481 1224.6 480.3 1224.2 481.1C1223.4 482.7 1221.4 482 1221.6 480.3C1221.7 479.2 1222.2 478.2 1221.8 477C1221.7 476.6 1221.3 476.3 1220.9 476.5C1219.7 476.9 1219 478.4 1219.8 479.5C1220.3 480.3 1221.6 479.5 1221.1 478.7Z" fill="#E8E8E8"/>
<path d="M1256 478.1C1257 477.9 1257.9 477.6 1258.9 477.4C1259.8 477.2 1259.4 475.7 1258.5 476C1257.5 476.2 1256.6 476.5 1255.6 476.7C1254.7 476.9 1255.1 478.4 1256 478.1Z" fill="#E8E8E8"/>
<path d="M1255.5 478.1C1255.7 478.6 1255.8 479.2 1256 479.7C1256.1 480 1256.4 480.3 1256.7 480.3C1257.2 480.2 1257.9 480.1 1258.3 480.3C1258.5 480.4 1258.7 480.6 1258.7 480.8C1258.7 481 1258.5 480.8 1258.6 480.9C1258 480.2 1256.9 481.2 1257.5 482C1258.4 483 1260.2 482.2 1260.2 480.9C1260.2 479 1258.1 478.7 1256.7 478.9C1256.9 479.1 1257.2 479.3 1257.4 479.5C1257.2 479 1257.1 478.4 1256.9 477.9C1256.7 476.7 1255.3 477.1 1255.5 478.1Z" fill="#E8E8E8"/>
<path d="M1241.7 451.1C1242.1 455.2 1242.1 459.2 1241.6 463.3C1241.5 464.3 1243 464.3 1243.1 463.3C1243.5 459.2 1243.6 455.2 1243.2 451.1C1243.1 450.1 1241.6 450.1 1241.7 451.1Z" fill="#E8E8E8"/>
<path d="M1243.2 458.1C1246.2 457.8 1248.2 455.2 1247.6 452.2C1247.4 451.3 1246.2 451.6 1246.1 452.4C1245.7 456.1 1245.6 459.9 1245.8 463.6C1245.8 464.6 1247.3 464.6 1247.3 463.6C1247.1 459.8 1247.2 456.1 1247.6 452.4C1247.1 452.5 1246.6 452.5 1246.1 452.6C1246.5 454.6 1245.1 456.4 1243.1 456.6C1242.3 456.7 1242.3 458.2 1243.2 458.1Z" fill="#E8E8E8"/>
<path d="M1251.7 450C1251.8 449.8 1251.8 449.7 1251.9 449.5C1251.7 449.6 1251.4 449.6 1251.2 449.7C1251.8 449.9 1251.9 450.9 1251.4 451.3C1250.9 451.6 1250.9 452.5 1251.6 452.7C1252.2 452.8 1252.7 452.9 1253.3 453C1253.2 452.6 1253 452.3 1252.9 451.9C1252.5 452.6 1252 453.2 1251.3 453.5C1250.4 453.9 1250.8 455.3 1251.7 454.9C1252.8 454.4 1253.7 453.7 1254.2 452.6C1254.4 452.2 1254.3 451.6 1253.8 451.5C1253.2 451.4 1252.7 451.3 1252.1 451.2C1252.2 451.7 1252.2 452.1 1252.3 452.6C1254 451.5 1253.6 448.9 1251.7 448.3C1251.5 448.2 1251.2 448.3 1251 448.5C1250.4 449.1 1250.3 449.7 1250.4 450.4C1250.4 451.4 1251.8 451 1251.7 450Z" fill="#E8E8E8"/>
<path d="M1285.3 452.7C1280.7 449.5 1273.9 457.1 1276.4 461.6C1277.5 463.6 1280.1 464.6 1282.2 463.6C1284.2 462.7 1285 459.9 1282.7 458.8C1282.6 459.3 1282.6 459.7 1282.5 460.2C1283.6 460 1284.7 459.8 1285.8 459.6C1286.7 459.4 1286.3 458 1285.4 458.2C1284.3 458.4 1283.2 458.6 1282.1 458.8C1281.5 458.9 1281.3 459.9 1281.9 460.2C1282.4 461.6 1282.1 462.4 1281.1 462.5C1280.7 462.7 1280.2 462.7 1279.8 462.6C1279.3 462.5 1278.7 462.2 1278.4 461.9C1277 460.6 1277.3 458.6 1278.2 457.2C1279.4 455.2 1282.2 452.6 1284.6 454.2C1285.3 454.5 1286.1 453.2 1285.3 452.7Z" fill="#E8E8E8"/>
<path d="M1289.6 452.7C1289.8 454.2 1290 455.8 1290.2 457.3C1290.3 458.1 1290.5 458.9 1290.5 459.6C1290.5 460.1 1290.4 460.5 1290.4 461C1290.1 462.4 1289.2 462.5 1288 461.5C1288.1 460.6 1286.7 460.1 1286.6 461.1C1286.3 463.4 1288.7 464.9 1290.6 463.5C1291.7 462.7 1292.1 461.4 1292.2 460.1C1292.3 457.7 1291.7 455.1 1291.4 452.7C1291 451.7 1289.5 451.7 1289.6 452.7Z" fill="#E8E8E8"/>
<path d="M1287.8 451.7C1289.5 452.1 1291.1 452.3 1292.9 452.2C1293.9 452.1 1293.9 450.6 1292.9 450.7C1291.3 450.8 1289.8 450.7 1288.2 450.3C1287.2 450 1286.8 451.5 1287.8 451.7Z" fill="#E8E8E8"/>
<path d="M1272.9 481.7C1273.3 484.9 1273.3 488 1272.9 491.2C1272.8 492.2 1274.3 492.1 1274.4 491.2C1274.8 487.9 1274.8 484.6 1274.3 481.3C1274.2 480.4 1272.8 480.8 1272.9 481.7Z" fill="#E8E8E8"/>
<path d="M1274 488.6C1277.7 489.8 1278.8 485.5 1278.8 482.8C1278.8 481.8 1277.4 481.9 1277.3 482.8C1277 486.1 1276.8 489.5 1276.7 492.9C1276.7 493.9 1278.2 493.9 1278.2 492.9C1278.3 489.5 1278.5 486.2 1278.8 482.8C1278.3 482.8 1277.8 482.8 1277.3 482.8C1277.3 484.5 1277.1 488 1274.4 487.2C1273.4 486.9 1273 488.4 1274 488.6Z" fill="#E8E8E8"/>
<path d="M1279.8 490.3C1279.9 491.3 1280 492.3 1279.9 493.2C1279.9 493.6 1280.3 493.9 1280.7 494C1281.2 494 1281.8 494.1 1282.3 494.1C1283.3 494.1 1283.3 492.6 1282.3 492.6C1281.8 492.6 1281.2 492.5 1280.7 492.5C1281 492.8 1281.2 493 1281.5 493.3C1281.5 492.3 1281.5 491.3 1281.4 490.4C1281.3 490 1281.1 489.7 1280.6 489.6C1280.1 489.6 1279.7 489.9 1279.8 490.3Z" fill="#E8E8E8"/>
<path d="M1288.7 492C1287.7 490.6 1287.2 489 1287.1 487.2C1287.1 486.1 1287.2 483.4 1288.2 482.6C1290.3 480.8 1291.2 485.9 1291.3 487.1C1291.4 488 1291.4 489 1291.2 489.9C1291.1 490.6 1290.1 493.9 1288.5 491.8C1287.9 491 1286.9 492.1 1287.4 492.9C1289 494.9 1291.5 493.5 1292.3 491.6C1293.4 488.7 1293 484.2 1291.2 481.7C1289.4 479.2 1287.3 480.7 1286.4 483C1285.1 486.2 1285.6 489.9 1287.5 492.7C1287.9 493.6 1289.2 492.8 1288.7 492Z" fill="#E8E8E8"/>
<path d="M1314.9 454.2C1313.3 452.9 1311.2 452.9 1309.5 454C1307.4 455.4 1306.8 458.1 1306.6 460.4C1306.5 462.6 1307.1 464.8 1309.6 465.1C1312.1 465.4 1313.8 463.4 1315.2 461.5C1315.8 460.7 1314.5 460 1313.9 460.7C1313 461.9 1311.9 463.4 1310.2 463.5C1308 463.6 1308 461.2 1308.1 459.7C1308.3 457.3 1310.6 452.6 1313.7 455.1C1314.5 455.9 1315.6 454.8 1314.9 454.2Z" fill="#E8E8E8"/>
<path d="M1319.9 461.6C1319.3 460.8 1318.8 459.9 1318.6 458.9C1318.4 458.1 1318.1 456.3 1318.6 455.6C1319.1 455.4 1319.6 455.1 1320.1 454.9C1320.5 455.2 1320.8 455.7 1321 456.2C1321.2 456.6 1321.3 457.1 1321.4 457.5C1321.5 458.1 1321.7 458.7 1321.6 459.3C1321.5 460 1320.7 461.5 1319.7 460.5C1319 459.8 1318 460.9 1318.6 461.6C1319.9 462.9 1322 462.3 1322.8 460.7C1323.7 458.8 1322.8 455.5 1321.4 454.1C1319.8 452.6 1317.8 453.4 1317.2 455.4C1316.5 457.9 1317.2 460.5 1318.7 462.5C1319.2 463.1 1320.5 462.4 1319.9 461.6Z" fill="#E8E8E8"/>
<path d="M1322.7 450.8C1322.7 450.9 1322.7 450.9 1322.7 450.8C1322.8 450.8 1323 450.7 1323.2 450.7C1323 450.7 1323.2 452.1 1323.3 452.4C1323.4 452.6 1323.5 452.8 1323.6 453C1323.9 453.4 1324.3 453.6 1324.8 453.7C1325.7 453.9 1326.7 453.5 1327.1 452.6C1327.5 451.7 1326.2 451 1325.8 451.8C1325.6 452.3 1324.9 452.3 1324.7 451.8C1324.4 451 1324.4 450.2 1323.3 450C1322.5 449.9 1321.9 450.6 1322.1 451.3C1322.3 452 1323.2 452.3 1323.8 451.8C1324.5 451.2 1323.4 450.2 1322.7 450.8Z" fill="#E8E8E8"/>
<path d="M1208.4 451.8C1207.9 457 1207.8 462.3 1208.1 467.5C1208.1 468.5 1209.6 468.5 1209.6 467.5C1209.4 462.3 1209.5 457 1209.9 451.8C1209.9 450.8 1208.4 450.8 1208.4 451.8Z" fill="#E8E8E8"/>
<path d="M1209.7 455C1211.7 454.8 1212.7 455.4 1212.6 456.7C1212.6 457.3 1212.6 457.8 1212.4 458.4C1212.1 459.8 1211.5 461 1210 461.6C1209.4 461.8 1209.2 462.9 1210 463C1212.9 463.6 1215.3 465 1217 467.4C1217.6 468.2 1218.9 467.4 1218.3 466.6C1216.3 463.9 1213.7 462.2 1210.4 461.5C1210.4 462 1210.4 462.5 1210.4 462.9C1214 461.5 1215.7 455.3 1212.6 452.5C1210 450.2 1206 453.3 1208.6 455.9C1209.3 456.7 1210.4 455.7 1209.7 455Z" fill="#E8E8E8"/>
<path d="M1220.4 464.6C1220.3 465 1220.4 465.7 1220.5 466.2C1220.6 466.8 1220.8 467.3 1221.3 467.6C1222.2 468.3 1223.4 467.8 1224.4 467.4C1225.3 467 1224.5 465.7 1223.6 466.1C1223.3 466.3 1222.9 466.5 1222.5 466.5C1222 466.5 1222 466.1 1222 465.6C1222 464.9 1221.9 464.2 1221.5 463.6C1220.8 462.8 1219.2 463 1219 464.1C1218.8 465.1 1220.2 465.5 1220.4 464.6Z" fill="#E8E8E8"/>
<path d="M1306.6 481.8C1306.7 486.5 1306.7 491.2 1306.4 495.8C1306.3 496.6 1307.7 496.8 1307.9 496C1308 495.6 1308.1 495.2 1308.2 494.9C1308.4 494 1307 493.6 1306.8 494.5C1306.7 494.9 1306.6 495.3 1306.5 495.6C1307 495.7 1307.5 495.7 1308 495.8C1308.3 491.1 1308.4 486.4 1308.2 481.8C1308 480.8 1306.5 480.8 1306.6 481.8Z" fill="#E8E8E8"/>
<path d="M1306.6 482.3C1307.4 486.3 1308.6 490.2 1310.2 494C1310.5 494.8 1311.6 494.7 1311.7 493.8C1312.3 489.4 1312.8 485.1 1313.4 480.7C1313.5 479.7 1312 479.8 1311.9 480.7C1311.3 485.1 1310.8 489.4 1310.2 493.8C1310.7 493.7 1311.2 493.7 1311.7 493.6C1310.1 489.8 1308.9 485.9 1308.1 481.9C1307.8 480.9 1306.4 481.3 1306.6 482.3Z" fill="#E8E8E8"/>
<path d="M1316 493.5C1315.6 492.8 1315.1 491.9 1315.2 491.1C1315.3 490.7 1315.8 489.9 1316.3 490.2C1316.8 490.4 1316.7 491.9 1316.6 492.4C1316.5 492.9 1315.9 493.9 1315.3 493.2C1314.7 492.5 1313.6 493.5 1314.2 494.3C1315.1 495.3 1316.8 495 1317.6 493.9C1318.4 492.7 1318.5 490.3 1317.5 489.2C1316.6 488.2 1315 488.7 1314.3 489.6C1313.1 491 1314 492.9 1314.7 494.3C1315.2 495.1 1316.5 494.3 1316 493.5Z" fill="#E8E8E8"/>
<path d="M1320 480.7C1320.6 485.5 1320.8 490.2 1320.5 495C1320.4 496 1321.9 496 1322 495C1322.3 490.2 1322.1 485.5 1321.5 480.7C1321.3 479.8 1319.8 479.8 1320 480.7Z" fill="#E8E8E8"/>
<path d="M1321.7 483.7C1321.6 482.9 1321.5 481.8 1322.5 481.6C1323.5 481.4 1324 482.6 1324.1 483.4C1324.3 485 1323.3 486.6 1322 487.5C1321.2 488 1321.9 489.3 1322.8 488.8C1325.3 487.2 1326.9 483.4 1324.6 480.9C1323.8 480 1322.4 479.6 1321.4 480.3C1320.2 481.1 1320.2 482.7 1320.4 484C1320.4 485 1321.9 484.6 1321.7 483.7Z" fill="#E8E8E8"/>
<path d="M1325.1 477.3C1324.6 478.4 1325 479.7 1325.8 480.5C1326.6 481.2 1328.2 481.5 1328.8 480.3C1329.2 479.4 1327.9 478.7 1327.5 479.5C1327.4 479.7 1327.6 479.6 1327.5 479.6C1327.4 479.6 1327.3 479.6 1327.2 479.6C1327 479.5 1326.8 479.3 1326.7 479.1C1326.4 478.6 1326.4 478.1 1326.6 477.6C1326.8 477.2 1326.4 476.8 1326.1 476.7C1325.6 476.7 1325.3 477 1325.1 477.3Z" fill="#E8E8E8"/>
<path d="M1202 443.7C1202 463.1 1202 482.4 1202 501.8C1202 503.7 1205 503.7 1205 501.8C1205 482.4 1205 463.1 1205 443.7C1205 441.8 1202 441.8 1202 443.7Z" fill="#E8E8E8"/>
<path d="M1203.9 503.7C1247.3 503.7 1290.7 503.7 1334.1 503.7C1336 503.7 1336 500.7 1334.1 500.7C1290.7 500.7 1247.3 500.7 1203.9 500.7C1202 500.7 1202 503.7 1203.9 503.7Z" fill="#E8E8E8"/>
<path d="M245.4 749.4C245.4 775.7 245.4 801.9 245.4 828.2C245.4 830.1 248.4 830.1 248.4 828.2C248.4 801.9 248.4 775.7 248.4 749.4C248.4 747.5 245.4 747.5 245.4 749.4Z" fill="#E8E8E8"/>
<path d="M250.2 750.9C301.3 750.9 352.4 750.9 403.4 750.9C405.3 750.9 405.3 747.9 403.4 747.9C352.3 747.9 301.2 747.9 250.2 747.9C248.2 747.9 248.2 750.9 250.2 750.9Z" fill="#E8E8E8"/>
<path d="M250.2 830.8C298.8 830.8 347.3 830.8 395.9 830.8C397.8 830.8 397.8 827.8 395.9 827.8C347.3 827.8 298.8 827.8 250.2 827.8C248.2 827.8 248.2 830.8 250.2 830.8Z" fill="#E8E8E8"/>
<path d="M400.8 751.6C400.8 775.7 400.8 799.8 400.8 823.9C400.8 825.8 403.8 825.8 403.8 823.9C403.8 799.8 403.8 775.7 403.8 751.6C403.8 749.7 400.8 749.7 400.8 751.6Z" fill="#E8E8E8"/>
<path d="M316.7 708.4C316.7 716.7 316.7 724.9 316.7 733.2C316.7 735.1 319.7 735.1 319.7 733.2C319.7 724.9 319.7 716.7 319.7 708.4C319.7 706.5 316.7 706.5 316.7 708.4Z" fill="#E8E8E8"/>
<path d="M319.2 709.9C352.3 709.9 385.4 709.9 418.5 709.9C420.4 709.9 420.4 706.9 418.5 706.9C385.4 706.9 352.3 706.9 319.2 706.9C317.3 706.9 317.3 709.9 319.2 709.9Z" fill="#E8E8E8"/>
<path d="M320.3 735.8C352.3 735.8 384.3 735.8 416.3 735.8C418.2 735.8 418.2 732.8 416.3 732.8C384.3 732.8 352.3 732.8 320.3 732.8C318.4 732.8 318.4 735.8 320.3 735.8Z" fill="#E8E8E8"/>
<path d="M415.9 712.7C415.9 719.5 415.9 726.4 415.9 733.2C415.9 735.1 418.9 735.1 418.9 733.2C418.9 726.4 418.9 719.5 418.9 712.7C418.9 710.8 415.9 710.8 415.9 712.7Z" fill="#E8E8E8"/>
<path d="M487.9 207.7C494.8 207.4 501.6 206.6 508.3 205.3C510.2 204.9 509.4 202 507.5 202.4C501 203.6 494.5 204.4 487.9 204.7C485.9 204.8 485.9 207.8 487.9 207.7Z" fill="#E8E8E8"/>
<path d="M508.3 203.4C505.4 192.6 505.4 181.3 508.7 170.6C511.5 161.3 519.9 145.1 532.2 150.9C542.6 155.8 544 170.5 545.7 180.5C547.8 192.4 548.8 204.5 549 216.6C549 218.5 552 218.5 552 216.6C551.7 201.4 550.1 186.3 547 171.4C544.9 161.5 540.9 148 528.8 146.8C518.1 145.8 511 156.4 507.5 165C502.5 177.5 501.9 191.3 505.4 204.2C505.9 206.1 508.8 205.3 508.3 203.4Z" fill="#E8E8E8"/>
<path d="M488.9 203.4C485.2 187.2 486.9 169.9 494.2 154.9C500.7 141.7 513.4 128.8 529 128.5C546.2 128.2 557.7 143.5 562.5 158.4C567.9 175.1 569.2 193.5 569.1 211C569.1 212.9 572.1 212.9 572.1 211C572.2 194.8 570.9 178.2 566.8 162.5C563.6 150.2 557.6 138.1 546.7 130.9C523.8 115.7 499.1 135.6 490 156.9C483.6 171.9 482.3 188.4 485.9 204.3C486.4 206.1 489.3 205.3 488.9 203.4Z" fill="#E8E8E8"/>
<path d="M549.4 218.9C557.3 223.8 568 220 571.4 211.5C572.1 209.7 569.2 208.9 568.5 210.7C565.8 217.5 557.1 220.2 551 216.3C549.3 215.3 547.8 217.9 549.4 218.9Z" fill="#E8E8E8"/>
<path d="M484 245.4C484 270.8 484 296.1 484 321.5C484 323.4 487 323.4 487 321.5C487 296.1 487 270.8 487 245.4C487 243.5 484 243.5 484 245.4Z" fill="#E8E8E8"/>
<path d="M486.6 247.6C516.5 242.5 545.9 235.3 574.7 226C576.5 225.4 575.7 222.5 573.9 223.1C545.1 232.5 515.7 239.7 485.8 244.7C483.9 245 484.8 247.9 486.6 247.6Z" fill="#E8E8E8"/>
<path d="M575.3 227.8C575.3 251.6 575.3 275.3 575.3 299.1C575.3 301 578.3 301 578.3 299.1C578.3 275.3 578.3 251.6 578.3 227.8C578.3 225.9 575.3 225.9 575.3 227.8Z" fill="#E8E8E8"/>
<path d="M487.4 324.9C517.1 320.2 546.4 313.1 575 303.7C576.8 303.1 576 300.2 574.2 300.8C545.6 310.2 516.3 317.3 486.6 322C484.7 322.3 485.5 325.2 487.4 324.9Z" fill="#E8E8E8"/>
<path d="M530.2 272.1C529.2 269.5 528 266.6 527.9 263.8C527.8 260.4 530.1 255.9 534.1 256.9C540.2 258.4 538.5 268.2 536.3 272C535.3 273.7 537.9 275.2 538.9 273.5C542.2 267.9 543.1 255.1 534.3 253.7C530.8 253.2 527.5 255.6 525.9 258.7C523.6 263.3 525.5 268.6 527.2 273C528 274.7 530.9 273.9 530.2 272.1Z" fill="#E8E8E8"/>
<path d="M527.8 271.8C528.2 279 528.6 286.3 529 293.5C529.2 296.7 530.8 298.5 534.4 297.7C537.8 296.9 539.5 294 539.9 290.8C540.3 287.5 539.4 284.1 539.1 280.9C538.8 277.1 538.8 273.3 539.1 269.4C539.2 267.5 536.2 267.5 536.1 269.4C535.9 273.2 535.8 277 536.1 280.9C536.3 283.5 538.8 293.6 534.7 294.4C530.5 295.2 531.6 286.2 531.4 283.7C531.2 279.8 531 275.8 530.7 271.9C530.7 269.9 527.7 269.9 527.8 271.8Z" fill="#E8E8E8"/>
<path d="M750 215.9C750 237.4 750 258.9 750 280.4C750 282.3 753 282.3 753 280.4C753 258.9 753 237.4 753 215.9C753 214 750 214 750 215.9Z" fill="#E8E8E8"/>
<path d="M690.3 286.8C727.8 286.8 765.2 286.8 802.7 286.8C804.6 286.8 804.6 283.8 802.7 283.8C765.2 283.8 727.8 283.8 690.3 283.8C688.4 283.8 688.4 286.8 690.3 286.8Z" fill="#E8E8E8"/>
<path d="M788 290.3C788 307.4 788 324.5 788 341.5C788 343.4 791 343.4 791 341.5C791 324.4 791 307.3 791 290.3C791 288.4 788 288.4 788 290.3Z" fill="#E8E8E8"/>
<path d="M252.2 508.4C288.6 508.4 324.9 508.4 361.3 508.4C363.2 508.4 363.2 505.4 361.3 505.4C324.9 505.4 288.6 505.4 252.2 505.4C250.3 505.4 250.3 508.4 252.2 508.4Z" fill="#E8E8E8"/>
<path d="M313.3 503.6C313.3 494.2 313.3 484.9 313.3 475.5C313.3 473.6 310.3 473.6 310.3 475.5C310.3 484.9 310.3 494.2 310.3 503.6C310.3 505.5 313.3 505.5 313.3 503.6Z" fill="#E8E8E8"/>
<path d="M346.6 511.8C346.6 522.8 346.6 533.8 346.6 544.9C346.6 546.8 349.6 546.8 349.6 544.9C349.6 533.9 349.6 522.9 349.6 511.8C349.6 509.9 346.6 509.9 346.6 511.8Z" fill="#E8E8E8"/>
<path d="M1121.8 700.1C1167 700.1 1212.2 700.1 1257.4 700.1C1259.3 700.1 1259.3 697.1 1257.4 697.1C1212.2 697.1 1167 697.1 1121.8 697.1C1119.9 697.1 1119.9 700.1 1121.8 700.1Z" fill="#E8E8E8"/>
<path d="M1206 697C1206 687.1 1206 677.2 1206 667.2C1206 665.3 1203 665.3 1203 667.2C1203 677.1 1203 687 1203 697C1203 698.9 1206 698.9 1206 697Z" fill="#E8E8E8"/>
<path d="M1187.9 668.7C1223.2 668.7 1258.4 668.7 1293.7 668.7C1295.6 668.7 1295.6 665.7 1293.7 665.7C1258.4 665.7 1223.2 665.7 1187.9 665.7C1186 665.7 1186 668.7 1187.9 668.7Z" fill="#E8E8E8"/>
<path d="M332.3 1091.7C398 1091.7 463.6 1091.7 529.3 1091.7C531.2 1091.7 531.2 1088.7 529.3 1088.7C463.6 1088.7 398 1088.7 332.3 1088.7C330.3 1088.7 330.3 1091.7 332.3 1091.7Z" fill="#E8E8E8"/>
<path d="M416.4 1075.6C488 1075.6 559.6 1075.6 631.3 1075.6C633.2 1075.6 633.2 1072.6 631.3 1072.6C559.7 1072.6 488.1 1072.6 416.4 1072.6C414.5 1072.6 414.5 1075.6 416.4 1075.6Z" fill="#E8E8E8"/>
<path d="M557.9 1127.5C602.1 1127.5 646.2 1127.5 690.4 1127.5C692.3 1127.5 692.3 1124.5 690.4 1124.5C646.2 1124.5 602.1 1124.5 557.9 1124.5C555.9 1124.5 555.9 1127.5 557.9 1127.5Z" fill="#E8E8E8"/>
<path d="M729.8 1070.2C757.3 1070.2 784.7 1070.2 812.2 1070.2C814.1 1070.2 814.1 1067.2 812.2 1067.2C784.7 1067.2 757.3 1067.2 729.8 1067.2C727.8 1067.2 727.8 1070.2 729.8 1070.2Z" fill="#E8E8E8"/>
<path d="M955.4 1039.8C1014.5 1039.8 1073.6 1039.8 1132.7 1039.8C1134.6 1039.8 1134.6 1036.8 1132.7 1036.8C1073.6 1036.8 1014.5 1036.8 955.4 1036.8C953.4 1036.8 953.4 1039.8 955.4 1039.8Z" fill="#E8E8E8"/>
<path d="M1080.7 998.6C1151.1 998.6 1221.6 998.6 1292 998.6C1293.9 998.6 1293.9 995.6 1292 995.6C1221.6 995.6 1151.1 995.6 1080.7 995.6C1078.8 995.6 1078.8 998.6 1080.7 998.6Z" fill="#E8E8E8"/>
<path d="M1204.2 1038C1274.6 1038 1345.1 1038 1415.5 1038C1417.4 1038 1417.4 1035 1415.5 1035C1345.1 1035 1274.6 1035 1204.2 1035C1202.3 1035 1202.3 1038 1204.2 1038Z" fill="#E8E8E8"/>
<path d="M1121.9 1102.4C1153.5 1102.4 1185.2 1102.4 1216.8 1102.4C1218.7 1102.4 1218.7 1099.4 1216.8 1099.4C1185.2 1099.4 1153.5 1099.4 1121.9 1099.4C1119.9 1099.4 1119.9 1102.4 1121.9 1102.4Z" fill="#E8E8E8"/>
<path opacity="0.07" d="M648.5 1064.2C598.3 1103.4 548.2 1142.6 498 1181.8C430.5 1152.4 363.1 1123 295.6 1093.6C367.1 1054.4 438.6 1015.2 510.1 976C521.2 974.6 531 974.9 539.5 976C605 984.8 641.4 1050.7 648.5 1064.2Z" fill="#353535"/>
<path d="M497.6 529.1C496.6 680.4 495.6 831.6 494.6 982.9C543.8 1013.9 593 1044.9 642.2 1075.9C694.4 1039.2 746.6 1002.5 798.9 965.7C798.6 838.4 798.2 711 797.9 583.7C754.4 546 711 508.2 667.5 470.5C610.8 490 554.2 509.5 497.6 529.1Z" fill="white"/>
<path d="M641.2 657.3C641.2 766.4 641.2 875.5 641.2 984.6C641.2 1015.2 641.2 1045.8 641.2 1076.4C641.2 1078.3 644.2 1078.3 644.2 1076.4C644.2 967.3 644.2 858.2 644.2 749.1C644.2 718.5 644.2 687.9 644.2 657.3C644.2 655.4 641.2 655.3 641.2 657.3Z" fill="#161616"/>
<path d="M796.6 584.7C796.8 684.2 796.9 783.8 797.1 883.3C797.1 911.2 797.2 939 797.2 966.9C797.2 968.8 800.2 968.8 800.2 966.9C800 867.4 799.9 767.8 799.7 668.3C799.7 640.4 799.6 612.6 799.6 584.7C799.5 582.8 796.5 582.8 796.6 584.7Z" fill="#161616"/>
<path d="M496.8 529.7C540 515.2 583.3 500.7 626.5 486.2C637.2 482.6 647.8 479.1 658.5 475.5C660.8 474.7 663.6 473.1 666.1 473.9C668 474.5 670.6 477.7 672.2 479.1C676.7 483 681.3 486.8 685.8 490.7C703 505.3 720.1 519.9 737.3 534.5C757 551.3 776.7 568 796.4 584.8C796.5 584 796.6 583.2 796.7 582.4C746.1 607.8 695.1 632.1 643.5 655.5C644.1 655.6 644.7 655.7 645.3 655.7C628.7 641.3 612.1 626.8 595.5 612.4C568.9 589.3 542.3 566.1 515.7 543C509.6 537.7 503.6 532.4 497.5 527.1C496.5 526.3 494.9 526.8 494.9 528.2C494.9 555.5 494.9 582.9 494.9 610.2C494.9 668.2 494.9 726.1 494.9 784.1C494.9 836.6 494.9 889.1 494.9 941.6C494.9 954.6 494.9 967.5 494.9 980.5C494.9 982.5 494.5 984.2 495.9 985.6C497.1 986.9 499.2 987.7 500.7 988.7C504.1 990.9 507.5 993 510.8 995.2C553.4 1022.3 595.9 1049.3 638.5 1076.4C639.6 1077.1 640.7 1077.8 641.7 1078.5C642.1 1078.8 642.8 1078.8 643.2 1078.5C695.1 1041.6 747 1004.8 798.8 967.9C800.4 966.8 798.9 964.2 797.3 965.3C770 984.7 742.7 1004.1 715.4 1023.5C701.6 1033.3 687.8 1043.1 674.1 1052.9C667.3 1057.7 660.6 1062.5 653.8 1067.3C650.9 1069.4 646.4 1071.5 644.1 1074.2C643.4 1075 643.5 1075.8 642.9 1075.8C641.5 1075.8 638.4 1072.9 637.3 1072.2C633.3 1069.6 629.3 1067.1 625.2 1064.5C613.1 1056.8 601 1049.1 588.9 1041.4C563.2 1025 537.5 1008.7 511.7 992.3C508.1 990 504.6 987.8 501 985.5C500.1 984.9 499.1 984.1 498.1 983.7C497.4 983.4 496.8 982.4 497.4 983.7C498.1 985.2 497.7 983 497.8 982.4C497.9 980.6 497.8 978.8 497.8 977C497.8 960.2 497.8 943.3 497.8 926.5C497.8 898.5 497.8 870.5 497.8 842.5C497.8 809.5 497.8 776.5 497.8 743.5C497.8 711.1 497.8 678.7 497.8 646.3C497.8 620.6 497.8 594.9 497.8 569.2C497.8 560.8 497.8 552.3 497.8 543.9C497.8 539.5 498.4 534.6 497.8 530.2C497.7 529.6 497.8 529 497.8 528.4C496.9 528.8 496.1 529.1 495.2 529.5C511.8 543.9 528.4 558.4 545 572.8C571.6 595.9 598.2 619.1 624.8 642.2C630.9 647.5 636.9 652.8 643 658.1C643.6 658.6 644.2 658.6 644.8 658.3C696.3 634.9 747.4 610.6 798 585.2C798.8 584.8 799 583.4 798.3 582.8C762.7 552.5 727.1 522.2 691.5 491.9C687.2 488.2 682.9 484.6 678.6 480.9C676.6 479.2 674.6 477.5 672.5 475.7C670.9 474.4 668.1 471 666.1 470.3C664.7 469.8 663.5 470.6 662.1 471.1C659.3 472 656.5 473 653.6 473.9C648 475.8 642.3 477.7 636.7 479.6C614.8 486.9 592.8 494.3 570.9 501.6C545.8 510 520.8 518.4 495.7 526.8C494.1 527.4 494.9 530.3 496.8 529.7Z" fill="#161616"/>
<path d="M517.5 994.6C517.5 974.9 517.5 955.3 517.5 935.6C517.5 933.7 514.5 933.7 514.5 935.6C514.5 955.3 514.5 974.9 514.5 994.6C514.5 996.5 517.5 996.5 517.5 994.6Z" fill="#161616"/>
<path d="M515.3 934.2C538.7 947.3 561.8 961 584.5 975.3C586.1 976.3 587.6 973.7 586 972.7C563.3 958.4 540.2 944.7 516.8 931.6C515.1 930.7 513.6 933.3 515.3 934.2Z" fill="#161616"/>
<path d="M584 974.6C582.7 995.1 581.4 1015.7 580.1 1036.2C580 1038.1 583 1038.1 583.1 1036.2C584.4 1015.7 585.7 995.1 587 974.6C587.1 972.7 584.1 972.7 584 974.6Z" fill="#161616"/>
<path d="M527.1 956C525.4 969.8 524.4 983.6 524.2 997.4C524.2 999.3 527.2 999.3 527.2 997.4C527.4 983.5 528.4 969.7 530.1 956C530.4 954 527.4 954.1 527.1 956Z" fill="#161616"/>
<path d="M543 963.1C541.2 977.4 539.9 991.7 539.2 1006C539.1 1007.9 542.1 1007.9 542.2 1006C543 991.7 544.2 977.3 546 963.1C546.3 961.2 543.3 961.2 543 963.1Z" fill="#161616"/>
<path d="M559.4 973.7C557.2 988.2 555.6 1002.8 554.7 1017.4C554.6 1019.3 557.6 1019.3 557.7 1017.4C558.6 1003 560.1 988.7 562.3 974.5C562.6 972.6 559.7 971.8 559.4 973.7Z" fill="#161616"/>
<path d="M571.6 980.7C570.7 993.6 569.8 1006.4 569 1019.3C568.9 1021.2 571.9 1021.2 572 1019.3C572.9 1006.4 573.8 993.6 574.6 980.7C574.7 978.8 571.7 978.8 571.6 980.7Z" fill="#161616"/>
<path d="M517.3 924.1C542.8 937.4 567.9 951.5 592.5 966.4C594.2 967.4 595.7 964.8 594 963.8C569.4 948.9 544.3 934.7 518.8 921.5C517.1 920.6 515.5 923.2 517.3 924.1Z" fill="#161616"/>
<path d="M519.1 921.8C519.1 916.6 519.1 911.5 519.1 906.3C519.1 904.4 516.1 904.4 516.1 906.3C516.1 911.5 516.1 916.6 516.1 921.8C516.1 923.8 519.1 923.8 519.1 921.8Z" fill="#161616"/>
<path d="M517.4 905.9C544.1 918.7 569.9 933.3 594.6 949.5C596.2 950.6 597.7 948 596.1 946.9C571.4 930.6 545.6 916.1 518.9 903.3C517.2 902.5 515.7 905 517.4 905.9Z" fill="#161616"/>
<path d="M593 950.4C592.5 954.9 592 959.5 591.5 964C591.3 965.9 594.3 965.9 594.5 964C595 959.5 595.5 954.9 596 950.4C596.2 948.5 593.2 948.5 593 950.4Z" fill="#161616"/>
<path d="M652.7 669.2C691.6 652.1 729.7 633.1 766.7 612.2C768.4 611.3 766.9 608.7 765.2 609.6C728.1 630.4 690.1 649.4 651.2 666.6C649.4 667.4 650.9 670 652.7 669.2Z" fill="#161616"/>
<path d="M650.3 667.7C650.3 676 650.3 684.3 650.3 692.6C650.3 694.5 653.3 694.5 653.3 692.6C653.3 684.3 653.3 676 653.3 667.7C653.3 665.8 650.3 665.8 650.3 667.7Z" fill="#161616"/>
<path d="M653.1 692.6C680.2 680.6 706.7 667.3 732.6 652.8C734.3 651.9 732.8 649.3 731.1 650.2C705.2 664.7 678.7 677.9 651.6 690C649.9 690.8 651.4 693.4 653.1 692.6Z" fill="#161616"/>
<path d="M651.9 803.6C651.9 876.2 651.9 948.8 651.9 1021.3C651.9 1023.2 654.9 1023.2 654.9 1021.3C654.9 948.7 654.9 876.1 654.9 803.6C654.9 801.7 651.9 801.7 651.9 803.6Z" fill="#161616"/>
<path d="M660.3 921.8C660.3 961.2 660.3 1000.6 660.3 1040C660.3 1041.9 663.3 1041.9 663.3 1040C663.3 1000.6 663.3 961.2 663.3 921.8C663.3 919.9 660.3 919.9 660.3 921.8Z" fill="#161616"/>
<path d="M501 551.8C501 602.8 501 653.9 501 704.9C501 706.8 504 706.8 504 704.9C504 653.9 504 602.8 504 551.8C504 549.9 501 549.9 501 551.8Z" fill="#161616"/>
<path d="M509.6 662.5C509.6 721.5 509.6 780.6 509.6 839.6C509.6 841.5 512.6 841.5 512.6 839.6C512.6 780.6 512.6 721.5 512.6 662.5C512.6 660.6 509.6 660.6 509.6 662.5Z" fill="#161616"/>
<path opacity="0.06" d="M495.2 529C495.2 680.7 495.2 832.4 495.2 984.1C544.4 1015.1 593.5 1046.1 642.7 1077.1C642.7 936.6 642.7 796.1 642.7 655.5C593.5 613.4 544.4 571.2 495.2 529Z" fill="#353535"/>
<path opacity="0.1" d="M499.4 582.7C514.3 654.9 528.9 714.9 540.5 759.5C558.5 828.9 567.7 855.9 579.9 883.5C600.8 930.8 624.4 966.9 641.9 990.8C642.5 921.2 643 851.7 643.6 782.1C648.5 879.4 692.5 940.5 727.4 939.7C755.6 939 783.2 898.1 798.6 848.3C798.6 888 798.6 927.6 798.6 967.3C746.9 1003.3 695.2 1039.4 643.6 1075.4C594.7 1044.7 545.8 1013.9 496.9 983.2C497.7 849.7 498.5 716.2 499.4 582.7Z" fill="#353535"/>
<path opacity="0.39" d="M819.3 535.4C773.1 561.5 727 587.6 680.8 613.7C653.4 576.6 625.9 539.4 598.5 502.3C651.3 481.6 704.2 460.8 757 440.1C777.8 471.9 798.6 503.6 819.3 535.4Z" fill="#EC615B"/>
<g opacity="0.39">
<g opacity="0.39">
<path opacity="0.39" d="M615.8 510.7C620.9 514.1 626 517.5 631.2 520.9C632 521.4 633.2 520.9 633.4 520C635.6 509.8 639.1 500.2 644.1 491.1C645 489.4 642.4 487.9 641.5 489.6C636.4 499 632.8 508.9 630.5 519.3C631.2 519 632 518.7 632.7 518.4C627.6 515 622.5 511.6 617.3 508.2C615.7 507 614.2 509.6 615.8 510.7Z" fill="#EC615B"/>
</g>
</g>
<path d="M656.9 489.6C658.6 487 660.9 485 663.8 483.8C664.7 483.4 663.9 482.1 663 482.5C659.9 483.9 657.4 486.1 655.6 488.9C655.1 489.7 656.4 490.4 656.9 489.6Z" fill="#EC615B"/>
<path d="M657 495.9C659 489.7 664.6 485.2 671.1 484.5C672.1 484.4 672.1 482.9 671.1 483C663.9 483.7 657.8 488.5 655.6 495.5C655.3 496.4 656.7 496.8 657 495.9Z" fill="#EC615B"/>
<path d="M658.7 501C660.9 492.2 667.1 485.8 676.6 488.9C677.5 489.2 677.9 487.8 677 487.5C666.8 484.1 659.7 491 657.3 500.6C657 501.5 658.4 501.9 658.7 501Z" fill="#EC615B"/>
<path d="M661.7 505.9C662 501 662.8 495.2 667.5 492.4C672.1 489.7 677.3 491.6 680.7 495.2C681.4 495.9 682.4 494.8 681.8 494.1C678.2 490.3 672.9 488.3 667.9 490.5C661.9 493.1 660.7 499.9 660.3 505.8C660.2 506.8 661.7 506.8 661.7 505.9Z" fill="#EC615B"/>
<path d="M666.2 511.6C667.2 505.9 662.5 500.7 667.6 495.8C671.3 492.3 676 494.1 679 497.3C681.7 500.3 682.8 504.2 683.3 508.1C683.4 509 684.9 509.1 684.8 508.1C684 501.5 679.8 491.1 671.2 492.2C668.1 492.6 665.4 495.3 664.2 498.1C662.3 502.6 665.6 506.6 664.8 511.1C664.6 512.1 666.1 512.5 666.2 511.6Z" fill="#EC615B"/>
<path d="M669.5 513.9C672.6 508.8 666.1 503.9 668.7 499.2C671.4 494.1 676.7 497.5 678.5 501.1C680.4 505.1 680.4 509.6 679.3 513.8C679.1 514.7 680.5 515.1 680.7 514.2C682.2 508.4 681.6 495.5 673.2 495.1C670.5 495 667.8 496.9 667 499.4C665.4 504.2 671.1 508.6 668.3 513.1C667.7 514 669 514.8 669.5 513.9Z" fill="#EC615B"/>
<path d="M673 515C674.6 511.2 674.2 507.6 672.3 504.1C671.9 503.5 671.6 502.8 671.3 502.1C673.5 500.6 674.8 501 675.2 503.1C675.6 504.1 675.9 505.1 676 506.2C676.5 509.3 676 512.3 674.9 515.2C674.5 516.1 676 516.5 676.3 515.6C677.7 512.1 678.1 508.4 677.2 504.8C676.7 502.5 675.4 498.7 672.5 498.6C670.6 498.5 669.5 500 669.6 501.8C669.7 503.4 670.9 504.8 671.5 506.2C672.7 509 672.6 511.9 671.4 514.7C671.2 515.5 672.6 515.9 673 515Z" fill="#EC615B"/>
<path d="M740.7 569C741 567.2 741.1 565.2 739.4 564.1C737.7 563 734.8 564.1 732.8 564C729.6 563.8 726.4 562.6 723.4 561.6C717.3 559.6 711.1 556.8 706.7 551.8C704.7 549.5 702.1 545.8 701.9 542.6C701.5 535.1 705.8 540.9 708.8 541.7C710.4 542.1 711.7 542 711.8 540.2C711.9 539 710.9 538.4 710.1 537.5C708 535.3 706 533.2 704.1 530.8C700.3 525.8 697.3 520.2 695.5 514.2C694.8 511.9 692.5 502.9 697 503.5C699.1 503.7 702.7 508.6 704 510.2C704.4 509.8 704.7 509.5 705.1 509.1C702.2 505.4 697.4 499.9 697.7 494.9C698.2 485.3 709.3 494.5 711.3 498C711.7 497.7 712.1 497.4 712.5 497.1C711.2 495.6 709.2 492.7 709.2 490.5C709 484.4 712.4 486.7 714.8 488.3C718 490.5 720.3 493.9 722.6 497C723.2 497.8 724.3 497.1 723.9 496.2C723.2 494.9 722.7 493.5 722.3 492C721.4 490.1 722.2 489.1 724.9 488.9C728.6 487 728.3 487.5 730.7 490.1C733.4 493 735.5 496.4 737.7 499.7C741.3 505.3 745.4 510.3 749.4 515.5C752 518.9 754.1 522.5 755.2 526.7C756.3 530.8 756.2 535 756.8 539.1C757.5 543.9 759.5 548.2 764.1 550.4C765 550.8 765.7 549.5 764.9 549.1C755.5 544.6 758.8 529.9 755 521.5C753.3 517.7 750.7 514.4 748 511.2C744.5 507 741.6 502.7 738.6 498.1C735.7 493.6 730.6 484 724.4 483.8C717.5 483.6 721.1 493.3 722.6 496.6C723 496.3 723.5 496.1 723.9 495.8C721.4 492.3 714.9 482.5 709.2 484.4C704.2 486.1 709.6 495.5 711.5 497.7C712.1 498.4 713.1 497.5 712.7 496.8C710.9 493.7 708.4 491.2 705.2 489.7C703.2 488.8 699 487.2 697.1 489.2C695.2 491.2 696.2 495.6 697 497.9C698.4 502.3 701.3 506.1 704.2 509.7C704.8 510.5 705.8 509.4 705.3 508.6C703.7 506.6 698.4 499.6 695.1 500.7C692.3 501.7 693 507.7 693.2 509.6C694 515.7 697 521.8 700.2 526.9C701.7 529.3 703.4 531.6 705.2 533.7C706.1 534.8 708 536 708.6 537.3C710.5 538.6 710.1 539 707.3 538.5C706.5 538 705.6 537.6 704.8 537.1C702.3 535.8 700.7 535.8 700.2 539C699.6 543.3 702.6 548.5 705.2 551.6C708.8 556 713.8 558.8 719 560.9C722.1 562.1 725.4 563.2 728.6 564C731 564.6 739.8 564.2 739.3 567.9C739.1 569.6 740.6 570 740.7 569Z" fill="#EC615B"/>
<path d="M702.8 508.5C707 513.6 710.4 519.4 714.1 524.9C714.6 525.7 715.9 524.9 715.4 524.1C711.6 518.5 708.1 512.6 703.8 507.4C703.2 506.7 702.2 507.7 702.8 508.5Z" fill="#EC615B"/>
<path d="M709 494.8C713.1 500.4 716.9 506.1 720.5 512C721 512.8 722.3 512.1 721.8 511.2C718.2 505.3 714.4 499.6 710.3 494C709.8 493.3 708.5 494 709 494.8Z" fill="#EC615B"/>
<path d="M598.1 502.5C625 539.8 652.5 576.7 680.7 613C681.3 613.8 682.3 612.7 681.8 611.9C653.7 575.6 626.3 538.9 599.4 501.7C598.9 501 597.6 501.7 598.1 502.5Z" fill="#EC615B"/>
<path d="M980.5 1020.8C982.1 1039.7 983.7 1058.5 985.3 1077.4C947.6 1094.1 929.4 1104.8 930.8 1109.4C932.5 1115 962.6 1111.8 1021 1099.8C1019.8 1067.8 1018.5 1035.7 1017.3 1003.7C1005.1 1009.4 992.8 1015.1 980.5 1020.8Z" fill="#161616"/>
<path d="M1017.2 615.4C1022.9 619.2 1023.9 627.7 1025.9 644.6C1026.9 652.7 1027.4 662.7 1024.9 691.7C1024.6 694.8 1023.8 704.7 1021.3 726C1017.7 757.2 1016.7 760.9 1015.7 774.1C1014.9 784.4 1014.4 795.3 1014.7 818.7C1015 841 1015.3 871.5 1018.8 914C1021.4 945.5 1025.8 984.7 1033.7 1029.7C1025.9 1033.8 1018.6 1036.3 1012.7 1037.9C999.6 1041.4 989 1041.5 979.9 1041.5C971.2 1041.5 963.6 1040.8 957.4 1040C954.5 1024.9 950.7 1002.2 947.7 974.4C946.1 960 945.1 944.1 943.1 912.9C940.3 869.2 938.9 847.4 938.5 828.9C938.3 820.7 938.3 813.9 939.5 757.7C941.3 673.4 942 663.1 950.8 649.6C968.3 622.6 1003.8 606.4 1017.2 615.4Z" fill="white"/>
<path d="M1024.7 618.2C1026.4 645.4 1025.9 672.6 1023.2 699.7C1020.5 726.1 1016 752.2 1014.3 778.6C1010.8 832.8 1014.4 887.3 1020.4 941.2C1023.8 971.3 1027.9 1001.4 1032.1 1031.4C1032.4 1033.3 1035.3 1032.5 1035 1030.6C1027.5 976.5 1020 922.3 1017.1 867.7C1015.7 841 1015.4 814.1 1016.7 787.4C1018.1 760.8 1022 734.7 1025.2 708.3C1028.8 678.4 1029.6 648.2 1027.7 618.1C1027.6 616.2 1024.6 616.2 1024.7 618.2Z" fill="#161616"/>
<path d="M938 748.5C935.6 824.5 938.5 900.6 947 976.2C949.3 997.2 952.1 1018.1 955.3 1039C955.6 1040.9 958.5 1040.1 958.2 1038.2C946.9 963.5 940.9 888 940.3 812.4C940.1 791.1 940.4 769.8 941.1 748.5C941.1 746.5 938.1 746.5 938 748.5Z" fill="#161616"/>
<path d="M956.2 1041.2C982.2 1046.4 1009.1 1043 1033 1031.4C1034.7 1030.6 1033.2 1028 1031.5 1028.8C1008.4 1040 982.2 1043.4 957 1038.3C955.1 1037.9 954.3 1040.8 956.2 1041.2Z" fill="#161616"/>
<path opacity="0.09" d="M948.3 674.5C945.6 693.4 943.1 714.9 941.4 738.7C940.4 751.7 939 774 938.8 802C938.6 825.3 939.5 845 941.4 883.6C943.5 927.2 944.6 949.5 947.5 973.8C950.8 1001.8 954.9 1024.6 957.9 1039.7C964.9 1041.2 974.5 1042.3 985.7 1041.4C993.1 1040.8 999.5 1039.4 1004.8 1037.9C996.3 1006.1 988.5 972.8 981.4 938.1C961.9 843.3 952.1 754.6 948.3 674.5Z" fill="#353535"/>
<path opacity="0.09" d="M940.5 772.6C944.8 808.4 948.6 839.2 951.8 863.7C960 927.8 962.6 943.9 968.3 964.3C977.7 998.1 990 1024.2 998.7 1040.6C992.6 1042.1 982.7 1043.7 970.9 1041.5C965.4 1040.5 960.7 1038.8 957 1037.2C952.9 1012.9 949.4 987.4 946.6 960.9C939.3 892.6 938.2 829.4 940.5 772.6Z" fill="#353535"/>
<path d="M866.8 1031.5C865.4 1051.4 864 1071.4 862.5 1091.3C815.5 1102.9 792.4 1111.3 793.1 1116.4C793.9 1122.5 828.6 1123.9 897.2 1120.7C899.3 1091.9 901.5 1063 903.6 1034.2C891.3 1033.2 879 1032.3 866.8 1031.5Z" fill="#161616"/>
<path d="M908.3 619.2C902.4 625.5 898.5 633.5 898.5 633.5C896.1 638.4 894.6 642.6 894 646C892.9 653.5 891.3 663.9 889.5 676.3C885.6 703.4 882.9 724.6 881.5 736C876.5 775.5 873.7 801.1 868.1 848.4C859.8 918.3 857.4 933.4 851.2 990.2C848.9 1011.3 847 1028.7 845.8 1040.1C847.5 1042.8 850.4 1046.6 855 1050C856.1 1050.8 858.2 1052.3 864.5 1055.3C870.3 1058 876.2 1060.4 878.8 1061.3C894.3 1066.3 922.3 1058.8 923.8 1058.4C923.8 1047.5 924 1032.8 924.8 1015.3C925.1 1008.3 926.1 989.4 930 953.1C933.5 920.6 936.2 894.9 942.3 860.3C946.7 835 951 815.7 954.9 798.9C960.8 772.5 966.6 750 971.4 732.5C978.3 719 985.2 705.5 992.1 692C994.1 689.1 1012.4 662 1002 637.4C986.4 600 921.2 605.4 908.3 619.2Z" fill="white"/>
<path d="M904.9 608.2C886.2 659.6 882.2 715.1 875.9 769C869.1 826.8 862.3 884.6 855.6 942.5C851.8 974.9 848 1007.3 844.2 1039.6C844 1041.5 847 1041.5 847.2 1039.6C853.9 982.1 860.7 924.6 867.4 867.1C874 810.6 879.8 754 887.5 697.7C891.6 667.6 897.3 637.6 907.8 609C908.4 607.2 905.5 606.4 904.9 608.2Z" fill="#161616"/>
<path d="M991.4 691C975.6 715.9 963.1 742.7 954.3 770.9C953.7 772.7 956.6 773.5 957.2 771.7C965.9 743.8 978.3 717.2 994 692.5C995 690.9 992.4 689.3 991.4 691Z" fill="#161616"/>
<path d="M971.6 727.3C947.4 810.9 931.9 897 925.7 983.8C923.9 1008.7 922.9 1033.6 922.6 1058.5C922.6 1060.4 925.6 1060.4 925.6 1058.5C926.6 971.4 936.8 884.5 956 799.6C961.4 775.6 967.6 751.8 974.5 728.2C975 726.3 972.2 725.5 971.6 727.3Z" fill="#161616"/>
<path d="M844.5 1041.2C864.2 1064.5 896.7 1071.6 924.5 1059.1C926.3 1058.3 924.7 1055.7 923 1056.5C896.4 1068.4 865.4 1061.2 846.6 1039C845.3 1037.6 843.2 1039.7 844.5 1041.2Z" fill="#161616"/>
<path opacity="0.06" d="M928.3 627.7C940.2 638.6 921.4 674.5 910.1 702.3C893.6 742.9 890.1 810 883.2 944.4C881.7 972.8 880.1 1012.6 879.7 1060.7C876.2 1060.2 872 1059.2 867.6 1057.2C855.9 1052.1 849.1 1043.6 845.9 1039C848.7 1019.1 852.7 989 857.2 952.2C867.5 867.8 869.6 833.2 877.2 772.6C881.5 738.3 888.2 689.1 898.9 629.4C898.8 629.4 898.8 629.4 928.3 627.7Z" fill="#353535"/>
<path opacity="0.06" d="M879.7 759.6C885 834.5 879.4 882.4 872.8 913.2C867.1 939.6 868.4 967.1 865 993.9C863.3 1007 861 1023.5 870.2 1039C876.8 1050.1 886.6 1056.4 893.6 1059.8C889.5 1060.6 878.8 1062.1 866.7 1057.2C854.9 1052.4 848.3 1044.2 845.9 1040.7C850.7 999.1 855.7 957.4 860.6 915.8C866.9 863.6 873.3 811.6 879.7 759.6Z" fill="#353535"/>
<path d="M994.3 389.5C992.2 390.7 993.1 402.4 995 425.5C995.2 427.4 995.3 429.6 995.6 432.6C996.3 439.4 997.2 446 998.3 453.1C1006.6 507 1018.4 547 1018.4 547C1024.1 566.3 1032.2 590.1 1043.7 616.6C1045.6 620 1049.4 625.5 1055.8 628.7C1062.7 632.2 1068.9 631.2 1078.1 629.5C1095.9 626.2 1107.3 618.1 1111.4 614.9C1117.4 610.3 1125.3 604.2 1124.6 597.1C1124.3 594.6 1122.9 590.9 1119.8 589.8C1117.1 588.8 1113.7 590.1 1111.4 593C1116.1 586.5 1119.4 580.5 1121.6 576C1126.7 565.6 1126.7 562 1125.6 559.4C1125.4 559 1124.2 556.2 1121.6 554.9C1120.9 554.6 1119.5 554 1115 554.9C1109.7 555.9 1108.9 557.2 1105.5 557.3C1102.3 557.4 1101.3 556.3 1098.9 556.1C1095.8 555.8 1091.2 557 1085 564.2C1084 563.4 1082.5 562.5 1080.6 562.6C1077.4 562.7 1074.9 565.7 1068.5 576.8C1066.5 580.2 1064 584.7 1061.2 590.2C1059.8 584 1057.7 574.4 1055.3 562.7C1047.1 521.5 1048.3 513.5 1042.1 483.4C1033.4 440.6 1024.2 422.7 1016.1 410.6C1008.3 398.4 998 387.3 994.3 389.5Z" fill="white"/>
<path d="M994.6 391.7C999.1 389.6 1004.5 397.6 1006.9 400.5C1009.9 404.2 1012.7 408 1015.2 412C1019.9 419.3 1023.8 427.1 1027.1 435.2C1034.5 453.1 1038.8 472.1 1042.2 491.1C1045.7 510.9 1048.5 530.8 1051.6 550.6C1054.3 567.8 1056.1 586.1 1065.7 601.1C1066.7 602.7 1069.3 601.2 1068.3 599.6C1059.8 586.4 1057.7 570.7 1055.4 555.6C1052.8 538.6 1050.2 521.6 1047.5 504.6C1042.6 473.7 1036.4 442 1020.4 414.7C1016.6 408.3 1012.3 402.2 1007.5 396.5C1003.9 392.4 999.2 386.3 993.2 389.1C991.3 389.9 992.8 392.5 994.6 391.7Z" fill="#161616"/>
<path d="M994 433.8C997.5 464.6 1003.1 495.1 1010.9 525.1C1018.5 554.3 1027.4 584.4 1040.2 611.8C1045.6 623.2 1055.8 635.8 1070 632.1C1071.9 631.6 1071.1 628.7 1069.2 629.2C1049.3 634.5 1040.7 606 1035.5 592.5C1029.1 575.7 1023.4 558.7 1018.4 541.5C1008.2 506.3 1001.1 470.3 996.9 433.9C996.8 431.9 993.8 431.8 994 433.8Z" fill="#161616"/>
<path d="M1062.9 592.1C1065.5 586.8 1068 581.4 1070.6 576.1C1073.3 570.6 1076.6 562.9 1083.9 563.6C1085.8 563.8 1085.8 560.8 1083.9 560.6C1078.2 560.1 1074.1 563.8 1071.3 568.3C1067 575.2 1063.9 583.2 1060.3 590.5C1059.5 592.3 1062 593.8 1062.9 592.1Z" fill="#161616"/>
<path d="M1077.9 579.4C1082.2 572.2 1090.4 552.2 1101.6 558.3C1103.3 559.2 1104.8 556.6 1103.1 555.7C1089.4 548.2 1080.5 569.1 1075.3 577.8C1074.3 579.6 1076.9 581.1 1077.9 579.4Z" fill="#161616"/>
<path d="M1086.6 583.1C1090.2 578 1093.9 572.9 1097.5 567.8C1101.4 562.3 1106.6 555.6 1114.2 556.7C1116.1 557 1116.9 554.1 1115 553.8C1108.7 552.8 1103.6 555.8 1099.5 560.4C1093.7 566.8 1089 574.6 1084 581.6C1082.8 583.1 1085.4 584.6 1086.6 583.1Z" fill="#161616"/>
<path d="M1095.1 585.3C1099.4 580.2 1103.6 575 1107.9 569.9C1110.4 566.9 1120.4 551.4 1124.6 560.6C1125.7 562.9 1123.9 567.6 1123.1 569.9C1122 572.9 1120.4 575.7 1118.9 578.5C1115.5 584.7 1112 590.8 1107.6 596.3C1106.4 597.8 1108.5 599.9 1109.7 598.4C1115.2 591.4 1119.8 583.6 1123.8 575.6C1126.3 570.6 1130.2 561.5 1126.3 556.2C1122.4 550.9 1115.7 556.1 1112.7 559.5C1105.9 567.2 1099.5 575.3 1093 583.2C1091.8 584.6 1093.9 586.7 1095.1 585.3Z" fill="#161616"/>
<path d="M1113.5 556.6C1115 556.8 1116.4 557.2 1117.8 557.7C1118.6 558 1119.4 557.4 1119.6 556.7C1119.8 555.8 1119.3 555.2 1118.6 554.9C1117 554.3 1115.3 553.9 1113.5 553.7C1112.7 553.6 1112 554.5 1112 555.2C1112 556 1112.7 556.5 1113.5 556.6Z" fill="#161616"/>
<path d="M1114.8 592.4C1117.1 589.5 1121.6 591.5 1122.5 594.7C1122.9 596.1 1122.9 597.8 1122.6 599.2C1121.9 602.5 1119.8 605.4 1117.5 607.8C1113.4 612.2 1108.5 616 1103.3 619C1092.9 625 1081.1 628 1069.2 628.9C1067.3 629 1067.3 632 1069.2 631.9C1087.2 630.6 1104.9 624.4 1118 611.6C1122.8 606.9 1127.6 600.3 1125.2 593.2C1123.4 587.8 1116.6 585.3 1112.7 590.2C1111.4 591.8 1113.6 593.9 1114.8 592.4Z" fill="#161616"/>
<path opacity="0.08" d="M995.5 391.2C997.7 399.1 1000.9 411.3 1004.6 426.3C1014.1 465.2 1020.3 497.9 1031.9 546.1C1043.6 594.7 1048 605.7 1058.8 609.9C1070.8 614.5 1094.5 612.2 1109.3 599.9C1114 596 1118.7 590.4 1121.1 591.7C1123.6 593.1 1122.9 601.3 1119.7 607.6C1113.7 619.6 1099.6 623.7 1086 627.6C1074.9 630.8 1069.3 632.4 1062.3 630.3C1052 627.2 1046.1 618.6 1043.2 614.4C1039.6 609.1 1039 606 1034.1 592.5C1029.1 578.6 1028.7 579 1025 568.8C1017.6 548.5 1013.2 530.7 1010.4 519.6C1004.7 496.8 999.5 475.7 996.7 447.2C995.5 433 994.5 413.9 995.5 391.2Z" fill="#353535"/>
<path opacity="0.06" d="M1041.5 603.8C1044.3 606.7 1057.5 619.8 1078.8 620.6C1103 621.5 1118.4 605.7 1120.7 603.3C1118.1 607.7 1113 614.7 1104.3 620.1C1098.8 623.6 1094.1 625 1088.8 626.5C1075.1 630.5 1066.2 633 1057.8 629.2C1045 623.5 1042 606.6 1041.5 603.8Z" fill="#353535"/>
<path d="M986.9 381.2C976.2 379.9 966.1 387.2 960.6 391.2C945.3 402.3 939.4 418 936.7 424.8C920.2 466.1 915.4 516.1 913.3 534.9C910.6 558.5 905.3 592.9 893.3 634.7C900.3 640.4 928 661.7 968.6 660.4C1003.3 659.2 1027 642.1 1034.7 635.9C1036.9 595.8 1037.2 562 1037 536.7C1036.5 490.5 1034.9 469.3 1027.9 444.9C1022.5 426.1 1010.4 384 986.9 381.2Z" fill="#CC4A44"/>
<path opacity="0.08" d="M978.4 384.3C968.4 394.1 992.3 432.3 996.2 441.2C1014.2 482.2 1022.5 548.5 979.5 659.5C985.4 658.4 992 656.8 999 654.3C1013.6 649.3 1025.1 642.5 1033.5 636.5C1034.2 629.2 1035.1 619.4 1035.8 607.8C1036.9 589.3 1037 574.1 1036.9 561.3C1036.7 522.3 1036.6 502.8 1033.5 476.9C1031.9 464 1028.4 439.9 1016.8 412.6C1009.9 396.5 1002.8 385.3 991.5 382.7C990.1 382.3 982.3 380.5 978.4 384.3Z" fill="#353535"/>
<path opacity="0.05" d="M1034.7 499.2C1032.7 499 1030.1 517.3 1025.5 541.1C1015.8 591.2 1003.7 630.3 995.1 655.4C1000.8 653.2 1006.8 650.7 1012.9 647.9C1020.4 644.5 1027.5 641 1034.2 637.6C1038.5 523 1037 499.4 1034.7 499.2Z" fill="#353535"/>
<path d="M964 395.8C960.8 394.5 957.8 394.7 956 395C953 398.6 948.3 404.3 942.6 411.3C917.5 442.6 915.3 449.9 897.8 469.9C881 489.1 869.4 498.1 860.8 503.9C851.1 510.4 843.9 513.7 841.7 514.7C825.8 521.8 811.4 524 801.9 524.8C799 523.4 794.8 521.1 790.6 517.3C785.2 512.3 782.7 507.5 780.1 503.1C770.2 486.4 767.5 481.6 763.8 481.7C762.5 481.7 760.4 482.4 757.8 486.3C756.8 485.6 755.1 484.3 753.2 482.6C748.5 478.4 747.2 475.9 743.3 474.2C741.6 473.5 739.4 472.5 737.5 473.6C735.6 474.7 735.2 477.3 735.1 477.9C733.4 476.1 729.3 472.4 723.5 472.1C721.9 472 719.6 471.9 718.5 473.3C716.8 475.3 718.4 480.1 722.6 485.1C721.6 484.8 716.8 483.2 714.8 485.4C712.6 487.7 714.9 492.8 716.4 496.1C719.4 502.8 723.3 506.2 731.4 515.2C734.7 518.9 737.3 521.9 739 523.8C737.3 523.6 734.6 523.2 731.6 522C727.1 520.2 725.6 518.1 723.6 518.7C721.4 519.4 720.2 523.1 720.6 526C721.1 529.3 724.2 531.3 726.1 532.4C737.6 539.4 751.8 542.9 756.2 544C767.1 546.7 772.6 548 776.7 548.5C783.8 549.4 790.9 549.8 801.5 549.3C830.9 547.9 853.8 541.9 858.7 540.6C869.3 537.8 878.6 535.3 890.3 530C901.2 525.1 925.2 514 946.2 488.9C957.7 475.2 962.6 463.9 972.5 441.4C973.7 438.6 976.1 433.1 976.5 425.7C977 415.3 974.1 399.8 964 395.8Z" fill="white"/>
<path d="M963.2 393.7C956.3 391.1 951.1 397.6 947.2 402.4C941.6 409.2 936.3 416.2 931 423.3C919.5 438.8 908.4 454.7 895.7 469.4C871.7 497.4 840.1 522.1 801.6 523C799.7 523 799.7 526 801.6 526C836.4 525.2 866.4 505.3 889.5 480.7C901.5 467.9 912.1 453.9 922.5 439.8C928 432.3 933.5 424.8 939.1 417.4C942.4 413.1 945.8 408.8 949.2 404.6C952.3 400.8 956.6 394.6 962.3 396.7C964.2 397.2 964.9 394.3 963.2 393.7Z" fill="#161616"/>
<path d="M974.8 423.4C961.6 514.2 857 555.6 775.1 546.4C761.7 544.9 748.1 541.8 735.8 536.1C732.7 534.7 729.6 533.1 726.8 531.2C725.6 530.4 724.4 529.7 723.5 528.6C721.2 526.9 721 525.1 722.7 523.1C722.9 520.4 724.2 519.6 726.7 520.6C731.6 521.7 734.7 525.9 740 526C741.9 526 741.9 523 740 523C734.6 522.9 731.1 517.8 725.8 517.4C722 517.1 718.8 519.2 718.3 523.1C717.3 532.3 731.2 537.4 737.8 540.2C762.3 550.4 789.7 551.8 815.8 549.6C864 545.5 913.1 528.1 945.7 491.1C962.3 472.2 974 449.2 977.6 424.2C978 422.3 975.1 421.5 974.8 423.4Z" fill="#161616"/>
<path d="M740.8 523.5C738.4 519.1 734.6 516.3 731.1 512.9C726.1 508 722 501.1 718.6 494.9C717.7 493.2 716.8 491.5 716.3 489.7C715 487.2 715.8 486.3 718.5 487.1C720.2 486.4 721.5 486.8 722.5 488.1C725 489.6 727.4 492.5 729.4 494.6C734.3 499.6 738.6 505.2 742.4 511.1C743.4 512.7 746 511.2 745 509.6C742 505 718.9 473 713.5 484.3C710.3 490.8 718.3 500.1 721.4 505.1C723.7 508.7 725.9 512.1 729 515.1C732.3 518.3 736 520.9 738.3 525.1C739.1 526.7 741.7 525.2 740.8 523.5Z" fill="#161616"/>
<path d="M726.5 486.7C725.2 485.4 715.5 473.5 721.7 472.8C723.1 472.6 726.7 475.6 727.9 476.4C729.9 477.8 731.9 479.4 733.7 481.2C740.3 487.3 745.5 494.7 750.6 502C751.7 503.6 754.3 502.1 753.2 500.5C745.5 489.6 736.7 476.2 724 470.6C720.9 469.2 716.7 469 716.3 473.3C715.8 478.8 720.7 485.4 724.3 488.9C725.8 490.2 727.9 488.1 726.5 486.7Z" fill="#161616"/>
<path d="M738.6 481.7C738.3 481.1 736.9 478.2 737.1 477.5C738.2 476.6 739.3 475.6 740.4 474.7C741.1 475.1 741.9 475.4 742.6 475.8C745.5 477.5 748 480 750.3 482.5C754.9 487.7 758.9 493.5 763.1 499C764.3 500.5 766.9 499 765.7 497.5C759.3 489.2 752.7 477.1 742.7 472.5C740.5 471.5 737.4 470.7 735.4 472.5C732.4 475.1 734.6 479.8 735.8 482.6C736.4 484.3 739.3 483.5 738.6 481.7Z" fill="#161616"/>
<path d="M760.1 488.1C759.3 485.6 758.6 485 761.8 484.7C764.6 484.5 764.7 485.1 766.4 486.9C768.5 489.3 770.4 491.8 772.3 494.3C775.5 498.7 778.5 503.3 781.8 507.8C786.9 514.7 793.6 524.4 802.8 525.7C804.7 526 805.5 523.1 803.6 522.8C795.3 521.6 789 512.6 784.4 506.3C780.2 500.6 776.3 494.5 772 488.9C769.5 485.8 765.7 479.4 761 479.6C756 479.8 756.3 485.5 757.4 488.9C757.8 490.7 760.7 489.9 760.1 488.1Z" fill="#161616"/>
<path opacity="0.08" d="M974.4 406.8C972 406.1 968.1 416.3 960.6 429.5C948.3 451.3 935.9 465.6 922.8 478.6C891.7 509.4 876.1 524.9 848.9 533C839.2 535.9 794.4 547.9 753 522C733.4 509.7 722.1 493.6 716.4 483.8C715.4 484.8 714.2 486.3 714 488.3C713.6 491.2 715.5 493.4 717.7 496.4C720.7 500.7 720.9 501.8 722 504C722 504 722.9 505.6 724.2 507.4C727.6 512.1 739.6 523 738.8 524.1C738.5 524.5 736.2 523.4 731.5 521.3C726.9 519.2 726.1 518.6 724.6 518.9C721.9 519.4 719.2 522.4 719.3 525.4C719.4 528.1 721.7 529.9 723.8 531.5C726.2 533.4 728.5 534.1 729.1 534.3C737.9 537.3 740.1 539.3 747.8 541.6C770.3 548.3 795.7 548.9 795.7 548.9C833 549.8 861.6 540.4 867.6 538.3C880 534.1 904.3 525.6 928.9 504.6C941.1 494.2 959.7 478 969.5 451C977 430.5 977.8 407.7 974.4 406.8Z" fill="#353535"/>
<path opacity="0.06" d="M740.4 537.2C756.4 540.7 775.9 543.3 798.1 542.9C852.4 541.9 894.3 523.1 917.9 510C905.3 520.4 884 535.3 854.1 543.7C801.2 558.6 756.5 543.5 740.4 537.2Z" fill="#353535"/>
<path d="M904 258C903.9 258.2 900.4 264.1 893.5 276C885.5 289.7 882.2 295.4 878.9 303.5C876.6 309.2 875.1 313.9 874.2 317.1C878.6 318.9 883 320.7 887.4 322.5C888.6 332.3 891.5 339.8 893.8 344.5C897.5 352.1 902.8 363.2 914.8 368.6C916.6 369.4 922 371.7 929.4 371.7C938.6 371.7 945.4 368.1 948.4 366.3C949 370.1 950.2 374.9 952.5 380.2C954.4 384.7 956.6 388.3 958.6 391.1C968 387.5 977.4 383.9 986.7 380.2C984.1 376.3 980.7 370.1 978.6 361.9C977.9 359.1 976.3 352.1 976.9 342.2C977.6 330.1 981 323.8 984.7 312.4C990.4 294.6 993.8 284.2 992.2 273.1C990.1 258.7 979.3 242.1 962.7 236.1C938.9 227.4 914.2 244.3 904 258Z" fill="white"/>
<path d="M887.4 269.6C881.2 267.2 879.8 255 881 246.9C881.4 244.2 882.9 236.2 890.2 228.2C900.1 217.3 910.6 217.4 925.8 210.9C934.2 207.3 946.2 200.8 959 188.2C957.1 193.9 955.2 199.5 953.2 205.2C956.1 205.4 963.3 205.7 970.8 201.5C980.1 196.4 983.7 188 984.7 185.6C986.3 188.1 992.9 199 989.4 211.4C988.4 214.9 986.8 217.7 985.3 219.9C990.5 218.5 997.8 215.8 1004 209.7C1010.8 203 1011.7 196.9 1014.5 197.2C1019.9 197.7 1021.9 219.7 1023 231.8C1023.7 239.8 1024.8 245.4 1022.7 252.1C1020.8 258.3 1017.2 263 1017.6 263.3C1018.3 263.7 1028.4 247.1 1031.2 248.4C1032.9 249.2 1029.9 255.6 1028.8 267.7C1027.5 282.5 1030.5 285.3 1027.8 295.8C1026.2 301.9 1023.9 306.2 1021.4 311.1C1018.3 316.8 1014.5 324 1007.5 330.4C1001 336.4 993 343.7 983.1 342.3C970.2 340.4 964.2 325.1 963.8 324C964.9 324 974.8 323.5 979.7 315.9C985.9 306.2 979.7 291.8 972.6 289.4C967.4 287.6 963.3 292.9 958.4 290.4C954.4 288.4 953.9 283.5 952.3 278.9C950.2 272.8 945.6 264.7 934.3 256.5C927.2 256.2 916.7 256.8 905.8 261.9C896.2 266.2 892.1 271.4 887.4 269.6Z" fill="#5222D0"/>
<path d="M886.5 286.7C881.3 294.7 877 303.2 874 312.3C873.3 314.4 872.1 316.6 873.6 318.4C874.7 319.7 877.4 320.1 878.9 320.7C881.4 321.6 883.9 322.6 886.4 323.5C888.2 324.2 889 321.3 887.2 320.6C885.5 320 883.9 319.4 882.2 318.7C881.2 318.3 877.9 317.6 877.2 316.8C875.1 314.7 878.1 309.5 879 307.3C881.7 300.6 885.1 294.3 889.1 288.2C890.2 286.6 887.6 285.1 886.5 286.7Z" fill="#161616"/>
<path d="M885.8 322.4C891.3 341.6 898.2 363 917.8 372.1C919.5 372.9 921.1 370.3 919.3 369.5C900.5 360.7 894 340.1 888.7 321.6C888.1 319.7 885.2 320.5 885.8 322.4Z" fill="#161616"/>
<path d="M918.3 372.4C935.8 376.3 955.4 366.9 967.1 354.4C968.4 353 966.3 350.9 965 352.3C954 364 935.5 373.2 919.1 369.5C917.2 369 916.4 371.9 918.3 372.4Z" fill="#161616"/>
<path d="M947 367C948.2 375.8 951.4 383.7 956.9 390.7C958.1 392.2 960.2 390.1 959 388.6C954.1 382.3 951.1 374.9 950 367C949.8 365.1 946.8 365.1 947 367Z" fill="#161616"/>
<path d="M975.6 354.1C976.2 364 979.8 373 986.2 380.6C987.4 382.1 989.6 379.9 988.3 378.5C982.4 371.5 979.1 363.2 978.5 354.1C978.4 352.2 975.4 352.2 975.6 354.1Z" fill="#161616"/>
<path d="M960.8 294.3C963.7 289.9 969.2 289.3 973.5 292.1C977.4 294.6 979.3 299.4 979.6 303.8C980.1 310.9 975.5 325.3 965.5 321C963.7 320.2 962.2 322.8 964 323.6C977 329.2 983.9 312.1 982.4 301.8C981.5 295.9 978.1 290.1 972.2 288.1C966.9 286.2 961.4 288.2 958.3 292.8C957.1 294.4 959.7 295.9 960.8 294.3Z" fill="#161616"/>
<path d="M949.7 371C955.5 367.3 960.5 362.8 964.8 357.5C966 356 963.9 353.9 962.7 355.4C958.6 360.5 953.7 364.9 948.2 368.5C946.6 369.5 948.1 372.1 949.7 371Z" fill="#161616"/>
<path d="M895 342.2C901.9 342.8 908.8 340.3 913.6 335.2C916.7 331.8 917.9 326.1 911.6 326.3C910 326.4 909.5 328.8 911.2 329.2C913.5 329.8 915.4 330.7 917.3 332.3C918.8 333.5 920.9 331.4 919.4 330.2C917.1 328.3 914.9 327.1 912 326.4C911.9 327.4 911.7 328.4 911.6 329.3C915 329.2 910.5 334.1 910.1 334.5C908.5 335.9 906.8 336.9 904.9 337.7C901.7 339.1 898.5 339.5 895 339.2C893.1 339.1 893.1 342.1 895 342.2Z" fill="#161616"/>
<path d="M908.2 297C906.5 294 905.9 290.7 906.7 287.4C906 287.7 905.2 288 904.5 288.3C907.2 290.4 906.6 294.3 906.2 297.2C907.1 297.1 908 297 908.9 296.8C907.7 295.1 907.1 293.3 907.1 291.2C907.1 289.3 904.1 289.3 904.1 291.2C904.1 293.8 904.8 296.2 906.3 298.3C907 299.2 908.8 299.3 909 297.9C909.7 293.4 909.9 288.7 905.9 285.6C905.1 285 903.9 285.6 903.7 286.5C902.7 290.6 903.3 294.8 905.5 298.4C906.6 300.2 909.2 298.7 908.2 297Z" fill="#161616"/>
<path d="M902.2 275.8C907.1 270 914.2 274.4 916.8 279.9C917.6 281.6 920.2 280.1 919.4 278.4C916 271.2 906.2 266.6 900.1 273.7C898.8 275.2 900.9 277.3 902.2 275.8Z" fill="#161616"/>
<path opacity="0.07" d="M950.4 274.1C950.8 276.4 951.3 280 952.1 284.2C954.3 296.1 956.2 302.9 956.9 306.1C959.5 318.3 956.1 337.1 943.7 349.4C930 362.9 911.3 362.6 906.6 362.4C908.7 364.9 912 368.1 916.8 370.2C931.4 376.6 946.2 367.3 947.8 366.2C947.6 372.7 949 374.9 950.4 375.6C954.7 377.5 964.3 368.6 968.5 359C973 348.6 970.7 338.6 969.5 334.5C963.9 326.8 963.6 324.1 964.4 323.2C965.6 321.9 968.9 324.3 972.6 323C976.5 321.5 978.1 316.8 979.1 313.9C980.4 310 983.9 299.4 977.4 293.2C973.3 289.3 966.6 288.6 960.3 290.8C959 290.6 957.3 290 956 288.6C954.3 286.8 954.3 284.7 953.4 281.1C952.8 279.3 952 276.9 950.4 274.1Z" fill="#353535"/>
<path opacity="0.1" d="M964.4 341.7C963.6 350.3 961.5 357.3 959.6 362.4C963.1 361.4 966.7 360.3 970.2 359.3C973.2 367.2 976.1 375.2 979.1 383.1C981.3 382 983.4 380.9 985.6 379.7C983.1 374.1 980.6 367.2 978.6 359.2C976.9 352.4 976 346.1 975.5 340.7C973.8 339 971.8 336.9 970 334.2C966.9 329.7 965.1 325.5 964 322.2C964.6 327.3 965.1 334 964.4 341.7Z" fill="#353535"/>
<path opacity="0.13" d="M1021 216.3C1019.6 216.3 1020.5 230.1 1014.6 246.9C1012.1 254 1007.5 266.6 995.7 277.2C987.3 284.7 978.6 288.4 973.1 290.2C974.6 291.1 977 292.8 978.8 295.7C983.2 302.7 980.4 310.6 979.6 312.9C978.5 316.1 977 320.3 972.8 322.5C968.9 324.5 964.9 323.7 963.5 323.3C963.8 324.2 970.1 340.8 983.2 342.2C988.7 342.8 993.2 340.4 996.6 338.6C1005.5 334 1010 327.1 1015.5 318.6C1022.8 307.3 1027.9 299.3 1028.6 288C1029.1 279.1 1026.4 276.8 1028.3 268.3C1028.9 265.6 1030.5 260.2 1030.2 252.7C1030.1 251.1 1030 249.8 1029.9 248.9C1025.8 253.6 1021.7 258.4 1017.6 263.1C1019 260.4 1020.8 256.2 1022 250.8C1023.3 244.9 1023.1 240.3 1022.8 232.7C1022.7 228.4 1022.3 216.3 1021 216.3Z" fill="#353535"/>
<path d="M1038.63 84.9127C1025.98 92.3978 1022.37 105.303 1020.87 110.62C1020.51 111.911 1016.28 127.758 1023.61 144.277C1025.78 149.181 1028.1 154.24 1033.36 156.666C1036.41 158.112 1039.15 158.008 1049.88 157.079C1054.89 156.666 1060.31 156.15 1066.09 155.531C1070.17 150.317 1077.19 139.889 1079.26 125.229C1079.62 122.493 1083.85 89.8683 1066.09 81.196C1054.48 75.466 1040.49 83.777 1038.63 84.9127Z" fill="#EC615B"/>
<path d="M1032.56 156.954C1026.05 154.322 1022.13 148.024 1019.76 141.726C1017.23 135.17 1016.14 128.046 1016.5 121.026C1017.12 108.069 1022.65 94.9571 1032.87 86.6977C1042.52 78.8513 1056.82 76.6316 1067.56 83.7553C1078.76 91.1888 1080.77 106.52 1080.87 118.858C1080.98 132.589 1077.78 146.991 1067.61 156.851C1066.89 157.522 1067.97 158.658 1068.69 157.935C1078.35 148.54 1082.01 135.118 1082.37 122.007C1082.73 109.153 1081.18 92.8923 1070.6 84.065C1060.69 75.8056 1045.98 76.2186 1035.4 82.9294C1023.68 90.3628 1016.76 103.836 1015.26 117.412C1014.34 125.827 1015.37 134.551 1018.46 142.5C1021.1 149.211 1025.28 155.612 1032.2 158.4C1033.07 158.813 1033.43 157.316 1032.56 156.954Z" fill="#161616"/>
<path d="M1031.83 157.935C1030.08 160.413 1030.44 164.078 1033.02 165.936C1034.98 167.33 1037.87 167.536 1040.2 167.846C1042.98 168.259 1045.82 168.414 1048.66 168.414C1053.72 168.362 1059.5 168.001 1064.2 166.039C1067.61 164.594 1070.19 161.187 1068.38 157.522C1067.97 156.644 1066.63 157.419 1067.04 158.296C1070.91 166.194 1052.59 166.865 1048.61 166.865C1044.95 166.865 1041.28 166.556 1037.72 165.885C1036.02 165.575 1034.11 165.265 1033.02 163.768C1031.94 162.219 1032.14 160.206 1033.18 158.761C1033.74 157.883 1032.4 157.109 1031.83 157.935Z" fill="#161616"/>
<path d="M1033.49 166.298C1033.49 168.879 1033.54 171.511 1033.85 174.092C1034 175.28 1034.26 176.312 1035.24 177.035C1036.64 178.067 1038.96 178.016 1040.61 178.17C1043.4 178.377 1046.24 178.377 1049.02 178.274C1051.66 178.17 1054.29 177.964 1056.92 177.706C1058.47 177.551 1060.23 177.603 1061.41 176.415C1064.05 173.834 1064.1 168.93 1063.43 165.678C1063.22 164.697 1061.72 165.11 1061.93 166.091C1062.29 167.846 1062.39 169.601 1062.03 171.408C1061.52 173.938 1060.79 175.589 1057.96 176.106C1054.65 176.725 1050.93 176.725 1047.58 176.777C1044.28 176.828 1040.56 176.983 1037.31 176.209C1034.31 175.486 1035.09 168.775 1035.09 166.298C1035.04 165.317 1033.49 165.317 1033.49 166.298Z" fill="#161616"/>
<path d="M1034 110.702C1040.2 114.573 1044.89 120.251 1047.53 127.065C1047.89 127.995 1049.39 127.582 1049.02 126.652C1046.24 119.426 1041.33 113.437 1034.83 109.359C1033.95 108.792 1033.18 110.134 1034 110.702Z" fill="#161616"/>
<path d="M1048.77 127.065C1051.81 120.664 1056.25 115.193 1061.93 110.96C1062.7 110.392 1061.93 108.998 1061.16 109.618C1055.27 114.005 1050.62 119.684 1047.42 126.291C1047.01 127.169 1048.35 127.943 1048.77 127.065Z" fill="#161616"/>
<path d="M1047.53 125.259C1048.3 135.893 1048.66 146.527 1048.51 157.161C1048.51 158.141 1050.06 158.141 1050.06 157.161C1050.21 146.527 1049.85 135.841 1049.08 125.259C1048.97 124.226 1047.42 124.226 1047.53 125.259Z" fill="#161616"/>
<path d="M987.079 151.276C993.945 148.953 1000.76 146.63 1007.62 144.307C1008.55 143.997 1008.14 142.5 1007.21 142.81C1000.35 145.133 993.532 147.456 986.666 149.779C985.685 150.088 986.098 151.586 987.079 151.276Z" fill="#161616"/>
<path d="M994.925 140.952C997.3 140.28 999.675 139.558 1002.05 138.887C1002.98 138.629 1002.62 137.132 1001.64 137.39C999.262 138.061 996.887 138.783 994.512 139.454C993.583 139.764 993.945 141.261 994.925 140.952Z" fill="#161616"/>
<path d="M977.736 123.762C986.821 123.658 995.855 123.917 1004.89 124.484C1005.87 124.536 1005.87 122.987 1004.89 122.936C995.855 122.368 986.769 122.161 977.736 122.213C976.755 122.213 976.755 123.762 977.736 123.762Z" fill="#161616"/>
<path d="M996.938 116.741C999.107 117.309 1001.33 117.567 1003.55 117.619C1004.53 117.619 1004.53 116.07 1003.55 116.07C1001.43 116.018 999.365 115.76 997.351 115.244C996.371 114.986 995.958 116.483 996.938 116.741Z" fill="#161616"/>
<path d="M993.583 68.6819C1001.69 75.6508 1009.07 83.2907 1015.73 91.6534C1016.35 92.4277 1017.43 91.3436 1016.81 90.5693C1010.15 82.2067 1002.77 74.5151 994.667 67.5979C993.945 66.9268 992.809 68.0109 993.583 68.6819Z" fill="#161616"/>
<path d="M1016.25 83.3423C1017.64 84.7877 1018.98 86.2331 1020.37 87.7301C1021.05 88.4528 1022.13 87.3687 1021.46 86.646C1020.07 85.2006 1018.72 83.7552 1017.33 82.2582C1016.66 81.5355 1015.57 82.6196 1016.25 83.3423Z" fill="#161616"/>
<path d="M984.808 86.233C987.337 87.7301 989.918 89.1238 992.551 90.4144C993.428 90.8789 994.203 89.5368 993.325 89.0722C990.692 87.7301 988.111 86.3363 985.582 84.8909C984.704 84.3747 983.93 85.7168 984.808 86.233Z" fill="#161616"/>
<path d="M1074.63 74.4634C1082.27 66.8235 1089.91 59.1835 1097.55 51.5436C1098.27 50.8209 1097.14 49.7368 1096.46 50.4595C1088.82 58.0995 1081.18 65.7394 1073.54 73.3794C1072.82 74.102 1073.91 75.1861 1074.63 74.4634Z" fill="#161616"/>
<path d="M1082.32 78.0253C1084.28 76.5799 1086.24 75.1861 1088.2 73.7407C1088.98 73.1729 1088.26 71.8307 1087.43 72.3985C1085.47 73.8439 1083.51 75.2377 1081.55 76.6831C1080.72 77.2509 1081.49 78.5931 1082.32 78.0253Z" fill="#161616"/>
<path d="M1050.78 64.3457C1052.33 56.8606 1053.52 49.3239 1054.24 41.7356C1054.34 40.7548 1052.79 40.7548 1052.69 41.7356C1051.97 49.1691 1050.83 56.6025 1049.28 63.9327C1049.08 64.9135 1050.57 65.3265 1050.78 64.3457Z" fill="#161616"/>
<path d="M1094.19 111.837C1108.23 110.547 1122.22 109.256 1136.26 107.966C1137.24 107.862 1137.24 106.314 1136.26 106.417C1122.22 107.708 1108.23 108.998 1094.19 110.289C1093.21 110.34 1093.16 111.889 1094.19 111.837Z" fill="#161616"/>
<path d="M1035.19 159.793C1043.91 161.703 1052.79 161.652 1061.47 159.69C1062.45 159.483 1062.03 157.986 1061.05 158.193C1052.64 160.103 1044.02 160.155 1035.6 158.296C1034.62 158.09 1034.21 159.587 1035.19 159.793Z" fill="#161616"/>
<path d="M1036.48 172.905C1043.14 173.783 1049.8 173.989 1056.51 173.525C1057.49 173.473 1057.49 171.924 1056.51 171.976C1049.8 172.441 1043.14 172.234 1036.48 171.357C1035.5 171.253 1035.5 172.802 1036.48 172.905Z" fill="#161616"/>
<path d="M1084.44 154.58C1094.92 161.961 1105.6 169.085 1116.44 175.951C1117.27 176.467 1118.04 175.125 1117.22 174.609C1106.38 167.743 1095.69 160.619 1085.21 153.237C1084.38 152.67 1083.61 154.012 1084.44 154.58Z" fill="#161616"/>
<path d="M486.597 886.7C489.397 889.3 492.097 892 494.897 894.6C490.097 913.1 485.297 931.6 480.497 950.1C476.697 948.2 472.797 946.4 468.997 944.5C474.797 925.2 480.697 905.9 486.597 886.7Z" fill="#161616" stroke="#161616" stroke-width="3" stroke-miterlimit="10"/>
<path d="M481.097 878C483.897 877.2 486.597 876.4 489.397 875.6C489.897 866 490.497 856.4 490.997 846.8C474.697 840.9 458.297 835 441.997 829C440.597 829.4 439.097 829.8 437.697 830.2C452.097 846.1 466.597 862.1 481.097 878Z" fill="#161616" stroke="#161616" stroke-width="3" stroke-miterlimit="10"/>
<path d="M481.597 846.8C481.197 857.4 480.697 867.9 480.297 878.5C466.397 874.5 452.597 870.6 438.697 866.6C438.497 854.7 438.297 842.9 437.997 831C452.597 836.3 467.097 841.5 481.597 846.8Z" fill="white" stroke="#161616" stroke-width="3" stroke-miterlimit="10"/>
<path d="M486.197 886.4C468.997 882 451.897 877.6 434.697 873.2C435.297 878.3 435.597 884.1 435.397 890.4C434.697 907 430.297 920.6 426.197 930C440.497 934.8 454.797 939.7 469.097 944.5C474.797 925.1 480.497 905.8 486.197 886.4Z" fill="white" stroke="#161616" stroke-width="3" stroke-miterlimit="10"/>
<path d="M468.497 874.9C468.597 876.7 468.297 878.5 467.597 880.2C466.897 882 463.997 881.2 464.697 879.4C465.297 877.9 465.497 876.4 465.497 874.9C465.397 873 468.397 873 468.497 874.9Z" fill="#161616"/>
<path d="M459.297 873.3C459.497 874.9 459.197 876.5 458.597 877.9C458.297 878.6 457.597 879.2 456.797 878.9C456.097 878.7 455.397 877.8 455.797 877.1C456.297 875.8 456.497 874.6 456.397 873.3C456.297 872.5 457.097 871.8 457.897 871.8C458.697 871.8 459.297 872.5 459.297 873.3Z" fill="#161616"/>
<path d="M471.997 946.9C469.897 956.7 460.497 965.6 452.797 971.6C444.297 978.2 434.297 982.1 423.697 983.3C421.797 983.5 421.797 980.5 423.697 980.3C433.997 979.1 443.897 975.1 451.997 968.4C458.797 962.8 467.197 954.8 469.097 946.1C469.497 944.2 472.397 945 471.997 946.9Z" fill="#161616"/>
<path d="M464.997 944.3C455.197 959.2 442.197 973 423.797 976C421.897 976.3 421.097 973.4 422.997 973.1C440.697 970.2 452.997 957.1 462.497 942.8C463.497 941.1 466.097 942.6 464.997 944.3Z" fill="#161616"/>
<path d="M422.197 974.2C421.497 971.1 420.497 968.1 418.997 965.2C418.397 964.1 417.497 963 417.097 961.9C417.997 960.1 418.297 960.2 417.797 962.1C417.597 963.1 417.497 964.1 417.397 965.2C417.197 968 417.397 970.7 417.697 973.5C417.797 974.7 417.697 978.8 418.497 979.7C419.297 980.6 421.097 980.5 422.097 980.6C423.997 980.7 423.997 983.7 422.097 983.6C420.097 983.5 417.997 984.4 416.397 982.7C414.797 980.9 415.097 977.4 414.797 975.2C414.297 971.4 414.097 967.5 414.497 963.6C414.697 961.8 414.597 959.3 416.297 958.4C416.697 958.2 417.397 958.1 417.797 958.4C421.897 961.6 423.997 968.8 425.097 973.5C425.597 975.3 422.697 976.1 422.197 974.2Z" fill="#161616"/>
<path d="M441.897 936.3C432.597 947.6 418.197 953 403.797 951.1C401.897 950.8 402.697 948 404.597 948.2C417.997 950 431.297 944.6 439.797 934.2C440.997 932.7 443.097 934.8 441.897 936.3Z" fill="#161616"/>
<path d="M449.897 940.1C438.697 952.2 422.797 958.9 406.297 958.4C404.397 958.3 404.397 955.3 406.297 955.4C422.097 955.9 437.097 949.6 447.797 938C448.997 936.5 451.197 938.7 449.897 940.1Z" fill="#161616"/>
<path d="M401.597 949.2C401.097 947.3 400.497 945.4 399.797 943.6C399.597 943 397.797 937.3 397.097 937.3C397.597 936.9 398.097 936.6 398.497 936.2C397.497 939.2 398.197 943.4 398.497 946.4C398.897 950.1 399.697 953.7 400.697 957.3C401.197 959.2 398.297 960 397.797 958.1C396.697 954.3 395.897 950.4 395.497 946.4C395.197 943.1 394.497 938.6 395.597 935.4C395.797 934.8 396.397 934.3 396.997 934.3C401.497 934.6 403.497 945 404.397 948.4C404.997 950.3 402.097 951.1 401.597 949.2Z" fill="#161616"/>
<path d="M407.397 958.2C404.997 959.2 402.497 959.6 399.897 959.1C397.997 958.8 398.797 955.9 400.697 956.2C402.397 956.5 404.197 956.3 405.897 955.6C407.597 954.8 409.197 957.4 407.397 958.2Z" fill="#161616"/>
<path d="M462.097 959.2C461.697 956.8 459.597 955.3 457.197 955.6C455.297 955.8 455.297 952.8 457.197 952.6C460.797 952.2 464.397 954.8 464.997 958.4C465.397 960.3 462.497 961.1 462.097 959.2Z" fill="#161616"/>
<path d="M453.297 968.1C452.897 966.1 451.397 964.7 449.497 964.3C447.597 963.9 448.397 961 450.297 961.4C453.197 962 455.597 964.3 456.197 967.2C456.597 969.2 453.797 970 453.297 968.1Z" fill="#161616"/>
<path d="M443.997 975.2C443.297 973.1 441.597 971.6 439.397 971.2C437.497 970.8 438.297 967.9 440.197 968.3C443.397 968.9 445.897 971.3 446.897 974.4C447.497 976.2 444.597 977 443.997 975.2Z" fill="#161616"/>
<path d="M434.197 971.7C436.497 973.3 437.597 975.9 437.097 978.7C436.797 980.6 433.897 979.8 434.197 977.9C434.397 976.5 433.797 975.1 432.697 974.3C431.097 973.2 432.597 970.6 434.197 971.7Z" fill="#161616"/>
<path d="M418.697 963.1C420.597 968.2 419.597 974.8 419.597 980.2C419.597 982.1 416.597 982.1 416.597 980.2C416.597 975.1 417.597 968.7 415.797 963.9C415.197 962.1 418.097 961.3 418.697 963.1Z" fill="#161616"/>
<path d="M434.797 948.1C434.797 946.5 433.797 945.1 432.197 944.7C430.297 944.2 431.097 941.3 432.997 941.8C435.797 942.5 437.797 945.2 437.797 948.1C437.797 950 434.797 950 434.797 948.1Z" fill="#161616"/>
<path d="M442.897 942.8C442.097 941.2 440.597 940.2 438.797 939.9C437.997 939.8 437.597 938.8 437.797 938.1C437.997 937.2 438.797 936.9 439.597 937.1C442.097 937.5 444.297 939.1 445.497 941.4C446.297 943 443.697 944.5 442.897 942.8Z" fill="#161616"/>
<path d="M418.697 954C418.697 953.2 418.297 952.5 417.497 952.1C415.797 951.2 417.297 948.6 418.997 949.5C420.697 950.4 421.697 952.2 421.597 954C421.697 955.9 418.697 955.9 418.697 954Z" fill="#161616"/>
<path d="M474.297 860.1C472.297 860.1 470.297 860.1 468.297 860.1C466.397 860.1 466.397 857.1 468.297 857.1C470.297 857.1 472.297 857.1 474.297 857.1C476.197 857.1 476.197 860.1 474.297 860.1Z" fill="#161616"/>
<path d="M450.397 853.7C448.897 852.2 447.397 850.7 445.897 849.2C444.497 847.8 446.697 845.7 447.997 847.1C449.497 848.6 450.997 850.1 452.497 851.6C453.797 852.9 451.697 855 450.397 853.7Z" fill="#161616"/>
<path d="M461.697 864.5C458.897 865.4 455.897 864.1 454.397 861.7C453.397 860 455.997 858.5 456.997 860.2C457.797 861.6 459.397 862.1 460.897 861.7C462.797 861.1 463.497 864 461.697 864.5Z" fill="#161616"/>
<path d="M441.297 895.7C446.497 897.2 451.697 898.7 456.897 900.2C457.597 898.8 458.497 896.8 458.897 894.2C459.397 891.3 459.197 888.9 458.897 887.3C453.297 886.2 447.697 885.1 442.097 884C442.597 885.5 443.097 888.1 442.597 891.2C442.297 893.1 441.797 894.6 441.297 895.7Z" fill="#EC615B"/>
<path opacity="0.24" d="M471.197 843.5C470.897 853.5 470.497 863.6 470.197 873.6C459.897 870.9 449.597 868.3 439.297 865.6C439.197 854.6 439.097 843.7 439.097 832.7C449.697 836.4 460.497 839.9 471.197 843.5Z" fill="#666666"/>
<path opacity="0.24" d="M471.197 884.6C469.797 891.4 467.997 898.6 465.997 906C462.697 917.9 458.897 928.8 454.997 938.6C445.997 935.5 437.097 932.5 428.097 929.4C430.297 924.7 432.397 919.1 434.097 912.7C437.997 897.5 437.497 884.2 436.297 875.1C447.897 878.3 459.497 881.5 471.197 884.6Z" fill="#666666"/>
<path d="M467.9 289.8C478.89 289.8 487.8 280.443 487.8 268.9C487.8 257.357 478.89 248 467.9 248C456.91 248 448 257.357 448 268.9C448 280.443 456.91 289.8 467.9 289.8Z" fill="#5222D0"/>
<path d="M722.9 109.8C733.89 109.8 742.8 100.443 742.8 88.9C742.8 77.3572 733.89 68 722.9 68C711.91 68 703 77.3572 703 88.9C703 100.443 711.91 109.8 722.9 109.8Z" fill="#5222D0"/>
<path d="M473.6 120C486.082 120 496.2 108.807 496.2 95C496.2 81.1929 486.082 70 473.6 70C461.118 70 451 81.1929 451 95C451 108.807 461.118 120 473.6 120Z" fill="#EC615B"/>
<path d="M1109.56 303.877C1107.86 301.862 1105.09 303.762 1103.93 305.144C1101.54 308.022 1099.99 311.592 1101.77 314.873C1103.08 317.349 1106.32 319.421 1110.1 319.018C1113.57 318.673 1116.19 316.543 1116.12 313.952C1116.12 313.261 1114.81 312.743 1114.11 313.319C1110.02 317.176 1105.01 322.645 1109.1 327.596C1111.95 330.993 1118.97 331.453 1121.75 327.769C1121.05 327.711 1120.36 327.654 1119.67 327.539C1120.05 329.151 1120.44 330.763 1120.75 332.375C1120.98 333.468 1123.21 333.008 1122.98 331.914C1122.6 330.302 1122.21 328.69 1121.9 327.078C1121.75 326.33 1120.21 326.272 1119.82 326.848C1118.59 328.46 1115.81 329.036 1113.57 328.23C1111.1 327.308 1110.02 325.236 1110.02 323.221C1110.02 319.882 1113.19 316.946 1115.81 314.47C1115.11 314.24 1114.5 314.067 1113.8 313.837C1113.88 316.025 1111.03 317.637 1108.17 317.176C1106.01 316.831 1104.62 315.449 1103.85 313.952C1103.08 312.398 1103.16 310.843 1103.77 309.289C1103.85 309.174 1107.01 304.05 1107.48 304.626C1108.33 305.662 1110.33 304.799 1109.56 303.877Z" fill="#5222D0"/>
<path d="M458.989 267.172C455.188 265.548 454.107 270.31 454.241 273.137C454.539 279.013 456.425 285.249 461.561 288.625C465.407 291.192 470.91 291.76 474.539 288.394C477.897 285.339 478.585 280.361 475.941 276.719C475.258 275.733 473.348 275.961 473.177 277.295C472.635 285.821 472.701 297.331 481.954 301.384C488.355 304.127 496.292 299.603 495.607 292.292C494.81 292.723 494.013 293.153 493.16 293.501C495.165 295.518 497.17 297.535 499.093 299.609C500.422 301 502.35 298.691 501.022 297.3C499.017 295.283 497.011 293.266 495.088 291.192C494.184 290.237 492.483 291.294 492.641 292.4C492.92 295.613 490.53 298.485 487.349 298.985C483.807 299.492 480.606 297.33 478.613 294.453C475.311 289.684 475.778 283.157 476.124 277.687C475.157 277.87 474.328 278.079 473.361 278.263C475.607 281.33 474.159 285.738 470.662 287.187C468.019 288.288 465.172 287.34 462.87 285.772C460.51 284.122 459.055 281.845 458.176 279.17C458.144 278.949 456.447 269.298 457.51 269.778C459.439 270.632 460.722 267.918 458.989 267.172Z" fill="#EC615B"/>
<path d="M436.298 521.596C441.136 517.421 446.253 523.24 446.222 528.029C446.241 529.641 445.814 531.234 445.211 532.729C444.103 535.546 443.258 536.449 440.111 536.759C436.303 537.846 436.226 536.544 439.966 532.903C440.724 532.981 441.569 533.107 442.326 533.185C444.23 533.671 446.104 534.828 447.473 536.275C450.891 540.006 450.511 545.63 447.615 549.397C446.857 550.349 447.323 551.981 448.712 551.952C456.191 551.876 461.716 559.638 459.48 566.748C458.906 568.603 461.83 569.312 462.403 567.457C465.213 558.493 458.018 549.002 448.616 549.038C448.936 549.903 449.392 550.728 449.713 551.593C455.125 544.533 453.253 534.111 444.444 530.816C441.404 529.698 436.237 529.114 434.041 532.241C432.273 534.805 433.69 538.224 436.079 539.895C443.207 544.773 449.106 533.75 449.088 528.02C449.07 520.23 440.719 513.642 434.016 519.527C432.665 520.721 434.811 522.829 436.298 521.596Z" fill="#EC615B"/>
<path d="M739.8 89.4C749.078 89.4 756.6 82.147 756.6 73.2C756.6 64.253 749.078 57 739.8 57C730.522 57 723 64.253 723 73.2C723 82.147 730.522 89.4 739.8 89.4Z" fill="#EC615B"/>
<path d="M802.216 109.896C805.616 108.196 809.616 106.096 813.516 106.996C819.316 108.196 819.516 112.896 819.916 117.696C820.316 124.096 820.016 130.896 815.816 136.096C814.616 137.596 816.716 139.696 817.916 138.196C823.716 131.096 824.416 119.996 822.216 111.296C819.416 100.796 808.016 103.696 800.816 107.296C799.016 108.096 800.516 110.696 802.216 109.896Z" fill="#161616"/>
<path d="M1086 289.058C1080.6 290.658 1076.8 295.258 1076.1 300.958C1075.4 306.358 1078.6 313.058 1084.6 313.658C1089 314.058 1093.4 309.058 1090.7 304.958C1087.8 300.458 1082.2 303.758 1079.9 306.958C1073.4 316.258 1079.2 334.458 1092.6 330.158C1096.3 328.958 1100.9 324.458 1098.8 320.158C1096.2 314.858 1090.4 320.558 1088.9 323.558C1085.8 329.758 1085 338.658 1091.4 343.058C1096.4 346.458 1103.3 344.258 1104.9 338.358C1105.3 337.058 1103.4 335.658 1102.4 336.858C1095.5 345.558 1100.8 357.558 1112 357.958C1113.9 358.058 1113.9 355.058 1112 354.958C1103.6 354.658 1099.2 345.658 1104.5 339.058C1103.7 338.558 1102.8 338.058 1102 337.558C1100.5 343.258 1093.5 342.358 1090.8 338.158C1088.4 334.258 1089.2 328.958 1091.4 325.058C1091.9 324.058 1094.6 319.358 1096.2 322.358C1097 323.958 1094 326.258 1093 326.858C1089.9 328.558 1085.8 328.058 1083.4 325.458C1080.9 322.858 1080.1 318.858 1080.4 315.358C1080.6 313.458 1081 311.258 1081.9 309.658C1082.3 309.058 1082.8 308.458 1083.2 307.858C1085.7 305.458 1085.6 306.158 1082.8 310.058C1080.8 310.258 1079.1 304.758 1079 303.458C1078.9 302.158 1079.1 300.858 1079.4 299.658C1080.4 295.958 1083.1 293.158 1086.8 292.058C1088.7 291.458 1087.9 288.558 1086 289.058Z" fill="#EC615B"/>
<path d="M1086 289.058C1080.6 290.658 1076.8 295.258 1076.1 300.958C1075.4 306.358 1078.6 313.058 1084.6 313.658C1089 314.058 1093.4 309.058 1090.7 304.958C1087.8 300.458 1082.2 303.758 1079.9 306.958C1073.4 316.258 1079.2 334.458 1092.6 330.158C1096.3 328.958 1100.9 324.458 1098.8 320.158C1096.2 314.858 1090.4 320.558 1088.9 323.558C1085.8 329.758 1085 338.658 1091.4 343.058C1096.4 346.458 1103.3 344.258 1104.9 338.358C1105.3 337.058 1103.4 335.658 1102.4 336.858C1095.5 345.558 1100.8 357.558 1112 357.958C1113.9 358.058 1113.9 355.058 1112 354.958C1103.6 354.658 1099.2 345.658 1104.5 339.058C1103.7 338.558 1102.8 338.058 1102 337.558C1100.5 343.258 1093.5 342.358 1090.8 338.158C1088.4 334.258 1089.2 328.958 1091.4 325.058C1091.9 324.058 1094.6 319.358 1096.2 322.358C1097 323.958 1094 326.258 1093 326.858C1089.9 328.558 1085.8 328.058 1083.4 325.458C1080.9 322.858 1080.1 318.858 1080.4 315.358C1080.6 313.458 1081 311.258 1081.9 309.658C1082.3 309.058 1082.8 308.458 1083.2 307.858C1085.7 305.458 1085.6 306.158 1082.8 310.058C1080.8 310.258 1079.1 304.758 1079 303.458C1078.9 302.158 1079.1 300.858 1079.4 299.658C1080.4 295.958 1083.1 293.158 1086.8 292.058C1088.7 291.458 1087.9 288.558 1086 289.058Z" fill="#EC615B"/>
<path d="M362.64 152.972C357.013 153.208 352.207 156.745 350.14 162.102C348.146 167.169 349.618 174.447 355.292 176.49C359.462 177.95 364.947 174.172 363.327 169.538C361.61 164.467 355.375 166.304 352.365 168.847C343.796 176.284 344.989 195.349 359.033 194.442C362.913 194.179 368.471 190.934 367.481 186.253C366.25 180.479 359.237 184.595 357.051 187.139C352.535 192.398 349.591 200.835 354.727 206.661C358.749 211.176 365.977 210.723 368.965 205.39C369.67 204.227 368.168 202.406 366.906 203.326C358.095 210.084 360.313 223.014 371.078 226.129C372.897 226.689 373.628 223.779 371.809 223.219C363.735 220.883 361.659 211.082 368.407 205.972C367.753 205.292 367.002 204.588 366.347 203.908C363.505 209.071 356.935 206.493 355.339 201.762C353.961 197.395 356.027 192.45 359.111 189.203C359.839 188.355 363.602 184.454 364.424 187.753C364.81 189.5 361.34 191 360.224 191.338C356.804 192.232 352.949 190.749 351.254 187.643C349.463 184.512 349.661 180.438 350.804 177.116C351.461 175.322 352.384 173.286 353.647 171.953C354.181 171.469 354.812 171.008 355.346 170.524C358.355 168.805 358.088 169.459 354.423 172.56C352.434 172.267 352.125 166.519 352.344 165.233C352.564 163.948 353.074 162.736 353.658 161.645C355.528 158.3 358.829 156.242 362.686 156.076C364.674 155.957 364.605 152.949 362.64 152.972Z" fill="#EC615B"/>
<path d="M578.246 57.2578C578.753 62.867 582.516 67.4972 587.968 69.3041C593.125 71.052 600.323 69.2316 602.091 63.4666C603.348 59.2311 599.311 53.9341 594.76 55.7754C589.777 57.7341 591.912 63.8735 594.598 66.7577C602.438 74.9592 621.423 72.8503 619.842 58.8665C619.392 55.0028 615.884 49.6078 611.256 50.8215C605.548 52.3289 609.996 59.1363 612.643 61.1968C618.113 65.4551 626.682 67.9892 632.254 62.5791C636.57 58.345 635.77 51.1472 630.3 48.4185C629.104 47.7708 627.357 49.3585 628.337 50.5748C635.511 59.0505 648.319 56.2131 650.913 45.3103C651.384 43.467 648.443 42.8772 647.971 44.7205C646.026 52.8976 636.337 55.4424 630.907 48.9484C630.26 49.6344 629.593 50.4186 628.945 51.1047C634.239 53.696 631.98 60.3824 627.332 62.204C623.036 63.7905 617.997 61.9642 614.605 59.0404C613.723 58.3536 609.645 54.7824 612.901 53.8034C614.627 53.3335 616.293 56.7271 616.685 57.8255C617.742 61.1992 616.446 65.1209 613.425 66.9629C610.384 68.903 606.305 68.9011 602.932 67.9188C601.108 67.3492 599.03 66.5245 597.638 65.3276C597.128 64.8174 596.638 64.2093 596.129 63.6991C594.267 60.7761 594.934 61.0117 598.207 64.5237C598.01 66.524 592.283 67.1096 590.989 66.9521C589.695 66.7946 588.459 66.3429 587.342 65.8129C583.911 64.105 581.696 60.9072 581.345 57.0632C581.13 55.0823 578.129 55.2966 578.246 57.2578Z" fill="#5222D0"/>
<path d="M749.23 261.72C744.878 265.294 743.166 271.01 744.738 276.534C746.194 281.781 751.748 286.708 757.509 284.928C761.718 283.585 763.827 277.267 759.745 274.54C755.323 271.522 751.447 276.74 750.573 280.583C748.202 291.679 760.624 306.19 771.297 297.017C774.238 294.472 776.726 288.537 773.119 285.393C768.662 281.521 765.536 289.028 765.321 292.375C764.876 299.293 767.601 307.803 775.209 309.368C781.137 310.555 786.638 305.845 785.817 299.787C785.68 298.434 783.385 297.883 782.931 299.377C779.958 310.076 789.508 319.07 799.982 315.082C801.771 314.435 800.604 311.671 798.815 312.318C790.96 315.309 783.406 308.729 785.721 300.587C784.79 300.438 783.766 300.327 782.835 300.178C783.67 306.012 776.871 307.906 772.75 305.087C769.022 302.427 767.698 297.234 768.207 292.785C768.279 291.669 768.938 286.289 771.579 288.431C772.939 289.594 771.069 292.879 770.382 293.821C768.187 296.593 764.215 297.727 760.993 296.265C757.679 294.842 755.386 291.468 754.301 288.127C753.746 286.299 753.259 284.117 753.466 282.293C753.601 281.584 753.828 280.837 753.963 280.129C755.333 276.945 755.513 277.629 754.45 282.311C752.686 283.273 748.98 278.868 748.383 277.709C747.785 276.55 747.463 275.275 747.273 274.052C746.755 270.255 748.154 266.625 751.134 264.173C752.651 262.881 750.786 260.52 749.23 261.72Z" fill="#5222D0"/>
<path d="M409.608 520.105C404.096 521.259 399.933 525.533 398.77 531.157C397.632 536.482 400.275 543.421 406.206 544.508C410.558 545.266 415.352 540.642 412.995 536.335C410.472 531.613 404.622 534.446 402.068 537.447C394.831 546.186 399.127 564.798 412.833 561.606C416.618 560.712 421.57 556.602 419.828 552.145C417.669 546.651 411.423 551.859 409.684 554.726C406.088 560.653 404.565 569.458 410.584 574.365C415.29 578.162 422.347 576.532 424.423 570.782C424.927 569.519 423.148 567.969 422.053 569.083C414.467 577.191 418.77 589.584 429.9 590.896C431.785 591.151 432.03 588.161 430.144 587.906C421.797 586.922 418.146 577.593 423.967 571.447C423.21 570.884 422.354 570.312 421.598 569.748C419.637 575.307 412.734 573.839 410.386 569.433C408.312 565.35 409.542 560.133 412.053 556.425C412.633 555.469 415.707 551.005 417.057 554.126C417.724 555.786 414.546 557.833 413.501 558.35C410.272 559.791 406.227 558.958 404.047 556.171C401.767 553.376 401.297 549.324 401.881 545.86C402.235 543.983 402.814 541.823 403.841 540.301C404.289 539.736 404.836 539.179 405.284 538.613C407.971 536.425 407.814 537.115 404.706 540.773C402.696 540.81 401.45 535.189 401.457 533.885C401.463 532.582 401.769 531.302 402.166 530.131C403.464 526.525 406.384 523.954 410.161 523.16C412.104 522.717 411.543 519.761 409.608 520.105Z" fill="#5222D0"/>
<path d="M610.633 283.921L602.362 288.625L680.303 425.652L688.574 420.948C693.142 418.349 694.739 412.54 692.141 407.972L623.609 287.487C621.011 282.919 615.202 281.322 610.633 283.921Z" fill="#404242"/>
<path d="M602.362 288.625L536.192 326.262C531.623 328.861 530.027 334.67 532.625 339.238L601.157 459.723C603.755 464.291 609.564 465.888 614.133 463.289L680.302 425.652C684.871 423.054 686.468 417.245 683.869 412.676L674.46 396.134L620.085 358.277L615.338 292.192C612.739 287.623 606.93 286.027 602.362 288.625Z" fill="#565959"/>
<path d="M650.216 420.871L641.944 425.576L646.649 433.847L654.92 429.143C657.204 427.844 658.003 424.939 656.704 422.655C655.404 420.371 652.5 419.572 650.216 420.871Z" fill="#8F8F8B"/>
<path d="M648.432 427.359C647.133 425.075 644.228 424.277 641.944 425.576L633.673 430.281C631.389 431.58 630.59 434.485 631.889 436.769C633.189 439.053 636.093 439.851 638.377 438.552L646.649 433.847C648.933 432.548 649.731 429.643 648.432 427.359Z" fill="#ADACA7"/>
<path d="M607.678 365.334L666.188 400.838L674.459 396.134L615.337 292.192L607.066 296.896L607.678 365.334Z" fill="#4B88D5"/>
<path d="M589.814 306.709L587.292 315.885C586.64 318.236 585.101 320.338 582.822 321.634C580.543 322.93 577.949 323.179 575.601 322.535C575.595 322.538 566.42 320.016 566.42 320.016L540.896 334.534L600.018 438.476L666.188 400.838L607.066 296.896L589.814 306.709Z" fill="#8FACFF"/>
<path d="M579.058 315.017C579.971 314.497 580.291 313.335 579.771 312.422C579.251 311.508 578.09 311.189 577.176 311.708C576.262 312.228 575.943 313.39 576.463 314.304C576.982 315.217 578.144 315.537 579.058 315.017Z" fill="black"/>
<path d="M609.457 281.853L535.016 324.195C529.314 327.437 527.315 334.714 530.557 340.415L599.089 460.899C602.331 466.6 609.607 468.6 615.309 465.357L689.75 423.015C695.451 419.773 697.451 412.496 694.208 406.795L625.677 286.311C622.434 280.61 615.158 278.61 609.457 281.853ZM690.072 409.148C692.018 412.568 690.818 416.934 687.397 418.88L612.956 461.222C609.536 463.167 605.17 461.967 603.224 458.547L534.693 338.062C532.747 334.642 533.947 330.276 537.368 328.33L611.809 285.988C615.23 284.043 619.595 285.243 621.541 288.663L690.072 409.148Z" fill="black"/>
<path d="M649.039 418.803L632.496 428.213C629.076 430.158 627.876 434.524 629.821 437.945C631.767 441.365 636.133 442.565 639.553 440.62L656.096 431.21C659.516 429.265 660.717 424.899 658.771 421.478C656.825 418.058 652.459 416.858 649.039 418.803ZM653.744 427.075L637.201 436.484C636.061 437.133 634.606 436.733 633.957 435.592C633.308 434.452 633.708 432.997 634.849 432.348L651.391 422.939C652.532 422.291 653.987 422.69 654.635 423.831C655.284 424.971 654.884 426.426 653.744 427.075Z" fill="black"/>
<path d="M614.161 290.124L588.638 304.642C588.09 304.954 587.688 305.471 587.52 306.079L585 315.249C584.488 317.094 583.297 318.627 581.645 319.566C579.993 320.506 578.07 320.746 576.23 320.241C576.214 320.237 570.541 318.682 567.05 317.722C566.442 317.555 565.792 317.637 565.244 317.949L539.72 332.466C538.578 333.116 538.179 334.568 538.829 335.71L566.037 383.546C566.687 384.687 568.139 385.087 569.281 384.437C570.423 383.787 570.822 382.335 570.173 381.193L544.14 335.426L566.74 322.571C566.74 322.571 574.61 324.732 574.976 324.813L574.971 324.829C578.036 325.67 581.241 325.27 583.998 323.702C586.75 322.136 588.734 319.586 589.586 316.515L591.847 308.29L614.446 295.436L671.216 395.242L600.91 435.232L574.877 389.464C574.228 388.322 572.776 387.923 571.633 388.573C570.491 389.222 570.092 390.675 570.742 391.817L597.95 439.652C598.6 440.794 600.052 441.193 601.194 440.544L675.636 398.202C676.778 397.552 677.177 396.1 676.527 394.958L617.405 291.016C616.756 289.874 615.304 289.474 614.161 290.124Z" fill="black"/>
<path d="M402.767 387.314C400.667 385.414 403.167 381.614 405.567 383.714C408.067 385.814 404.667 388.714 402.367 387.014C400.867 385.814 399.367 388.414 400.867 389.614C402.967 391.214 406.167 390.714 408.067 388.814C410.267 386.614 409.767 383.214 407.467 381.314C405.167 379.414 401.867 379.514 400.067 382.014C398.467 384.214 398.667 387.414 400.667 389.314C402.067 390.714 404.267 388.614 402.767 387.314Z" fill="#161616"/>
<path d="M380.2 405.6C384.176 405.6 387.4 402.108 387.4 397.8C387.4 393.492 384.176 390 380.2 390C376.224 390 373 393.492 373 397.8C373 402.108 376.224 405.6 380.2 405.6Z" fill="#5222D0"/>
<path d="M360.905 491.521C360.905 476.001 360.905 460.481 360.905 444.961C360.905 441.476 361.034 425.414 362.148 427.451C371.178 443.966 375.67 463.331 383.286 479.582" stroke="#5222D0" stroke-width="3" stroke-linecap="round" stroke-linejoin="round"/>
<path d="M343 465.256C355.431 465.256 369.74 467.298 381.918 463.93C386.353 462.703 389.837 460.481 394.477 460.481" stroke="#5222D0" stroke-width="3" stroke-linecap="round" stroke-linejoin="round"/>
<path d="M390 448.542C391.851 457.534 396.356 469.458 401.191 477.195" stroke="#5222D0" stroke-width="3" stroke-linecap="round" stroke-linejoin="round"/>
<path d="M394.477 465.256C394.477 455.863 392.135 450.93 401.191 450.93C404.803 450.93 407.254 450.658 409.646 453.848C413.418 458.878 416.357 466.575 419.096 472.419" stroke="#5222D0" stroke-width="3" stroke-linecap="round" stroke-linejoin="round"/>
<path d="M417.115 411.044C419.02 421.464 425.262 430.146 427.355 440.196C428.869 447.463 434.596 454.272 437.493 460.454" stroke="#5222D0" stroke-width="3" stroke-linecap="round" stroke-linejoin="round"/>
<path d="M476.622 384C478.528 394.42 484.769 403.102 486.862 413.152C488.376 420.419 494.103 427.228 497 433.409" stroke="#5222D0" stroke-width="3" stroke-linecap="round" stroke-linejoin="round"/>
<path d="M427.304 442.666C422.028 442.666 415.262 443.587 415.262 451.066C415.262 458.177 417.911 459.415 420.82 464.845C423.116 469.132 427.832 469.605 431.935 469.347C436.021 469.091 436.133 462.367 437.493 459.465" stroke="#5222D0" stroke-width="3" stroke-linecap="round" stroke-linejoin="round"/>
<path d="M486 415.256C480.724 415.256 473.958 416.177 473.958 423.655C473.958 430.767 476.607 432.005 479.516 437.435C481.812 441.722 486.528 442.194 490.631 441.937C494.717 441.681 494.829 434.957 496.189 432.055" stroke="#5222D0" stroke-width="3" stroke-linecap="round" stroke-linejoin="round"/>
<path d="M433.788 437.725C437.362 446.923 441.819 454.861 445.83 463.418" stroke="#5222D0" stroke-width="3" stroke-linecap="round" stroke-linejoin="round"/>
<path d="M439.345 451.56C439.345 447.936 439.537 445.453 440.22 442.172C440.655 440.084 442.124 438.965 442.124 436.737" stroke="#5222D0" stroke-width="3" stroke-linecap="round" stroke-linejoin="round"/>
<path d="M447.682 432.784C447.682 436.568 446.831 441.994 449.123 445.137C450.778 447.407 452.857 452.643 455.607 453.481C462.216 455.496 470.065 455.007 468.009 445.137C467.059 440.58 463.969 432.853 459.724 430.588C453.786 427.421 446.756 427.281 446.756 435.749" stroke="#5222D0" stroke-width="3" stroke-linecap="round" stroke-linejoin="round"/>
<path d="M465.281 422.902C467.1 431.525 471.937 438.276 474.544 446.619" stroke="#5222D0" stroke-width="3" stroke-linecap="round" stroke-linejoin="round"/>
<path d="M462.261 416.754C462.003 417.457 461.698 418.48 462.489 418.949C462.895 419.19 463.451 419.381 463.861 419.03C464 418.912 464.047 417.469 463.903 417.278C463.628 416.911 462.881 417.103 462.718 416.754" stroke="#5222D0" stroke-width="3" stroke-linecap="round" stroke-linejoin="round"/>
<path d="M683.601 236.705C683.601 244.31 683.601 251.914 683.601 259.519" stroke="#EC615B" stroke-width="3" stroke-linecap="round" stroke-linejoin="round"/>
<path d="M695.867 233.537C697.583 225.514 698.763 223.121 706.779 221.496C714.236 225.37 717.758 224.653 717.758 234.804C717.758 244.236 718.842 254.109 711.659 260.786C704.204 267.715 695.8 255.114 695.8 248.746C695.8 243.989 694.877 238.165 695.867 233.537Z" stroke="#EC615B" stroke-width="3" stroke-linecap="round" stroke-linejoin="round"/>
<path d="M738.354 221C730.854 221.181 726.936 225.586 726.936 232.968C726.936 233.896 726.736 236.118 727.647 236.659C728.097 236.926 728.305 237.343 728.662 237.713C729.219 238.292 729.92 237.758 730.489 238.188C731.314 238.811 733.341 238.797 734.472 239.058C735.757 239.354 736.932 240.206 738.126 240.481C741.019 241.149 742.008 245.31 742.008 247.784C742.008 250.802 740.228 254.041 737.872 255.877C735.078 258.054 732.617 259.91 728.991 259.91C726.051 259.91 725.993 257.253 724.653 255.165" stroke="#EC615B" stroke-width="3" stroke-linecap="round" stroke-linejoin="round"/>
<path d="M682.884 226.525C681.046 228.017 682.362 229.968 684.213 228.949C684.521 228.78 684.953 227.637 684.612 227.354C684.025 226.866 683.64 226.801 682.884 226.801" stroke="#EC615B" stroke-width="3" stroke-linecap="round" stroke-linejoin="round"/>
</svg>
